<svg id="Layer_1" data-name="Layer 1" xmlns="http://www.w3.org/2000/svg" viewBox="0 0 460.01 486.08"><defs><style>.cls-1{fill:#e6dcd1;}.cls-2{fill:#e1d5c4;}.cls-3{fill:#c3a389;}.cls-4{fill:#dbcbba;}.cls-5{fill:#cdb6a1;}.cls-6{fill:#d0bfaa;}.cls-7{fill:#e2a67e;}.cls-8{fill:#e6ae8d;}.cls-9{fill:#d09475;}.cls-10{fill:#a16e44;}.cls-11{fill:#865e3e;}.cls-12{fill:#dbae94;}.cls-13{fill:#eebd9f;}.cls-14{fill:#d7a98b;}.cls-15{fill:#e1bba1;}.cls-16{fill:#cf9c7d;}.cls-17{fill:#d8a889;}.cls-18{fill:#eac1a5;}.cls-19{fill:#835b38;}.cls-20{fill:#654b35;}.cls-21{fill:#e8b091;}.cls-22{fill:#d9ad8e;}.cls-23{fill:#dbb7a0;}.cls-24{fill:#9d7352;}.cls-25{fill:#e8ad8b;}.cls-26{fill:#f6f6f6;}.cls-27{fill:#e38153;}.cls-28{fill:#d4c0ae;}.cls-29{fill:#da9089;}.cls-30{fill:#d0857e;}.cls-31{fill:#d6c1b3;}.cls-32{fill:#dd9791;}.cls-33{fill:#d79568;}.cls-34{fill:#ddcebe;}.cls-35{fill:#c9b59d;}.cls-36{fill:#d8cab9;}.cls-37{fill:#6a3e23;}.cls-38{fill:#9a6139;}.cls-39{fill:#724529;}.cls-40{fill:#46230a;}.cls-41{fill:#673816;}.cls-42{fill:#c2a68f;}.cls-43{fill:#b2987b;}.cls-44{fill:#d6976f;}.cls-45{fill:#c98352;}.cls-46{fill:#d59772;}.cls-47{fill:#d38b66;}.cls-48{fill:#b97340;}.cls-49{fill:#d69363;}.cls-50{fill:#e6a181;}.cls-51{fill:#c6855e;}.cls-52{fill:#dea77f;}.cls-53{fill:#b47b53;}.cls-54{fill:#c8916e;}.cls-55{fill:#ca906b;}.cls-56{fill:#c1865e;}.cls-57{fill:#aa6d45;}.cls-58{fill:#d4966e;}.cls-59{fill:#ca9369;}.cls-60{fill:#6a4e37;}.cls-61{fill:#cea182;}.cls-62{fill:#d87645;}.cls-63{fill:#c5885d;}.cls-64{fill:#b7784d;}.cls-65{fill:#bc7c50;}.cls-66{fill:#be8863;}.cls-67{fill:#aa6d44;}.cls-68{fill:#c99170;}.cls-69{fill:#d1aa93;}.cls-70{fill:#894c27;}.cls-71{fill:#ce8c66;}.cls-72{fill:#553c28;}.cls-73{fill:#ccb9a2;}.cls-74{fill:#b47a50;}.cls-75{fill:#985d39;}.cls-76{fill:#b98e7a;}.cls-77{fill:#b97747;}.cls-78{fill:#ccb398;}.cls-79{fill:#d79773;}.cls-80{fill:#a56233;}.cls-81{fill:#dbcbb9;}.cls-82{fill:#bb997d;}.cls-83{fill:#c0a083;}.cls-84{fill:#7a4011;}.cls-85{fill:#cb8a63;}.cls-86{fill:#a96d43;}.cls-87{fill:#3d1c05;}.cls-88{fill:#bc7c4f;}.cls-89{fill:#ae6f45;}.cls-90{fill:#451e09;}.cls-91{fill:#c87a54;}.cls-92{fill:#894a17;}.cls-93{fill:#904e1a;}.cls-94{fill:#ae7148;}.cls-95{fill:#e4ab8a;}.cls-96{fill:#5e2311;}.cls-97{fill:#b2583a;}.cls-98{fill:#3e2f21;}.cls-99{fill:#d19570;}.cls-100{fill:#a6693b;}.cls-101{fill:#7c5942;}.cls-102{fill:#2e2114;}.cls-103{fill:#925932;}.cls-104{fill:#5f2609;}.cls-105{fill:#663918;}.cls-106{fill:#c58059;}.cls-107{fill:#9c5e37;}.cls-108{fill:#6f320c;}.cls-109{fill:#362516;}.cls-110{fill:#b08a67;}.cls-111{fill:#936c4d;}</style></defs><title>baby</title><g id="HVdW0F.tif"><path class="cls-1" d="M186,534.77c1.1-5.28,6-5.52,9.74-7.23,7.45-3.43,8.92-7.24,3.44-13.27-10.74-11.81-19.1-25.25-27.9-38.41,1.07-6.67-2.53-12.85-1.35-19.84a69.32,69.32,0,0,1,9.94-25.83c5.23-8.4,6.57-18.69,7.89-28.6,0.47-3.5-1.19-7.39,1.94-10.39,3,2.5,2.77,6.05,2.5,9.26-0.55,6.6,2.84,8.62,8.65,8.42a11.6,11.6,0,0,1,5,1.29c5.71,4.09,4.62,11.86,9,16.67a3,3,0,0,1,.46,1.75c-5.53,16.87,2.49,34.58-3.34,51.59-1.59,4.65.32,10.36,1.91,15.23,5.67,17.35-1.83,29.4-15.08,39.37H186Z" transform="translate(-169.72 -48.69)"/><path class="cls-2" d="M198.92,534.77c0-3.1,2.19-4.88,4.08-6.86,7.58-7.92,13.42-16.19,8.88-28.17-5.74-15.18.9-30.56,0-45.86a2.43,2.43,0,0,0,0-.9c-6.16-9.38-.75-18,1.73-26.8,4.17-4.12,9.88-2.3,14.73-3.81,3.18-1,6.71-.79,9.53-3a11,11,0,0,1,4-2c2.41-.5,5.18-0.92,6.44,1.64,1.36,2.76-1.12,4.54-3,5.77-6.66,4.24-11.44,9.72-12.89,17.69a10.69,10.69,0,0,1-1.19,2.42c-5.1,5.76-14.84,8.32-13,18.87,0,2.66,0,5.32-.2,8-2.8,8.45-.46,16.33,2.68,24.13,0.48,0.77.9,1.55,1.33,2.35,2.39,4.25,4.86,8.47,6.89,12.88,2.5,5.45,1.95,10.13-4.31,12.61,1.49,1.06,1.49,1.06,8.26,1.23a9.67,9.67,0,0,1,5.26,1.78c2.11,2.4,3.54,4.91,1.33,8h-40.5Z" transform="translate(-169.72 -48.69)"/><path class="cls-3" d="M237.5,527.5l-5.41-.12c-0.33-2.95,1.92-3.78,3.95-4,9.65-1,19.42-.7,29-2.73,1.74-.37,3.5.84,4.91,2.06a2.21,2.21,0,0,1,.09,3.18c8.79-3,17.38,1.83,26.13.66q16.87,0,33.73,0c16.8-.51,33.59.92,50.4-2,10.18-1.75,20.79-.46,31.21,0,15.92,0.75,31.79-.4,47.65-1.73,7.27,0.63,14.39-.66,21.52-1.77a294.66,294.66,0,0,0,52.55-5c5.94-1.05,12.13-1.5,18.06.74,3.16,3.6-.17,4.4-2.47,5.21-3,1.07-6.43.25-9.51,1.39a13.41,13.41,0,0,1-3,.76,104.69,104.69,0,0,0-25.82,3.92c-18,4.38-36.48,2.4-54.7,3.57-20.66,1.32-41.44,1.84-62.2,1.27-3-.08-6.17-0.45-8.73,1.81H279.91c-5.1-3.84-11.05-2.58-16.75-2.76C254.39,531.73,245.48,532.26,237.5,527.5Z" transform="translate(-169.72 -48.69)"/><path class="cls-4" d="M616.88,514.72c-2.15,4.37.39,6.94,3.68,9a15.21,15.21,0,0,1,7.28,11.06H526.59c-3.21-6.12.54-8.45,5.55-9.65,6.81-1.64,13.88-1.84,20.74-3.27,3.67-2.27,7.94-2.77,11.92-4.12,10.73-.74,21.48-0.16,32.21-0.37C604,519.19,609.84,512.51,616.88,514.72Z" transform="translate(-169.72 -48.69)"/><path class="cls-5" d="M554.15,523.57c-6.52,3.52-13.9,2.31-20.82,3.63-4.86.93-7,2.8-6.74,7.56H384.84c0.77-4.45,4.31-3.74,7.22-3.59,21.75,1.08,43.48-.62,65-2.4,18.26-1.51,36.69.47,54.77-3.24,8.49-2,17.41-.77,25.77-3.64h0C543.24,521.51,549.14,518.18,554.15,523.57Z" transform="translate(-169.72 -48.69)"/><path class="cls-6" d="M237.5,527.5c11.58-.4,23,2.86,34.58,1.91,3.8-.31,6.14,2.21,7.83,5.36h-40.5Z" transform="translate(-169.72 -48.69)"/><path class="cls-7" d="M200.73,411.44c-8.45,1.07-12.63-2-11.17-11.08,0.48-3,.14-6.11.17-9.17,0.44-2.54-.58-5.42,1.78-7.51,2.77-5.78,3-12.25,4.9-18.26,2.44-15.34,5.31-30.73,10.08-45.38,3.1-9.53,8.89-18.7,15.69-26.65a18,18,0,0,1,15.24-6.74c14.81,0.35,22.42-11,16.81-24.75-2.88-7.06-6.24-14-12.42-19.06-2.66-2.19-4.71-4.91-3.65-8.78a3.43,3.43,0,0,1,1.91-1.8c3.06,0.11,4.21,3.16,6.62,4.29a40.72,40.72,0,0,1,4.36,3.36c1.54,1.5,3.37,2.66,4.95,4.08,9.34,8.37,15.06,17.95,12.8,31.43-1.41,8.38-3.76,16.83-3.09,25.41,1,12.53,2.84,24.79,10.6,35.53,4.5,6.24,6.44,13.41-.53,19.83-5.24,2-6.84-2.58-9.35-5.31-11.36-12.41-19.44-27.3-30.27-40.09a11.84,11.84,0,0,0-3.61-3.13c-2.65-1.2-3,.87-3.64,2.54-4.39,11.37-6.92,23.28-9.93,35a12.77,12.77,0,0,0,.65,7.17c1.13,3.52,1,6.63-2.82,8.5a6.7,6.7,0,0,1-2.58.22c-1.19-.08-2-1.42-3.37-0.95a4.17,4.17,0,0,1,2,1.52,9.63,9.63,0,0,1,1,2.43c-0.55,7.24.65,12.74,8.13,17.08,8.7,5,8.06,12.3-.35,17.81C214.87,403.46,208.28,408.28,200.73,411.44Z" transform="translate(-169.72 -48.69)"/><path class="cls-8" d="M239.42,232.87c-0.18,2.91.28,5.91,2.93,7.29,8.09,4.2,10.63,12.4,14,19.67,8.22,17.6-2.23,31.34-21.57,29.65-9.15-.8-12.84,7.09-16.34,13.42-7.27,13.15-14,26.3-15,42.22-0.4,6.23-3.94,13.55-6.28,20.3-1.6-3.66-1.34-7.35-.19-11.06l4-25.77c2.06-6.07,3.48-12.32,5.31-18.45h0c4.29-6.14,4.51-13.8,7.67-20.41,4.89-10.22,9.58-20.3,18.65-27.86,5.62-4.69,9.29-10.49,3.13-18.12-4.38-5.43-.85-12.54-2.41-18.72a78.87,78.87,0,0,1,2.11-24.57c2.71-11.5,1.3-22.44-5.85-32.28a20.09,20.09,0,0,1-3.86-8.27c-1.4-8.27-6.16-10.18-13.55-7.59-0.92-6.57,9.41-17.44,15.23-16,2.69,0.68,4.78,2.85,4.15,5.28-2,7.58,2.88,13.37,4.49,20,0.83,1.19,1.72,2.32,2.52,3.54,7.57,12.25,10.85,25,5.62,39.21-2,5.5-1.83,11.44-1.84,17.27C242.28,225.59,242.49,229.67,239.42,232.87Z" transform="translate(-169.72 -48.69)"/><path class="cls-9" d="M322.66,236.52a4.49,4.49,0,0,0-.23,1.59C322.3,249,317.25,257.37,309,264c-2.14,1.17-4.65,1.46-6.7,2.8-2.77,3,.29,4.53,1.79,5.93,9.14,8.57,11.41,20.62,16.06,31.43,1.42,3.31,1.6,7.24-1.75,10.15-6.72-.91-8.11-6.73-8.52-11.47-0.86-9.92-6.67-16.76-12.41-23.82a195.55,195.55,0,0,1-13-17.67c-3.28-5.12-3.36-9.92,3.77-12.14a12.43,12.43,0,0,1,6.26.39c5.7,1.94,10,.39,13.09-4.77a31.18,31.18,0,0,1,7.95-8.61c1.94-1.48,3-3.22-.15-4.62-2.8.08-4.66,2.06-6.85,3.35-1.8,1.1-3.46,2.48-5.68,2.68a3.78,3.78,0,0,1-3.35-1.9c-1-4.57,2-7,5.3-8.65,16.87-8.68,20.55-24.74,18.79-40.65-1.11-10-1.59-20.45-3.87-30.46,2.25-2.93,1.86-5.86,1-9.35-1.3-5.11-1.46-10.47,4.36-13.6,6.14,3.57,11.78,16.94,8.85,23.52-2.73,6.14-2.47,12.18-.89,18,4.65,16.91,6,33.11-6.27,47.69-1,1.19-.95,2.88-1.18,4.39C325,230.06,325.06,233.65,322.66,236.52Z" transform="translate(-169.72 -48.69)"/><path class="cls-10" d="M196.7,159l-1.2-5.29c5.55-3.21,7.22-8.22,5.84-14.11-2.39-10.17.17-20.14,1-30.13,0.68-8.57,15.44-23.68,23.43-25.27,3.73-.74,6.66.93,9.07,3.38,2.73,2.78,5.69,4.57,9.71,4.08a31.4,31.4,0,0,1,11.08,4.14c11.89,6.85,19.43,6.16,29.67-3.46,8.14-7.65,17.12-12.72,28.61-12.09,6,0.33,10.82,2.13,10.21,9.6a16.2,16.2,0,0,1-12.27,2.75c-7.68-1.2-12.75,2-17.43,7.65-12.27,14.74-17.71,16-36,9.15-3.48-2.36-7.67-3.88-10.49-7s-5.33-1.61-8.12-.77a11.71,11.71,0,0,1-2.54.34c-4.75-1-9.61-.57-14.43-1.1-8.85-1-9.61,6.34-10.64,12.76-3.82,9.12,1,18.56-1.19,27.86-1.26,5.42-2.4,11.06-.75,17,1,3.64.73,8.11-4.6,9.35C200.62,167,196.51,165.17,196.7,159Z" transform="translate(-169.72 -48.69)"/><path class="cls-11" d="M324.08,89.27c-6.16-7.62-15.78-8.94-25.46-3.85-6.57,3.46-11.68,8.75-17.23,13.42-7.91,6.66-15.89,4.11-23.83,1.18-4.47-1.65-8.49-4.56-12.71-6.9l0.87-1.05c2.09-1.27,4.31-1.17,6.57-.67,15.6,6.79,28.34,2.83,38.67-10.26,0.56-.71,1.26-1.32,1.87-2,10.46-11.55,10.46-11.55,24.34-4.2,3-1.45-.56-4.59,1.53-6.24,17.68,10.26,24.63,26.53,25.8,46,0.78,3.19,1.82,6.38,1.87,9.64s1.44,7.26-2.39,9c-3.27,1.48-5.26-2.16-7.83-3.5a8.4,8.4,0,0,1-2.62-3.31C331.39,113.88,331.48,100.63,324.08,89.27Z" transform="translate(-169.72 -48.69)"/><path class="cls-12" d="M322.36,225.65c0.47-1.41.53-3.26,1.48-4.17,13.29-12.77,10.38-27.52,6.85-43.25-1.6-7.15-6.12-16,1.62-23.08a2.48,2.48,0,0,0,.6-1.62c-6.91-4.93.36-16.15-8.88-20l-0.77-1.19c3-9.24,4.81-9.46,14.7-1.82,6,6.42,6,15.91,11.43,22.64,0.84,1,1.49-.3,2.09.29-1.79,12.53-10.77,23.17-10.41,36,0.34,12.07-3.81,21.79-11.39,30.56C328.41,223.43,326.8,226.38,322.36,225.65Z" transform="translate(-169.72 -48.69)"/><path class="cls-13" d="M228.34,220c-5.1-10.46-14.49-17.31-21.82-25.9,1.25-2.05,1.21-4.49,2-6.69a42.1,42.1,0,0,0,.67-7.64c0.07-3.44-.08-6.88.09-10.32,0.88-3.59.3-7.39,1.45-10.91s3.29-6,7.14-6.2c4-.18,6.47,2.41,7.06,6a27.12,27.12,0,0,0,6.72,13.78c2.48,2.86,3,6.62,3.33,10.34,1,10.81-1.75,21.34-2.42,32A6.06,6.06,0,0,1,228.34,220Z" transform="translate(-169.72 -48.69)"/><path class="cls-14" d="M318.57,313.87c-1.3-14.66-6.39-27.75-16-39a66.52,66.52,0,0,1-5.22-7.33c-0.83-1.29-1.21-3.23.35-4,2.25-1.1,2.63,1.93,4.19,2.59a9.19,9.19,0,0,1,4.12,3.37c12.64,15,18.45,33.44,25.06,51.42a166.2,166.2,0,0,0,8,18.41,41.77,41.77,0,0,0,2.88,6.75,34.3,34.3,0,0,0,4.35,6.76c1.51,1.83,3.52,3.17,5,5,3.48,5.25,8.93,9,11.55,14.9,9.16,17.21,22.25,31.68,33.27,47.59a3.74,3.74,0,0,1,.32,3.81c-4.6,2.06-6.57-1.9-9.07-4.18-10.49-9.56-17.86-21.55-24.62-33.77-7.38-13.33-18.73-23-28.92-33.76a10.1,10.1,0,0,1-2.2-3.3,21.46,21.46,0,0,0-5-10.3C320.56,331.68,318.88,323,318.57,313.87Z" transform="translate(-169.72 -48.69)"/><path class="cls-15" d="M324,238.7c11.48,10.45,20.08,23,26.8,36.91a20.67,20.67,0,0,0,2.66,3.45,0.93,0.93,0,0,1,.55,1.08,0.71,0.71,0,0,1-.45.59l3.33,11c-3.42.65-5.53,2-4.24,6.12A33.07,33.07,0,0,1,354,312.31c-0.29,2.1-.6,4.68-3,5.13s-3.55-1.85-4.55-3.77c-2.54-11.44-6.44-21.75-15.72-30.12-6.6-6-10.33-14.75-6.87-24.18C326.45,252.32,321.4,245.55,324,238.7Z" transform="translate(-169.72 -48.69)"/><path class="cls-16" d="M425.44,448.21l3.59,1.9c10.07,3.56,20.74,5.13,30.66,9.19,14.51,3.24,27.87,12.09,43.74,8.7a7.37,7.37,0,0,1,6.71,2c-3.33,7.18-9,9.3-19.68,8.19-18.51-1.92-35.82-7.62-52.23-16.12-7.21-3.73-14.49-6.49-22.72-6-6.49-3.65-14.15-3.28-20.92-6-6.6-3-13.34-5.63-19.78-9-3.17-1.63-7-3-5-8,3.52-3.14,8-1.7,12-2.65a14,14,0,0,1,6.29,1.1c2.13,0.89,4.3,1.56,6.65.89,1.45-.66,2.8-1.69,4.56-1.25,1.13,0.51,2.81,1.61,2.46,2.33-3.29,6.81,2.78,6.11,5.79,6.74,6.11,1.27,10.25,6.11,16,7.93h1.89Z" transform="translate(-169.72 -48.69)"/><path class="cls-17" d="M324,238.7c3.09,8.36,4.11,16.33,1.59,25.57-1.79,6.57,2,14.62,8.08,19,10.7,7.7,13.63,18.46,14.38,30.54,1.18,2.16,1.44,4.64,2.38,6.88,0.15,4.18.58,8.27,2.73,12,1.48,2.6,2.81,5.35.74,8.34-7.65.73-12.55-3.75-11.69-10.38,2.58-19.93-11.31-31.92-20.28-46.42-4.37-7.06-11.39-12.15-14.41-20.12,6.48-7.82,10.81-16.88,14.91-26.06A8.22,8.22,0,0,1,324,238.7Z" transform="translate(-169.72 -48.69)"/><path class="cls-18" d="M235.71,225.55c1.58,7.84-.48,15.86,6.11,23.46,3.92,4.52-3.34,11.83-8,15.6C221.71,274.32,217,288,212,301.62c-1.32,3.64-2.25,6.77-5.81,8.53,4.3-16.42,9-32.74,12.77-49.28,2.89-12.73,8.36-24.58,11.37-37.22C232.81,222.41,234.25,224,235.71,225.55Z" transform="translate(-169.72 -48.69)"/><path class="cls-19" d="M244.86,93.13c-4.2,2.6-7.54,1.28-10.36-2.31-4.12-5.24-7.33-5.07-13.59-1.29-18.66,11.27-18.06,28.55-17.16,46.43,0.2,4,.67,7.92.59,11.87-0.11,5.95-3,8.28-8.83,5.89l-0.3-16.57c-5.6-15.6-6.35-31.21-.15-46.83a5.26,5.26,0,0,1,2.33-1.67c4.95,2.05,9.55,2.71,13.78-1.93,1.78-1.95,4.78-2.5,7.23-3.67,12.06-5.76,19.77-2.9,26.57,9.87Z" transform="translate(-169.72 -48.69)"/><path class="cls-20" d="M318.71,68.71a27.17,27.17,0,0,0,2.42,3.79c1.55,1.75,2.76,3.23.52,5.39s-3.94,1.54-6.35-.06c-11.13-7.4-11.15-7.27-19.84,2.3-2.87,3.16-5.95,6.15-9.06,9.08-9.92,9.36-20.31,10.5-34.21,3.86l0.67-1.1c3.21-2.82,6.94-2,10.38-1,6.6,1.88,12-.58,16.79-4.48,10.73-8.76,8.62-22.76-4.1-28.38-3-1.33-6.81-1.82-5.1-6.67,5.78-3.41,11.86-1.14,17.82-.92,6.29,2,11.81,5.49,17.21,9.19C310.2,62.59,315.15,64.66,318.71,68.71Z" transform="translate(-169.72 -48.69)"/><path class="cls-21" d="M235.71,225.55l-5.35-1.9-2-3.63c2.75-13.68,4.34-27.46,3.5-41.43a8.18,8.18,0,0,0-3.42-6.23c-4.08-2.93-5.65-7-5.6-11.83,0-2.86-.4-5.76-3.83-6.36-4-.69-5.48,2.54-6.19,5.39-0.87,3.47-.76,7.19-1.08,10.81-4.75-.91-2.55-4.59-2.56-7.09,0-3.53-.78-7.07,0-10.6a1.82,1.82,0,0,1,2.68-.83c10.79-7.25,11.81-7.23,15.22,5,2.11,7.55,8.05,12.75,10.23,20.16,2.38,8.1,3.33,16,.74,24.17S235.66,217.35,235.71,225.55Z" transform="translate(-169.72 -48.69)"/><path class="cls-22" d="M348.07,321.31q0-3.74,0-7.48c1.31,0.39,3.21,4.51,3.64-.59,0.5-5.84-.71-11.46-1.93-17.11-0.51-2.38-3.41-5.32.07-7.3,3.07-1.75,4.69,1.94,7.07,2.95a45.93,45.93,0,0,1,.3,35C351.35,329.67,350.38,324.38,348.07,321.31Z" transform="translate(-169.72 -48.69)"/><path class="cls-15" d="M348.07,321.31c3.37,1.27,4.93,5.58,9.14,5.44,1.11,15.43,7.81,30.17,5.61,46-5.12-4.14-10.85-7.74-12.9-14.59,1.73-1,3.21-.15,4.68.61,3.58,1.69,2.15-1.18,2-2.39-0.69-4.62-3.38-8.77-3.27-13.6,0.06-.42.13-0.84,0.2-1.26C353.57,334.27,344.94,329.37,348.07,321.31Z" transform="translate(-169.72 -48.69)"/><path class="cls-23" d="M423.55,448.2c-7.09-2.3-14.24-4.46-21.25-7-2.39-.86-7.39-1.54-1.74-5.67,1.25-.92-1.27-2.93-2.78-3.92-2.75-1.84-4.06-4.07-2-7.23q0.14-2,.29-4C406.52,428.37,412.64,440.65,423.55,448.2Z" transform="translate(-169.72 -48.69)"/><path class="cls-24" d="M351.48,153.45c-2.08.87-8.33-3.61-8.94-6.71a47.34,47.34,0,0,0-5.62-15.11,2.55,2.55,0,0,1-.23-3.47c3.33-.78,3.88,3.31,6.69,3.85,2.77-5.65.63-11.55,1.13-17.26,2.27,3.42,3,7.35,3.8,11.27-1,9,4.16,17.11,3.47,26Q351.66,152.76,351.48,153.45Z" transform="translate(-169.72 -48.69)"/><path class="cls-25" d="M210,188.8c0,2.51,0,5.08-3.48,5.33-4.21-5.18-9-10-11.15-16.53,2.65-5.48-.09-9.34-3.88-12.88-0.09-3.57,1.79-5.34,5.21-5.7l7.76,7.56c2.57,1.74,5.56,3.21,4.61,7.2C204.27,179.09,206.72,184,210,188.8Z" transform="translate(-169.72 -48.69)"/><path class="cls-26" d="M322.36,225.65l7.33-5.62c-1.44,5.88,5.55,15.36-7,16.49Q322.51,231.08,322.36,225.65Z" transform="translate(-169.72 -48.69)"/><path class="cls-27" d="M191.5,164.71c4.59-.19,7.92,1.53,7.24,6.56-0.29,2.13,3.85,7.62-3.37,6.32C192.33,173.83,190.61,169.66,191.5,164.71Z" transform="translate(-169.72 -48.69)"/><path class="cls-12" d="M351.78,152.06c-3.79-8.33-5.74-16.9-3.47-26C349.64,134.67,356.16,142.64,351.78,152.06Z" transform="translate(-169.72 -48.69)"/><path class="cls-1" d="M197,354.37q0.09,5.53.19,11.06c-2,6-.28,13.25-5.64,18.26Z" transform="translate(-169.72 -48.69)"/><path class="cls-26" d="M353.58,280.73a4.78,4.78,0,0,1-.11-1.67c0.52-3.05-1.13-7.08,3.27-8.45,1.84-.57,2.8,1.38,2.9,2.74C359.92,277.54,358,280.23,353.58,280.73Z" transform="translate(-169.72 -48.69)"/><path class="cls-18" d="M206.24,310.15c-0.38,6.55-1,13-5.31,18.45C200.63,321.85,203,315.87,206.24,310.15Z" transform="translate(-169.72 -48.69)"/><path class="cls-26" d="M344,249.63c0.1,1.7-.53,3-2.33,3.08a2.2,2.2,0,0,1-2.48-2c-0.21-1.57.2-3.08,1.87-3.55C343,246.64,343.52,248.21,344,249.63Z" transform="translate(-169.72 -48.69)"/><path class="cls-28" d="M532.11,465c6.29-.36,13.17,2.2,18.31-3.76,1.45,2.87,3.06,4.24,7,3.86,19.09-1.87,38,2.64,57.15,1.78,1.29-.06,2.64,1.12,4,1.73-4.91,3.88-11.48,3.83-16.64,7.12-5.71,1.6-11.47,1.12-17.25.42-3.26-.4-7.13-1.86-9.36,1.44-2.09,3.09,1,5.65,2.53,8.14a32.07,32.07,0,0,1,4.08,13c1.09,9-2.72,12.88-11.94,12.95-9.74.07-14.66-6.22-18.92-13.54-7.73,2.13-7.84,2.14-8.62-7.35-0.56-6.78-1.57-13.21-8.24-17C532.05,471.16,529.61,468.63,532.11,465Z" transform="translate(-169.72 -48.69)"/><path class="cls-29" d="M602.08,474c4.14-5.85,10.42-5.26,16.43-5.47,13.22,10,14.26,16.32,5.76,35.13-4.16-3.9-1.47-8.58-1.5-13,0-2,.69-4.88-2.15-5.27-2.48-.34-3.23,2.38-4.15,4.23-2.61,5.22-3.65,11-5.71,16.4-2.81,7.37-6.6,8.67-13.93,5.22C594.13,498.26,594.86,485.69,602.08,474Z" transform="translate(-169.72 -48.69)"/><path class="cls-30" d="M598.48,512.7c7.44-1,10.23-5.72,11.4-12.76,0.83-5,3.41-9.68,5.23-14.49,1.2-3.19,3.56-5.29,6.9-4.43,2.87,0.74,3.82,3.55,4,6.52,0.26,5.49-2.9,10.6-1.7,16.17,0.21,5.47-3.58,8.24-7.39,11-5.81,3-11.16,7.58-18.48,5.33a5.82,5.82,0,0,1-1.73-3.72A4.44,4.44,0,0,1,598.48,512.7Z" transform="translate(-169.72 -48.69)"/><path class="cls-31" d="M458.49,461.11c-9.75-3.85-20.4-5.3-29.46-11,7.94-2.57,14.07,4.7,22,3.74,19.21-2.35,38.9.48,57.83-5.29,2.25-.69,4.89-0.9,6.67,1.53-3.7,4.68.72,11.5-4.18,15.89-7.76,2.7-14.85-1.82-22.38-2.23C478.8,463.19,468.55,463,458.49,461.11Z" transform="translate(-169.72 -48.69)"/><path class="cls-32" d="M511.77,464.71a21.86,21.86,0,0,0-1.28-8.71c-1.34-4.23.76-6.11,5-5.9,7.83,2.39,9,12.18,16.61,14.87a10,10,0,0,0,3.74,7.29,15.28,15.28,0,0,1,2.32,6.14c-0.7,6.22-1.53,12.41-1.72,18.72-0.11,3.75-.52,9.4-7.24,5.46a14.18,14.18,0,0,1-1.81-7.68c0.33-6.22.65-12.45-.6-18.62-0.55-2.25-.45-4.74-2.3-6.52-3.74-.95-7.67,2.18-11.32-0.51C511.87,468,510.78,466.66,511.77,464.71Z" transform="translate(-169.72 -48.69)"/><path class="cls-33" d="M200.73,411.44c4.74-6.41,11.89-9.67,18.38-13.69,9-5.56,10.29-11.4,1.12-14.78-11.62-4.28-9-11.57-8.36-19.45,12.69-2.15,33.27,12,35.06,24.1,1,6.78-2.47,10.94-8,14A93.19,93.19,0,0,1,209.06,412a3,3,0,0,1-2.77-.47Z" transform="translate(-169.72 -48.69)"/><path class="cls-34" d="M206.29,411.51l2-.4c7.13-2.5,14.89-1.33,22-3.8a8.45,8.45,0,0,1,2.71.76c4,2.72,3.43,7.91,6.12,11.36,0.13,0.41.25,0.82,0.38,1.24-7.56,6.76-16.89,5.24-25.83,5.51-1.94-.28-5.46.31-4.62-2.59C210.42,418.73,206.22,415.7,206.29,411.51Z" transform="translate(-169.72 -48.69)"/><path class="cls-35" d="M215.5,472.16V463c2.13-8.34,10.52-11.72,14.66-18.47q0.09-.86.1-1.72c10.82-8.78,20.54-19.12,33.4-25,5.43-2.49,6.34-7.9,9.73-11.65,5.24-3,10.93-3.28,16.74-2.83a21.4,21.4,0,0,1,4.13.61c2.74,1.51,7.51.81,7.67,5.18,0.13,3.48-4.28,4-6.12,6.09-6.83,7.88-18.44,7.78-25.13,15.63-6.76,5.28-11.47,13-19.71,16.35,2.67,5.77,11.24.81,13.54,7.45-1.68,7.46-1.63,15.5-7.34,21.58-2.81,2.76-2.18-7.93-5.93-1.49-10,2.13-19.55,7.65-30.39,4.86C218,477.92,217.18,474.72,215.5,472.16Z" transform="translate(-169.72 -48.69)"/><path class="cls-6" d="M221,477.7c1.71,0.58,4.15,2.2,5,1.59,7.45-5.29,16.13-4.23,24.39-5.31,3.34,3,1.93,6.65,1.61,10.2-0.65,7.07-2.07,14.15.13,21.31,0.62-4.73-.65-9.85,3.74-13.42,3.29-.16,3.89,2.4,4.49,4.7,1.33,5,4,9.42,6.6,13.8a13.84,13.84,0,0,0,4,6.63c1.81,1.64,3.07,3.7.76,6l-1.16.46c-12.8,1.68-25.84.88-38.53,3.7-5.48.11-11,.56-15.73-3.44,1.71-3.07,4.35-1.62,6.47-2,4.61,1.69,8.8-1.22,13.31-1.24,3.57,0,4.44-2.43,2.84-5.82-1.71-3.62-3.2-7.76-2.42-11.54,1.61-7.79-2.38-6.7-7-5.12-3.54,1.21-7,2.55-10.41-.23h0C219.5,491.17,222.33,484.63,221,477.7Z" transform="translate(-169.72 -48.69)"/><path class="cls-34" d="M272.43,408.23c2.67,5.36-1.6,9.52-4.7,10.21-10.29,2.27-15.2,11.5-23.43,16.15-4.73,2.67-8.49,7-14,8.25,0-11.7,8-17.29,17.75-22.33-3.58-2.86-6.06-1-8.56.16l-0.07-.07c-2.18-3.6-5.78-7.49-1.48-11.37,3.86-3.48,7.8-1,11.58,1.57,7.54,5.19,13.06-1.18,19.2-3.87C270.19,406.63,271.53,406.8,272.43,408.23Z" transform="translate(-169.72 -48.69)"/><path class="cls-36" d="M219.17,497.95c6.81,0.86,12.19-5.46,19.26-3.72,2.66,0.66,5.54,1,2.85,4.3-5.34,6.46-1.25,11.4,2,16.54,3.07,4.78-.55,7.35-3.77,8-5.47,1.05-11.36,2.2-16.72-1.12,6-1.12,6.62-4.66,4.17-9.43S221.79,502.79,219.17,497.95Z" transform="translate(-169.72 -48.69)"/><path class="cls-36" d="M221,477.7c7,7.44,2.18,13.81-1.84,20.25-3.86-8.22-7.81-16.43-3.67-25.79A12.25,12.25,0,0,1,221,477.7Z" transform="translate(-169.72 -48.69)"/><path class="cls-34" d="M230.18,444.56c0,10-11.06,11.3-14.66,18.47C214.6,452.27,222.17,448.24,230.18,444.56Z" transform="translate(-169.72 -48.69)"/><path class="cls-37" d="M460.34,525.37c-43.53,2.62-87.13,3-130.71,3.81-0.48-3.15,1.94-2.4,3.59-2.67,10,0.05,20.07,0,29.84-3-9.76,3-19.78,3-29.82,2.91-1.41,0-2.85.12-3.94-1.06,0.05-1.31.57-2.69,1.79-2.87,12.35-1.87,23.15-8.92,35.55-10.6a15.65,15.65,0,0,1,7.75,1.3c2.57,1.5,4.77,3.41,8.32,2.79,9.47-1.68,18.67-.14,28,2.2,17.51,4.42,34.94.06,52.36-1.66,10.58-1,21-3.86,31.77-2.78a8.14,8.14,0,0,1,4,1.93c0.29,5.73-4.27,4.6-7.47,5.09C481,522.38,470.41,521.94,460.34,525.37Z" transform="translate(-169.72 -48.69)"/><path class="cls-38" d="M366.44,514.49c-5,.32-9.3,2.2-13.6,4.67-7.2,4.13-15.76,3.69-23.46,6.25-7.95,3.88-16.63,1.37-24.87,2.86-3.22.59-6.66-.82-9.8,0.93-8.16-.61-16.39-0.79-24.47-2-3.87-.58.68-2.23,0.38-3.52l0.07-.05a7,7,0,0,1,3.83-1.27,45.06,45.06,0,0,0,8.18.55c2.86,0.08,5.72,0,8.59,0,14.34,1.12,26.83-4.79,39.22-10.65,9.43-4.46,19-6.71,29.21-3.83C362.9,509.29,366.55,509.89,366.44,514.49Z" transform="translate(-169.72 -48.69)"/><path class="cls-39" d="M499,516.4l-3.88-.16a3.1,3.1,0,0,1,1.91-3.7c8.73-3.19,18-4.84,26.32-9.24,1.7-.9,4.25-0.07,4.36,1.93,0.6,11,8.66,5.65,13.85,6.54,4.68,0.11,9.38-.23,14,0.76A6.23,6.23,0,0,1,558,514c0.94,2.18-.08,3.64-1.76,4.88a3.42,3.42,0,0,1-3.88-.72c-20.8-.57-41,5.06-61.75,5.58-3.34.08-6.69,0-10,0,3.28-4.79,8.41-3.11,12.9-3.79C495.73,519.64,499.78,521.56,499,516.4Z" transform="translate(-169.72 -48.69)"/><path class="cls-40" d="M499,516.4c2.6,0.14,5.43-.67,7.81,2-8.14,5.56-18.11,1.29-26.26,5.41-6.66,1.56-13.36,2.67-20.23,1.59-2.71-2.69-2.08-3.2,1.62-3.58C474.38,520.52,487,520.09,499,516.4Z" transform="translate(-169.72 -48.69)"/><path class="cls-41" d="M294.71,529.21c11.36-3.1,23-3.75,34.67-3.79l4.13,0.28a0.89,0.89,0,0,1,.46,1.14,0.8,0.8,0,0,1-.57.52l-3.76,1.82Z" transform="translate(-169.72 -48.69)"/><path class="cls-42" d="M552.36,518.21l3.31-.23c3.06-1.4,5.87-1.85,7.6,1.94-2.28,3.09-6.38,1.66-9.11,3.66-5.22-3.38-11-1-16.51-1.68C541.78,517.59,548.22,522.51,552.36,518.21Z" transform="translate(-169.72 -48.69)"/><path class="cls-42" d="M537.64,521.89c-7.94,5.79-17.1,3-25.77,3.64C520.15,522.16,528.85,521.72,537.64,521.89Z" transform="translate(-169.72 -48.69)"/><path class="cls-43" d="M563.26,519.92l-7.6-1.94,2.17-3.41c0.43-.44.84-1.18,1.31-1.22,13.21-1.11,26.43-2.06,39.18,3l0.07,3.73Z" transform="translate(-169.72 -48.69)"/><path class="cls-44" d="M274.32,356.51c5.37-7.39,3.52-14.2-1.38-21-10.49-14.61-10.83-31-8.51-48,1.75-12.83,5.34-25.89-5.21-37.29-3.34-3.61-8.57-5-10.64-9.87a4.4,4.4,0,0,1,2.32-1.26c4.61,0.07,8.68,2,12.88,3.61,2.68,1.85,5.9,2.66,8.66,4.38,7.77,5,7.3,12.07,6.08,20.23-2.52,16.82-5.64,34.26,5.39,49.4,6.28,8.62,8.61,18,9.59,28.11,0.35,3.63-.1,7.35,1.34,10.84,1.21,5.43,4,10.05,6.89,14.73,4.89,7.84,2.86,13-6,16.93-3.75-.12-5.81-2.72-7.87-5.33a38.52,38.52,0,0,1-4.33-6.55c-1.82-4.72-6-7.78-8.48-12.07a12.19,12.19,0,0,1-1.72-3.34A3.42,3.42,0,0,1,274.32,356.51Z" transform="translate(-169.72 -48.69)"/><path class="cls-45" d="M232,409.3c-7.86,1.42-15.7,3.15-23.77,1.81,0.32-2.11,1.58-3.47,3.67-3.24,9.11,1,16.32-4,23.87-7.6,11-5.25,12.84-17.73,2.33-23.34-8.6-4.59-15.7-12.61-26.26-13.42q-0.1-.86-0.16-1.72c-0.4-1.72.06-2.59,2-2q0.89,0.05,1.77.16c4.54-.28,8.87,1.32,15.33,2-6.56-7.94-4.55-14.05.36-20.7,3.83-5.18,1.82-11.69.56-17.77-1.22-5.87-3.1-12.07,2.27-17.17,1.5,0.17,2.8.63,3.31,2.25,5,8.59,8.66,18,15.48,25.55,4,4.49,5.34,10,1.61,15.17s-8.58,7.57-14.14,4.49c3.71,1.1,7.19,4,10.63,7.07,4.85,4.28,5.32,8.05-1.09,11.21-6.16-.28-11.9-2.54-17.81-4,5.78,2.1,11.94,2.79,17.72,4.88,4.77,3.8,9.77,7.25,12.66,13,5.28,10.55,3,15.49-8,19.31C247,407.85,239.06,405.91,232,409.3Z" transform="translate(-169.72 -48.69)"/><path class="cls-46" d="M244.94,238.39a5.64,5.64,0,0,1-3.66-5.51c0.52-1.11-.66-0.08.19-0.86,13.12-11.89,7.83-27.3,8-41.64a15.42,15.42,0,0,0-2.84-9.45c-3.4-4.66-4.43-9.88-4.18-15.49,2.38-3.7,5.73-2.93,8.64-1.26,5.25,3,9.05,1.82,12-3.14a21.7,21.7,0,0,1,1.34-2.22c2.06-2.57.9-5.1,0-7.72-0.94-2.86-.38-5.45,2.34-7.15s5.23-1,7.67.59a15.9,15.9,0,0,1,5,5.24c3.48,5.89,5.88,12.48,14.14,14,3.58,0.64,3,5.61,4.84,8.29,5.09,9.76,4.83,8.92-5.69,11.79-6.61,1.8-12.06,3.82-17.12-2.26-1-3.64,1.73-6.32,2.4-9.52s0.74-6.87-3.15-7.26c-3.35-.33-4,3.08-3.81,6,0.08,1.51.43,3-.76,4.31-10.86,6.32-14.37,16.3-10.68,27.45,4.64,14-.65,23.59-10.62,32.18A53.92,53.92,0,0,1,244.94,238.39Z" transform="translate(-169.72 -48.69)"/><path class="cls-47" d="M244.94,238.39c-0.6-3.7,2.22-5.17,4.38-7.36,7.21-7.35,12.72-14.51,7.75-26.49-6.06-14.6.77-27.76,13.65-30.57,3.66,2.51.87,8.21,5.16,10.4,4.46,2.43,10.25,3.35,11.14,9.82,0.81,4-.87,7.19-3.45,10a61.3,61.3,0,0,1-12.18,10.12,15.13,15.13,0,0,0-6.25,7.49,35.56,35.56,0,0,1-14.72,18.42l-1.85,0Z" transform="translate(-169.72 -48.69)"/><path class="cls-48" d="M250.4,370.77c2-2.75,4.08-4.64-.54-7.86-5.37-3.75-10.46-7.93-17.4-10.66,4.46-2.38,7.5.1,10.51,0.66,5.54,1,8.32-2.8,10.31-5.91,2.35-3.68,1.18-8.19-2.42-11.61C243.17,328.1,239,319,237.29,308.6q16.69,22,33.4,43.95c1.08,1.42,2.42,2.64,3.63,4l0.18,3.25c-5.37,5.19-10.1-1.7-13.95-.35,4.32,0.93,9.78,3.23,15.76,2.28,2.86,4.44,8.07,7.21,9.14,12.91C273.09,379.45,261.5,377.36,250.4,370.77Z" transform="translate(-169.72 -48.69)"/><path class="cls-49" d="M234,306.35c-2.56,10.12,2.47,19.79,1.79,29.81-0.23,3.35.05,6.57-3.36,8.84-6.24,4.14-5,8.87-.66,13.71,1.33,1.49,4.06,2.79,2.83,5.15-1.39,2.67-4.47,1.78-6.55,1-4.21-1.55-9-1.85-12.56-4.93,1-1.07,3.11-2.52,2.88-3.17C212,338.58,224,323.54,227,307,227.72,302.9,231,300,234,306.35Z" transform="translate(-169.72 -48.69)"/><path class="cls-50" d="M243,164.85c2.65,11.35,11.91,20.76,9.42,33.73-0.84,4.38.06,9,1.09,13.62,2.3,10.34-5.71,15.22-12.25,20.68h-1.86c0-12.19-.83-24.45,3.57-36.21,4.56-12.18-3.14-21.55-7.28-31.73C238.12,162.54,240.57,162.56,243,164.85Z" transform="translate(-169.72 -48.69)"/><path class="cls-49" d="M213.7,359.79l-2,2c-3.56-.54-5.94-2.27-6.74-6.78C209,355.44,211.31,357.72,213.7,359.79Z" transform="translate(-169.72 -48.69)"/><path class="cls-51" d="M243,164.85l-7.33.07-1.94-2c-0.56-1.37.07-2.46,0.8-3.53,4-4.68,8.51-9.22.18-14.25-1.33-.81-0.87-3.3-0.16-5a4.09,4.09,0,0,1,4.34-2.14c3,1.26,5.91,2.92,9.36,1.53-1.1-.74-2.57-0.86-3.48-2-0.62-4.21,2.91-4.08,5.28-4.68,6.7-1.71,7-5.76,4.51-11.08-3.82-8.05-10.66-14-15.25-21.47,3.88-3.65,7.34-5.38,10.48,1,1.55,3.16,7.5,1.47,8,6.38,6.19,4.94,12.22,10.13,19.18,14,4.72,2.61,7.21,6.31,7.42,11.69,0.14,3.66,1,7.24,1.48,10.86,1.55,12.79,11.16,19.9,23.82,18.69,5.43-.52,5.5-7.35,10.68-7.3,0.85,1.26,2.34,2.48,2.44,3.8,1.64,21.62,9.6,43.93-6.8,63.67a16.31,16.31,0,0,1-7.46,4.87c-4,1.49-7.95,3.47-8.43,8.6l-1,.71c-4,0-3.94-3.26-2.44-4.87,5.62-6.06,2.88-11.1-1.11-16.26,0.57-3.17,3.82-3.51,5.6-5.35,3.14-3.24-.92-2.72-2.2-3.62-5.2-3.7-12.36.74-17.25-4.15,2.06-2.56,4.34-5,3.71-8.73,4.32-5.66,8.34-2.57,12.39.39,1.46,1.07,3.16,2.47,4.88,1.18s1-3.37.36-5c-1.39-3.49-1-7.09-1.21-10.7-0.16-3.06-.17-7-5.29-6.21-2.19-4.49-2.45-10.36-10.13-10.08-3.18.11-4.64-4.39-6.09-7.39-1.73-3.56-3.42-7.09-6.56-9.72-2-1.7-4.1-2.82-6.51-1-2.25,1.68-1.46,3.53-.12,5.51,2.63,3.89,2.56,7.37-2,9.84a22,22,0,0,0-6.91-5.46c-4.12-1.4-7.55-.49-10.77,2.79,4.49,3,8.7,1,12.82.77a6.64,6.64,0,0,1,4.86,1.9c-3.77,8.5-7.42,10-14.28,5.35C248.32,164.68,245.73,164.88,243,164.85Z" transform="translate(-169.72 -48.69)"/><path class="cls-52" d="M239.34,138.93a3.94,3.94,0,0,0-3.62,1.89c-1.28,2.45-2.53,5.18-.15,7.4,4.72,4.38,2.82,8.53.11,12.82l-1.93,1.86c0.23-7.24-9.84-12.31-4.08-21.08,1.32-2-2.29-5.92-5-3.14-4.26,4.45-11.78,5.79-12.94,13.19l-1.79,0a1.74,1.74,0,0,1-.56-0.69c2.89-12-.5-24.21,1.63-36.21,7.13-9.32,17.76-8.68,27.63-8.94,6.19-.17,10.29,6.81,8.61,13.59-1.46,5.89-2.8,11.91-5.57,17.43A5.81,5.81,0,0,1,239.34,138.93Z" transform="translate(-169.72 -48.69)"/><path class="cls-53" d="M320.42,155.59c-5.11,11.71-13.84,13.76-28.22,6.41-5.59-2.86-9.73-6.3-8.86-14,0.66-5.9-1.05-12.06-1.65-18.11-0.37-3.83-3.81-4.31-6.21-6-6.51-4.68-15-7.27-17.64-16.16,8.13,0,16.06,7,24.39.69,1.68-1.27,4.28-2,5.07-3.67C295,88.45,309.56,89,324.08,89.27c12.19,9.74,9.67,23.87,11,36.85-7.19-2.24-5.59-9.16-7.35-14.18-1.41-4-1.57-8.6-5.86-11-2.42-1.33-5.23-2.7-7.82-1.05-2.86,1.82-2.06,5-1.18,7.55,3.12,8.93,5.89,18,11.22,26l-0.05.06c-1.08,5.47-3.49,10.72.46,16.37C327.21,153.79,323.59,155,320.42,155.59Z" transform="translate(-169.72 -48.69)"/><path class="cls-54" d="M292.78,356.19c-3.74-4.91-.89-10.66-2-15.92-2.07-9.6-6.84-17.67-11.77-26.17-8.21-14.16-6-30.68-3.39-46.21,1.33-8,1.92-14.69-4.9-20.2,1.31-1.85,3.27-2.34,5.37-2.55,4.63-.11,9.3-0.35,12.94,3.36a2.19,2.19,0,0,1,.08,2.79c-6.35.85-5.65,4.45-3,8.36a149.57,149.57,0,0,0,10.66,14.7c7.57,8.75,14.94,17.37,16,29.7,0.33,3.84,1.84,7.77,5.82,9.82,3.12,12.42,11.08,22.79,14.75,35a4.62,4.62,0,0,1-5.73-1.65c-8.94-11.42-20.37-21.48-21-37.57-0.55-15.11-10.17-25.2-20-34.81-4.59-4.48-6.6.58-7,4.1-1.79,14-1,27.39,9.69,38.47C298.73,327.18,300,344,292.78,356.19Z" transform="translate(-169.72 -48.69)"/><path class="cls-55" d="M353.51,360.06l-3.59-1.91-5.44-3.91c0.79-3.51.75-6.57-3.83-7.23-2-1.44-2.7-3.58-3.36-5.77,4.43-11.53-.2-21.51-6.1-30.79-5.12-8.05-9.11-16.57-13.28-25.08-3.18-6.49-6.44-13.26-14.39-15.47l-1.61-3.8c1.11-2.84,3-3.42,5.61-1.93,14.08,10.57,20.52,27.26,32,40,4.29,4.76,5.45,10.92,4.8,17.15-0.9,8.68.23,16.17,9.21,20.23h0c1.37,3.56,1.81,7.37,2.88,11C357.24,355.41,358.57,359.14,353.51,360.06Z" transform="translate(-169.72 -48.69)"/><path class="cls-56" d="M289.1,251.29q0-.91,0-1.81c5.65-3.52,13.37-4.71,14.67-13.09a6.16,6.16,0,0,1,4-3.39c3.08,0,6.44.43,7-4,1.88-1.68,4.17-2.31,5.09.45s1.68,6.06-1.33,8.36c-1.9,1.45-5.05,2.24-5.8,4.08C308,253.51,299.64,254.86,289.1,251.29Z" transform="translate(-169.72 -48.69)"/><path class="cls-57" d="M303.77,236.38c2.3,8.77-2.17,12.75-14.67,13.09-4.19-1.19-8.41-2.25-12.83-1.87-1.36-2.17-6.13.87-5.85-3.82a6.16,6.16,0,0,1,6.71-1.57c4.9,1.7,8.11-.39,10.94-4,3.58-4,8.26.33,12.11-1.61v-0.09Z" transform="translate(-169.72 -48.69)"/><path class="cls-57" d="M314.78,229c4.3,1.37,5.18,3.57.61,5.43-2.29.93-5.5,1.09-7.66-1.44C310.1,231.69,311.8,229.22,314.78,229Z" transform="translate(-169.72 -48.69)"/><path class="cls-58" d="M239.56,137.37c1.83-6.09,3.84-12.13,5.43-18.27,1.81-7-3-12-10-10.91-8,1.26-16.11,2.4-23.2,6.88-1.11-1-.89-2.24-0.7-3.49,0.33-.78.69-1.54,1.09-2.29,4.49-5.43,11.31-5,17.21-6.82,2.51-1.51,5.51-1.13,8.16-2.12l1.77-.08c10.3,6.23,16.43,15.78,19.95,26.84,1.38,4.34-2.17,7.29-6.68,8.07-2.62.45-5.58-.56-7.74,1.84C243.21,138.73,241.43,138.68,239.56,137.37Z" transform="translate(-169.72 -48.69)"/><path class="cls-59" d="M211.79,111.36l0,3.7c0.66,6.24-1.69,12.79,2.49,18.71,1.9,2.7-.72,5.22-1.9,7.56A18.91,18.91,0,0,0,210,151.9c0.55,6.16-1.61,12.58,1.72,18.49q-0.09,5.47-.17,10.93c-4.78-.86-3.62-4.48-3.55-7.6,0.25-3.08-2.68-4.6-3.53-7.14,5.59-1.26,3.22-5.56,3.33-8.85,0.54-15.47-.09-31,2.14-46.37A1.13,1.13,0,0,1,211.79,111.36Z" transform="translate(-169.72 -48.69)"/><path class="cls-51" d="M211.79,111.36h-1.85c2.64-12,5.34-13.8,17.21-11.87,3.43,0.56,7.15-2,10.43.87a10.45,10.45,0,0,1-7.36,3.66c-6.26,2.15-14.51-.7-18.42,7.35h0Z" transform="translate(-169.72 -48.69)"/><path class="cls-60" d="M198.83,89.12c3.47-10.48,11.48-17.71,18.44-25.69,7.45-3.14,14.74-6.75,22.38-9.31C255.88,48.69,272.35,46,289,52.5l-18.33,0c-3.78,4.76-11.14,0-14.63,5.54a11.1,11.1,0,0,1-1.87,1.76c-2.78,2-5.8,1.42-8.82.81a15.61,15.61,0,0,0-11.43,2c-7.92,4.69-8,9.16-.48,14.25,6.86,4.64,14.61,8.32,18.86,16l-0.16.14L245,92.93a32.55,32.55,0,0,1-3.86-2.3c-13.31-10.55-19.51-10.28-32.66,1.59C203.41,96.77,200.38,95.28,198.83,89.12Z" transform="translate(-169.72 -48.69)"/><path class="cls-61" d="M324.09,133.47c-10.92-5.72-9.86-17.95-14.33-27.12-1.35-2.77-2.46-9.41,2.59-10,6-.7,13.28-0.19,16,7.4,1.43,3.94,2,8.19,2.92,12.32,0.77,3.54,1.26,7.17,3.77,10l1.62,2q0.11,1.74.23,3.47C332,127.86,326.84,122.22,324.09,133.47Z" transform="translate(-169.72 -48.69)"/><path class="cls-62" d="M208,173.71c2.91,1.73,1.19,5.62,3.55,7.6-0.07,2.59,1.05,5.42-1.55,7.49C201,183.68,200.49,179.63,208,173.71Z" transform="translate(-169.72 -48.69)"/><path class="cls-63" d="M292.78,356.19c0.6-7.45,1.06-14.91,1.85-22.34,0.66-6.23-2.65-10.82-6.69-14.39-13.86-12.24-12.48-28-10.74-43.83a8.05,8.05,0,0,1,5.49-6.89c3.63-1,5.34,2.48,7.13,4.74,7.85,9.93,19.52,18.48,19.05,32.31-0.57,16.8,11.38,26.23,18.94,38.32,1.22,2,3.64,3.17,5.51,4.72l1.8,1.87c1.39,2.81,4.13,5.25,2.46,8.9-4.12,2.15-6.11-1.28-8.48-3.39s-3.77-4.84-6-6.92-4.66-4.52-8-3.08c-3,1.29-2.81,4.53-3,7.22-0.43,7-1.55,14,.69,21A12.06,12.06,0,0,1,311.67,385c-3.35,5-.76,6.42,3.81,6.93,2.13,0.24,4.29.24,6.39,0.64,7.1,1.34,13.31,8.12,12.58,13.66s-7.7,9.85-15.32,8.36c-4.55-.89-7.56.46-10.76,2.83a4.33,4.33,0,0,1-2.48,0c-3.21-3.55.63-6.8,0.4-10.21-0.43-2.93-3.29-4.14-4.61-6.44-1.81-5.31-9.67-7.76-7.17-15.1,8.59-4,10.15-8.54,4.4-14.92A23.37,23.37,0,0,1,292.78,356.19Z" transform="translate(-169.72 -48.69)"/><path class="cls-64" d="M303.52,269.9c0.44-2.19,1.08-3,3.62-1.71,6.12,3.17,9.81,8.54,12.2,14.41,5.76,14.16,14.6,26.62,21.24,40.28,3.44,7.06.68,12.76-3.28,18.37-5.63-9.47-9.21-19.86-12.57-30.22A145.75,145.75,0,0,0,303.52,269.9Z" transform="translate(-169.72 -48.69)"/><path class="cls-54" d="M337,359.87l-1.88-9.16a155,155,0,0,1,35.72,43.94,101.84,101.84,0,0,0,25,29.73l2,7.23c-0.13,1.52-.46,2.91-2,3.61-15.94-17.2-32.23-34.12-43.8-54.82C347.78,373,340.3,367.94,337,359.87Z" transform="translate(-169.72 -48.69)"/><path class="cls-64" d="M340.65,347c0.51-3.53,2.38-4,4.63-1.6,2.84,3,4,6.31-.8,8.84C343.1,351.89,340.76,350,340.65,347Z" transform="translate(-169.72 -48.69)"/><path class="cls-65" d="M337,359.87c9,6.26,14.82,15.25,20.26,24.34,8.13,13.6,18.36,25.44,29,37,3.88,4.19,9,7.57,9.44,14-2.56-.07-5.28.65-7.4-1.53-9.86-9-18.32-19.42-27.73-28.87-6.12-6.15-8-5.37-10.69,3-3.72,11.49-8.67,14-25.5,13.14a15.44,15.44,0,0,1-2.52-.6c-4.11-3.91-10.43,1-14.38-3.59,2.9-3.77,4.12-9.19,11.59-4.39,3.74,2.4,12.24.33,13.17-6.11,0.8-5.51-3.87-10.09-10-11.26-3-.57-6.2.15-9.12-0.53-5.38-1.24-13.11-2-4.09-9.64,2.63-2.24,2.84-5.71,1.65-8.53-3.39-8-1.29-16.19-1.29-24.29,0-3.62.29-8.43,3.76-9.61,4-1.36,8.33.89,11.36,4.23C328.65,351.12,331.34,356.88,337,359.87Z" transform="translate(-169.72 -48.69)"/><path class="cls-66" d="M526.45,466.74a11.32,11.32,0,0,1,2,7.23c-6.9,2.25-13.66,4.65-19.15,9.84-2.23,2.12-5.66,2.06-8.74,2.12-19.1.36-37.63-3.37-56.06-7.78-3.35-.8-6-3-8.69-5-4-2.93-8.15-6.12-13-6.42-8.94-.54-16.17-4.84-23.66-8.83-2.91-2-6.19-3.44-9.25-5.21-1.76-1-4.86-1.87-2.68-5.16a12,12,0,0,1,8.66.69c5.7,3.34,13.69-1,18.44,5.52,16.94,1.16,30.19,12.23,45.79,17.11a161,161,0,0,0,36.58,6.81c3.11,0.23,6.48.22,8.74-2C511.34,470,519.26,469.29,526.45,466.74Z" transform="translate(-169.72 -48.69)"/><path class="cls-67" d="M324.09,418.8c5.88-.81,12.29,2,17.65-2.2,4-3.14,6-7.3,6.4-12.56,0.64-7.7,4.45-9.25,10.74-4.34a60.53,60.53,0,0,1,11,10.85c5.37,7.07,11.07,13.61,18.49,18.6,1.63,1.1,5.07,3.11-.05,4.53l-5.2-1.85a11,11,0,0,1-2.41-1.25c-3.82-3.07-8.23-5.24-12.21-8.07-3.39-2.4-7.46-3.62-11.32-2.28-7.93,2.76-16.2,2.65-24.31,3.87C329.19,423.61,324.78,424.27,324.09,418.8Z" transform="translate(-169.72 -48.69)"/><path class="cls-68" d="M526.45,466.74c-16,9.47-32.11,16.92-51.54,10.15-13.88-4.83-28.62-6.77-40.92-16.27-5.23-4-13.79-2.39-19.69-6.84,13.22-2.56,23.55,5.31,34.37,10.31,14.29,6.61,29.16,9.92,44.55,11.72A20,20,0,0,0,510,470.37c0.68-1.69,1.65-2.79,3.66-1.85C518.38,471,521.7,463.7,526.45,466.74Z" transform="translate(-169.72 -48.69)"/><path class="cls-69" d="M513.71,468.52L510,470.37c-18.53,4.39-35-2.7-51.55-9.26,18.12-4.14,35.61,1.07,53.28,3.6Z" transform="translate(-169.72 -48.69)"/><path class="cls-70" d="M382.92,429.94l0.22,1.91c-3.95,3.34-8.71.81-13,1.8-4,3.09-8.2,3.4-12.51.62,2.06-3.72,2.06-3.72,9.8-2.87-7.46-1.26-15.32.71-22.58-2.4-2.59-1.11-6.43-.48-6.06-5.05C354.36,419.7,369,422.38,382.92,429.94Z" transform="translate(-169.72 -48.69)"/><path class="cls-71" d="M357.24,433.09l12.92,0.55c2.87,6.77,10.27,6.24,15.35,9.46,3.24,2.05,6.89,3.46,10.36,5.15h-9.19a4.48,4.48,0,0,1-3.94-.2c-7.33-1.94-13.88-6.08-21.54-7.22-3.42-.51-6.15-2.71-6.26-6.79A1.83,1.83,0,0,1,357.24,433.09Z" transform="translate(-169.72 -48.69)"/><path class="cls-72" d="M252.35,92.92c-8.86-4-15.14-11.73-23.89-16.13-5.91-3-4.87-9.64.38-13.8,6.19-4.91,12.48-7.37,20.12-4,2,0.87,3.52-.4,5.22-1,2.55,2.87,1.29,5.58-.26,8.36-3.77,6.75-3,12.66,3.22,16.89,5,3.44,11,3.13,16.53.77,4.58-2,5.66-6,5.09-10.67-0.75-6-4.71-8.83-10.13-10.33-4.91-1.36-10.4-1.12-14.42-5,2.76-10,11-3.7,16.51-5.55,1,1,2.19,3.06,3.12,3,12-1.21,14.34,9.55,16.11,16.19,2,7.42-4.18,14.9-11.43,19.09-4.62,2.67-9.58,5-15.47,2.62A16,16,0,0,0,252.35,92.92Z" transform="translate(-169.72 -48.69)"/><path class="cls-14" d="M353.51,360.06c4.94-6.18-1.87-12.37,0-18.55,3.33,4.87,4.63,10.49,5.75,16.14,0.44,2.21,3.1,5.16.32,6.55C356.57,365.7,355.1,362.17,353.51,360.06Z" transform="translate(-169.72 -48.69)"/><path class="cls-73" d="M598.32,516.32a286.07,286.07,0,0,1-40.49-1.75h0l-1.63-1.84c-2.51-5.33-8.67-9.42-5.65-16.63,2.3,0.16,4.36,1,5,3.3,2.71,9.07,9.81,9.77,17.57,9.61,5.17-.1,7.66-2.86,6.58-7.58-1.32-5.77-1.08-12.06-6-16.89-1.94-1.89-6-4.86-3.34-8.52a9.57,9.57,0,0,1,10.75-3.51c6.95,2.22,14,1.18,21,1.54-1.69,12.84-5.14,25.52-3.59,38.66Q598.4,514.51,598.32,516.32Z" transform="translate(-169.72 -48.69)"/><path class="cls-42" d="M550.54,496.1c0.24,6.51,6.08,10.54,7.32,16.6-16.27.07-23.05-8.26-21.94-27,0.16-2.65,1.81-5.32-.05-8q0-2.76,0-5.51c11.3,5.45,8.37,16.51,9.47,25.53,4.62,1,1.47-4.93,5-4.27C550.55,493.55,550.48,495.2,550.54,496.1Z" transform="translate(-169.72 -48.69)"/><path class="cls-74" d="M399.55,455.6c9.38,7.38,22.54,5.17,31.81,11.59,20.72,14.36,44.44,14,67.79,16.06a14.93,14.93,0,0,0,13.11-4.79c4.28-4.48,9.52-7.58,16.17-4.49,3.74,6.51,1,13.54,1.62,20.29-3.35-.07-3.51-2.76-4.18-5-1.17-6-4.92-6.82-9.4-3.9-9.29,6-19.58,6.79-30.07,6.08-16-1.1-30.86,1.82-44.68,10.42-6.78,4.22-14.49.47-14.6-7.6-0.15-10.31-2.88-17.16-13.94-19-2.72-.45-4.3-3.28-6-5.49-2.26-3-4.72-5.68-8.83-5.86-4.27-.07-5.92,3.19-8.12,6-2.39,3.07-4.18,7.57-9.6,5.82q1.47-14.79,15-21C397,454.71,398.41,454.54,399.55,455.6Z" transform="translate(-169.72 -48.69)"/><path class="cls-75" d="M528.35,488.81c0.11,2-.08,4,1.71,5.46q0.06,3.76.12,7.53c-0.14,4.51,1.9,7.28,6.32,8.52,2.1,0.59,5.16.49,4.8,4.12a65,65,0,0,0-17.59,2c0.73-4.31,4.4-7.11,1.52-12.24-8.39,8.16-20.52,6.42-30.07,12.1-21.67.42-42.86,5.62-64.55,6.49-8.1.33-16.06,0.07-23.32-2.16-8.28-2.54-16.19-3.22-24.23-1.3-5.07,1.21-7.49-.6-9.37-4.66,12.16-10.48,26-10.2,39.41-4.22a40.28,40.28,0,0,0,27.5,2.49c8.58-2.12,17.55-1.66,26.27-3.79a167.21,167.21,0,0,0,46.33-19.38C518.07,486.81,523,484.34,528.35,488.81Z" transform="translate(-169.72 -48.69)"/><path class="cls-76" d="M541.3,514.43c-1.25-1.58-3-1.84-4.83-1.72-9.55.63-9.8-4-6.3-10.91,5.56,2.3,3.67-2.53,3.63-4.33a81.8,81.8,0,0,1,2.07-19.7c3.53,3.79,2.31,8.93,2.41,13,0.34,13.4,8.34,18.83,19.57,21.89l0,1.88Z" transform="translate(-169.72 -48.69)"/><path class="cls-77" d="M232,409.3c-0.45-6.29,5.36-4.19,7.48-4.23a33.14,33.14,0,0,0,9.8-1.2c4.93-1.64,12.71-.45,13.38-7.37,0.65-6.65-3.13-12.78-8.69-17.12-1.9-1.49-4.42-2.24-5.34-4.8,7.27-3,13.75,1,20.53,2.32a99.9,99.9,0,0,1,9.62,7.05,14.32,14.32,0,0,1,5.1,14.84c-1.19,5.65-6,6.27-10.48,7.43-2.31.61-5,.42-6.64,2.64-5.49,2.84-11.33,1.54-16.85.67a45.58,45.58,0,0,0-16,.13Z" transform="translate(-169.72 -48.69)"/><path class="cls-78" d="M233.89,409.66c10.86-4.17,22.12-1.83,33.22-2q1.49-1.22,1.9.66c-7.88,8.5-14.44,9.29-22.8,2.72a6.15,6.15,0,0,0-6.88-.65c-2.07,1-1.27,3-.81,4.86s0.59,3.59.87,5.39C233.31,419.09,234.09,414.13,233.89,409.66Z" transform="translate(-169.72 -48.69)"/><path class="cls-79" d="M256.05,475.94l7.34-22.17a6.07,6.07,0,0,1,1.53-4.72c3.33-2.75,6.37-5.84,9.86-8.42,2.65-1.53,5.14-3.28,8.11-4.24,5.36-1.72,10.39-1.29,14.64,2.46s2.3,8.22,1.36,12.79c-2.21,10.76-7.84,19-16.58,25.5a52.29,52.29,0,0,0-13.83,14.52c-1.57,2.58-3.3,5.29-7,5-6.06-4.68-3-12.36-5.9-18.06A2.89,2.89,0,0,1,256.05,475.94Z" transform="translate(-169.72 -48.69)"/><path class="cls-80" d="M269,408.28l-1.9-.66c2.45-1.12,4.83-2.4,7.34-3.35,8.64-3.23,10.32-10.86,3.82-17.49-3-3-7.47-4.25-9.52-8.3,7.2-4.53,13.61,1.48,20.47,1.52l5.3,5.74c1.06,6.17,8.22,8.59,9.14,14.85-2.33,6.31-9,1.85-12.55,5a69,69,0,0,0-18.68,2.62Z" transform="translate(-169.72 -48.69)"/><path class="cls-81" d="M256.05,475.94l0.19,1.84c2.22,5,2.58,9.86-.29,14.71-3.39,6.46,1.33,12.55,1.69,18.82-4.22.69-4.51-3.55-7.38-4-4-.61-3.73-2.34-2.86-6.31,1.93-8.8,2.12-18,3-27,0-1.22,0-2.46.14-3.67,0.26-2.16.64-4.69,3.47-4.38,2.46,0.27,1.78,2.79,1.91,4.49S256,474.1,256.05,475.94Z" transform="translate(-169.72 -48.69)"/><path class="cls-82" d="M309.19,405.56c1.41,4.6-3.54,7.36-3.36,11.6-0.65,5-5.23,4.43-8.25,5.21-6.23,1.6-11.72,4.17-16.34,8.63-3.93,2.82-7.84,2.62-11.73-.08l-0.82-1.15c3.81-4.64,7.24-9.93,14.68-8a2.61,2.61,0,0,0,2.31-1c2.34-7.25,10-7.61,16-11.32l-7.08-3.43C299.34,402.75,304.25,403.63,309.19,405.56Z" transform="translate(-169.72 -48.69)"/><path class="cls-83" d="M265.28,450c-0.11,1.52-.46,2.92-1.89,3.78-8,2.12-12.77-4.59-19.73-7.35,12.26-.22,16.94-10.86,25-16.64l0.48,0.29c2,2.59,1.09,5.08-.24,7.56C264.79,440.88,266.51,445.87,265.28,450Z" transform="translate(-169.72 -48.69)"/><path class="cls-84" d="M309.19,405.56l-14.61.5-3.47-.45c2.26-6.47,9.14-1.42,12.55-5Z" transform="translate(-169.72 -48.69)"/><path class="cls-85" d="M255.95,492.49q0.15-7.36.29-14.71c4.31,0.81,3.27,4.26,3.39,7,0.16,3.82-.33,7.73,2,11.17,3.79,1.09,4.08,6.09,7.78,7.15,0.8-.25,1.44-0.71,1.33-1.3-1.83-9.65,2.72-15.46,10.22-21.26,12.39-9.58,24.17-19.53,40.31-22.26,3.68-.62,8.75-1.76,8.67-6.67-0.08-5.18-4.6-8-9.14-9-9.66-2.16-18.07-7.32-27.26-10.54a4.12,4.12,0,0,1-3-3.19c2.41-4.29,6.41-3.33,9.69-2.19,15.63,5.39,31.59,4.14,47.59,2.93,3.09,0.37,6.16.78,7.58,4.17,6,7.84,16.61,5.11,23.84,10.3,1.54,1.1,4.22.24,5.59,2.29-3.79,3.57-8.37,3.33-13,2.47-3.61-.68-7.24-1.13-10.86-1.7-7.89-1.25-11.67,2.19-14,9.57-5,16-5.59,16.24-22.7,16.29-10.11,0-19.84.58-24.91,11.44-15,5.52-16.16,22.17-25.86,32-4,1.29-6.35-.78-8.28-3.86C260.64,506.61,258.72,499.35,255.95,492.49Z" transform="translate(-169.72 -48.69)"/><path class="cls-3" d="M265.3,512.6l7.24,3.77a7.11,7.11,0,0,1,6.13,6.17c-0.8,2.18-2.27,2.43-4.16,1.41l-3.82-.31C274,517.47,263.59,518,265.3,512.6Z" transform="translate(-169.72 -48.69)"/><path class="cls-86" d="M528.35,488.81c-10.37-2.39-17.11,5.53-24.8,9.59-17.63,9.31-36,14.88-55.79,16.17a37.44,37.44,0,0,0-7.16,1.36c-9.76,2.61-18.76,2.45-28.11-3-12.82-7.41-26-2.47-38.81,1.65l-7.24-.12c-11-7.7-22.33-5.88-33.29-.42-13.36,6.66-26.82,12.4-42.18,11.42-0.33-6,4.48-6.7,8.41-7.8,9.46-2.64,18.72-5.52,27.09-10.91,7.65-4.92,16.3-4.69,24.92-3.67,4.56,0.54,9,1.63,13.61,2.07,11.74,1.11,15.64-2.13,18.43-13.33s3.37-23.35,14.29-30.71c6.13-1.45,9.3,2.49,11.64,7,2.06,4,4.53,5.84,9.21,6.06,7.88,0.37,11.27,5.72,10.95,13-0.22,4.95-1.77,10.06,3.4,13.25,5.36,3.31,7.93-2.79,11.81-3.88,8.36-2.35,15.5-8.28,24.78-7.91s18.4,0.09,27.6.08a29.5,29.5,0,0,0,17.95-6C522.66,477.2,526.34,478.92,528.35,488.81Z" transform="translate(-169.72 -48.69)"/><path class="cls-87" d="M333.39,527.36a5.28,5.28,0,0,1,.11-1.66c10.07-.14,20-1,29.52-4.76,2.24-.9,4.48-1,5.27,1.7,1.16,3.91-2.21,2.5-3.92,2.92C354.16,528,343.75,527.2,333.39,527.36Z" transform="translate(-169.72 -48.69)"/><path class="cls-88" d="M274.51,523.94l3.57-2.12c0.15-13.82,7.48-23.23,20.62-25.92,3.19-.65,4.41-2.86,6.16-5,6.16-7.45,13.46-12.11,23.84-10.77,7.59,1,15.43.13,22.85-1,11.05-1.65,20.73-6.81,27.87-16.26,3.86-5.1,8.12-11.37,16.46-7.32-7,5.23-11,12.64-14.71,20.22,1.19,10.55-8.61,22.64-20.86,26.22-8.06,2.36-15.81.75-23.5-1.26-7.16-1.87-13.18-1.85-17.18,5.76a11.17,11.17,0,0,1-7,5.66c-11.11,2.55-20.46,9.07-30.88,13.15C279.25,525.29,276.55,526.29,274.51,523.94Z" transform="translate(-169.72 -48.69)"/><path class="cls-89" d="M281.74,525.38c7.62-6.52,15.68-12.45,25.81-14.12,6.18-1,10.4-4.52,12.39-9.67,2.33-6,6-5.62,11-4.86,7.48,1.15,14.56,4.9,22.28,4,15.08-1.69,23.85-10.8,28-24.93a19.25,19.25,0,0,0,8.2-9c1.65-3.59,4.56-5.28,8.35-5.68-8,11.24-11.24,23.95-11.77,37.52-0.24,6.14-11.68,11.24-21,9.58-7.77-1.37-15.47-3.27-23.5-3-4.06.14-7.92,0.47-11.43,2.65-10.1,6.25-20.75,11-32.61,12.87a8.37,8.37,0,0,0-6.43,4.74Z" transform="translate(-169.72 -48.69)"/><path class="cls-90" d="M514.65,519.23c-2,0-2.73-1-2.37-2.82,0.49-2.38,2.23-3.46,4.51-3.66,1.49-.13,3.32-0.13,2.95,2.06C519.29,517.51,517.12,518.64,514.65,519.23Z" transform="translate(-169.72 -48.69)"/><path class="cls-91" d="M300.18,236.62c-2.9,3.6-8.24-.14-11.08,3.67-5.13,3.77-10.39,1.72-15.62.31-3.23-.87-6.6-1.91-9.81-1.25-3.51.72,0.75,2.37,0.06,3.66-0.19.39-.38,0.77-0.57,1.14l-12.74-3.9-1.12-3.44c11.48-3,11.07-15.2,17.22-22.31,0.88-1,2.61-1.31,3.95-1.94,3.4,1.19,6.12-1.83,9.39-1.54,5.09,3.14,11.81,1.09,16.59,5.2,6.51,4,11.84,8.09,2.89,15.22C298,232.52,295.47,235.64,300.18,236.62Z" transform="translate(-169.72 -48.69)"/><path class="cls-92" d="M289.22,380c-0.4,2.5-1.32,4.06-4.15,2.41-5-2.94-10.73-3.26-16.32-3.94-6.83-.65-13.11-4.14-20.11-3.92-5.1-3.23-12-1.88-17.09-6.69,6.91-.88,12.54,3.38,18.84,2.89a145.34,145.34,0,0,0,35,3.83Z" transform="translate(-169.72 -48.69)"/><path class="cls-93" d="M276.31,361.68c-0.2,3.58-2.49,2.36-4.58,2.15a40.92,40.92,0,0,1-19.4-7.36l22.17,3.28Z" transform="translate(-169.72 -48.69)"/><path class="cls-91" d="M270.71,243.91l5.56,3.69-5.56.08c-3.12.11-5.83-.66-7.55-3.53l0.49-.62C266.11,241.74,268.47,241.76,270.71,243.91Z" transform="translate(-169.72 -48.69)"/><path class="cls-94" d="M296.57,173.88c4.16-6.59,6.22-.19,6.62,1.84,1.2,6.21.72,12.69,3.88,18.61,1.1,2.06-.75,4.1-2.56,5.39-2.62,1.86-4.9.12-6.5-1.52-3.58-3.68-7-6.89-12.59-3.95-0.86-6.54-9.51-3.77-11.17-9.35-0.94-2.07-1.13-3.73,2-3.56,4.8,0.51,9.57,6.37,14.47-.91,1.65-2.45,5.6,1.53,8.68,1.74C300.64,178.37,298.61,176.12,296.57,173.88Z" transform="translate(-169.72 -48.69)"/><path class="cls-95" d="M276.24,181.35l-2,3.56c-7.42-1.63-1.6-7.54-3.54-10.94-5-3.51-3.8-6.95.12-10.35,1.63-1.41,2.36-5.31,5.5-2.92,3.79,2.89,6.45,6.92,4.82,11.92C280.13,175.73,277.92,178.45,276.24,181.35Z" transform="translate(-169.72 -48.69)"/><path class="cls-96" d="M277.8,212.41c-2.37,3.4-4.79,4.68-7.33.16L281.72,203c6.17,0.67,12.93-3.42,18.49,2.28,1.11,1,3.41.83,3.59,2.4,0.25,2.17-1.8,3-3.57,3.38C292.84,212.85,285.3,212.32,277.8,212.41Z" transform="translate(-169.72 -48.69)"/><path class="cls-97" d="M277.8,212.41c6.69-3.16,13.83-3.74,21.06-3.4,5.19,0.25,2.77-1.83,1.35-3.75,2.8-.05,5.92-0.12,6.49,3.38,0.5,3.09-2.63,3.67-4.66,4.81-1.81,1-3.72,1.85-5.59,2.77A29.19,29.19,0,0,1,277.8,212.41Z" transform="translate(-169.72 -48.69)"/><path class="cls-98" d="M259.6,161c-5.8,5.2-11.3.62-17.52-1,4.62-6,9.19-11.18,17.76-6.34C261.22,156.11,261.8,158.59,259.6,161Z" transform="translate(-169.72 -48.69)"/><path class="cls-99" d="M235.69,161c-0.07-4.26,3.74-9.19-3.56-12.09-1.92-.77,1.39-5.68,3.59-8.12-0.68,7.68,6.22,4.35,10.32,6.85C241.15,151.32,241,157.91,235.69,161Z" transform="translate(-169.72 -48.69)"/><path class="cls-100" d="M239.56,137.37l5.31-.36c3.21,0.45,6.6-.64,9.71,1-5.84,6-10.27,6.28-15.24.87Q239.44,138.15,239.56,137.37Z" transform="translate(-169.72 -48.69)"/><path class="cls-101" d="M259.6,161q0.12-3.69.23-7.38c3.28,1.39,6.12,3.1,5.3,7.41h0Z" transform="translate(-169.72 -48.69)"/><path class="cls-102" d="M319.69,151.44c-3.59-1.26-6.84-3.67-7.56,2.45-0.51,4.37-5.12,3.39-8.37,2.64-2.15-.5-5.42.09-5.52-3.49s2.51-5.46,5.35-6.74C309.89,143.45,315.4,143.9,319.69,151.44Z" transform="translate(-169.72 -48.69)"/><path class="cls-103" d="M299.32,134.39c7.32-5.64,12.51-6.61,19.2.33A57.26,57.26,0,0,1,299.32,134.39Z" transform="translate(-169.72 -48.69)"/><path class="cls-104" d="M270.71,243.91l-7.06-.38-8.73-5c12.24-5.4,23,2.69,34.18,1.72C284.59,249.7,276.92,243.11,270.71,243.91Z" transform="translate(-169.72 -48.69)"/><path class="cls-59" d="M211.79,111.36c2.69-11.1,11.75-6.23,18.42-7.35C224.37,107.22,216.91,106.35,211.79,111.36Z" transform="translate(-169.72 -48.69)"/><path class="cls-105" d="M279.77,429.76c6.12-9.51,17.35-8.45,26.06-12.6a5.59,5.59,0,0,0,1.69-.39c4.88,1.24,10.55-3.78,14.88,1.87,0.4,3.64-2.52,3.67-4.78,4.42-7.88.25-15.35,3.06-23.18,3.68-2.59.2-4.63,1.22-5.7,3.74-2,2.19-4.37,3.7-7.47,3.7C279,433.32,278.47,431.85,279.77,429.76Z" transform="translate(-169.72 -48.69)"/><path class="cls-70" d="M316.45,420.94c2.09-.48,4.56,0,6-2.29l1.69,0.15c2.58,2.47,6,2.91,9.21,3.65a2.63,2.63,0,0,1,.26,2.64,5.17,5.17,0,0,1-3.33,2.43C324.93,426.81,318.37,428.74,316.45,420.94Z" transform="translate(-169.72 -48.69)"/><path class="cls-106" d="M395.88,455.63c-6.9-.05-11.1,4-14.81,9.26-9,12.66-21.76,15.85-36.69,17.51-10.63,1.18-22.76-4.31-32.21,4.92-0.21.21-.6,0.24-0.79,0.45-5.27,6.22-9.21,14.2-20.08,11.49-2-.5-5.35,3.8-5.94,7.4-0.94,5.8-3.89,10.57-7.27,15.16a11.22,11.22,0,0,1-5.55-5.46c4.12-8.06,8.11-16.19,12.43-24.14,1.91-3.51,4.55-6.6,9-7.11,1.91-.22,3.69-0.68,4.13-2.92,1.94-9.81,10.35-10.07,17.63-11.73,2.62-.6,5.5-0.13,8.25-0.13,15.71,0,15.57-.05,20.68-14.94,5.23-15.23,2.93-11.32,22.26-10.27,5.85,0.32,11.9,1.12,17.89,1.29l1.84,1.83c3.82,3.28,9.54,3.22,12.88,7.34Z" transform="translate(-169.72 -48.69)"/><path class="cls-107" d="M333.35,424.2q0-.88,0-1.75c8.81-1.83,17.54-4.47,26.44-5.28,10.05-.91,16,7.49,23.18,12.76-14.56-3.1-29.08-6.49-44.15-5.55C336.92,425.86,335.11,425.91,333.35,424.2Z" transform="translate(-169.72 -48.69)"/><path class="cls-108" d="M333.35,424.2l5.42,0.18c9.49,3,19,5.86,30,5.56-4,3.21-8.57,0-11.55,3.16l-1.84.75-7.13-2.28c-2.88-1.58-6-.45-9-0.85-3.2-.42-7,0.24-8-4.29Z" transform="translate(-169.72 -48.69)"/><path class="cls-109" d="M254.2,58c5.68,1,11.47,1.56,17,3.05,8.42,2.28,12.94,10.09,10.14,18.51-2.35,7.06-8.23,7.88-15.57,8.87-10.8,1.45-12.73-6.59-17.36-11.82-2.45-2.77-3.29-6.9,1.12-9.35,3.79-2.11,4.61-5.4,4.63-9.24Z" transform="translate(-169.72 -48.69)"/><path class="cls-71" d="M281.63,433.3l5.89-3.36a2.16,2.16,0,0,1,3.44-.11c13.64,4.45,28.28,7,39.51,16.59,6.06,5.19,4.65,9.33-2.87,12.62-3.06,1.34-6.29,2.8-9.54,3.08-12.76,1.1-21.35,9.65-30.83,16.62-3.42,2.52-6.41,5.64-10,8-4.2,2.74-5.82,6-4,10.77,1.57,4,1.86,9.07-2.37,10.22-4,1.09-6.38-3.53-7.7-7.44-0.48-1.44-1.1-2.84-1.65-4.26A132.76,132.76,0,0,1,288,468.52c7.24-5.67,7.16-15.19,9.93-23.07,1.65-4.71-5.25-9.09-11.69-7.47-4.06,1-7.84,3.17-11.75,4.81-1.12-1.67-.25-3.06.59-4.47A15.81,15.81,0,0,1,281.63,433.3Z" transform="translate(-169.72 -48.69)"/><path class="cls-110" d="M276.29,439.32l-1.82,3.46c-2.41,3.24-4.49,6.9-9.19,7.2-4.07-4.89-3.6-9.17,1.69-12.83C269.8,439.06,273.8,435.93,276.29,439.32Z" transform="translate(-169.72 -48.69)"/><path class="cls-111" d="M276.29,439.32c-1.72.2-3.84-.16-5.1,0.71-4.38,3-4.08-.09-4.22-2.88l2.21-7.09c3.51-.95,7.15,2.77,10.6-0.31l1.85,3.54C280.88,436.22,278.5,437.7,276.29,439.32Z" transform="translate(-169.72 -48.69)"/><path class="cls-106" d="M291,429.83l-3.44.11c8.23-7.53,18.55-8.36,28.93-9,3.82,4.83,10.13,2.95,14.8,5.49,5.24,3.12,12.16.71,17,5.14-16.46,3-32.8,3.47-48.86-2.27C296.52,428.27,293.6,426.91,291,429.83Z" transform="translate(-169.72 -48.69)"/></g></svg>