<svg id="Layer_1" data-name="Layer 1" xmlns="http://www.w3.org/2000/svg" viewBox="0 0 543.68 462.08"><defs><style>.cls-1{fill:#f5f3f8;}.cls-2{fill:#e1d0dc;}.cls-3{fill:#e6dce4;}.cls-4{fill:#ec9f9f;}.cls-5{fill:#155b9d;}.cls-6{fill:#96afc2;}.cls-7{fill:#f5e7e6;}.cls-8{fill:#eed0ca;}.cls-9{fill:#c13954;}.cls-10{fill:#eec5c0;}.cls-11{fill:#e1b2a9;}.cls-12{fill:#e7dce1;}.cls-13{fill:#deb6af;}.cls-14{fill:#fa9ba4;}.cls-15{fill:#d08c6f;}.cls-16{fill:#aa8f94;}.cls-17{fill:#dcdbe4;}.cls-18{fill:#5d3430;}.cls-19{fill:#bb8589;}.cls-20{fill:#dfbdbd;}.cls-21{fill:#d0c1c2;}.cls-22{fill:#ac8995;}.cls-23{fill:#8f6457;}.cls-24{fill:#ccd0d6;}.cls-25{fill:#7f5f5e;}.cls-26{fill:#e75759;}.cls-27{fill:#dfb5a9;}.cls-28{fill:#291c1c;}.cls-29{fill:#453534;}.cls-30{fill:#f2d3ce;}.cls-31{fill:#382d26;}.cls-32{fill:#594e4a;}.cls-33{fill:#fd646a;}.cls-34{fill:#f55254;}.cls-35{fill:#ba3e39;}.cls-36{fill:#d89986;}.cls-37{fill:#f2d2c8;}.cls-38{fill:#e0ac98;}.cls-39{fill:#e8beae;}.cls-40{fill:#f9d6e1;}.cls-41{fill:#c7786a;}.cls-42{fill:#f2dbd5;}.cls-43{fill:#b19886;}.cls-44{fill:#f4ac8f;}.cls-45{fill:#615543;}.cls-46{fill:#ba8a83;}.cls-47{fill:#f36784;}.cls-48{fill:#df5172;}.cls-49{fill:#901f31;}.cls-50{fill:#dc5576;}.cls-51{fill:#f97d9a;}.cls-52{fill:#fe93b2;}.cls-53{fill:#f5dfdd;}.cls-54{fill:#e1b7a9;}.cls-55{fill:#d49f8c;}.cls-56{fill:#d43e5e;}.cls-57{fill:#ed6583;}.cls-58{fill:#fc91ac;}.cls-59{fill:#fda6bf;}.cls-60{fill:#f1c9c5;}.cls-61{fill:#e1a092;}.cls-62{fill:#f1e0e1;}.cls-63{fill:#936759;}.cls-64{fill:#c78776;}.cls-65{fill:#914f4f;}.cls-66{fill:#df3b3a;}.cls-67{fill:#e44244;}.cls-68{fill:#df4235;}.cls-69{fill:#f64438;}.cls-70{fill:#312b25;}.cls-71{fill:#645e63;}.cls-72{fill:#574640;}.cls-73{fill:#413c37;}.cls-74{fill:#96887d;}.cls-75{fill:#83787e;}.cls-76{fill:#534a47;}.cls-77{fill:#6b6363;}.cls-78{fill:#27201c;}.cls-79{fill:#a7a08c;}.cls-80{fill:#efd3cd;}.cls-81{fill:#ca9c8f;}.cls-82{fill:#d78669;}.cls-83{fill:#e9c4bb;}.cls-84{fill:#fdbfd4;}.cls-85{fill:#180b0d;}.cls-86{fill:#d06f89;}.cls-87{fill:#fc5e63;}.cls-88{fill:#fb474c;}.cls-89{fill:#df4b68;}.cls-90{fill:#ef6683;}.cls-91{fill:#fc9cb5;}.cls-92{fill:#fa85a1;}.cls-93{fill:#fdc37c;}.cls-94{fill:#c33852;}.cls-95{fill:#a9384e;}.cls-96{fill:#382b23;}.cls-97{fill:#fbb056;}.cls-98{fill:#e34e6a;}.cls-99{fill:#fd8da7;}.cls-100{fill:#f27b8b;}.cls-101{fill:#cc4154;}.cls-102{fill:#ed6281;}.cls-103{fill:#ee6983;}.cls-104{fill:#ec6882;}.cls-105{fill:#fd90ad;}.cls-106{fill:#f87496;}.cls-107{fill:#fbdfe7;}.cls-108{fill:#ef5574;}.cls-109{fill:#fda4bb;}.cls-110{fill:#f3718d;}.cls-111{fill:#fda9c0;}.cls-112{fill:#a9263e;}.cls-113{fill:#b34b3d;}.cls-114{fill:#a8aa4b;}.cls-115{fill:#602117;}.cls-116{fill:#db686b;}.cls-117{fill:#4a3c30;}.cls-118{fill:#524846;}.cls-119{fill:#a47968;}.cls-120{fill:#745d4d;}.cls-121{fill:#9e817a;}.cls-122{fill:#d1aca3;}.cls-123{fill:#c9947c;}.cls-124{fill:#846754;}.cls-125{fill:#392b23;}.cls-126{fill:#dab1a5;}.cls-127{fill:#e5c2b8;}.cls-128{fill:#f6ddd8;}.cls-129{fill:#c79b91;}.cls-130{fill:#fdb5cf;}.cls-131{fill:#ce9484;}.cls-132{fill:#e6b6ab;}.cls-133{fill:#f1dbd9;}.cls-134{fill:#db355d;}.cls-135{fill:#e29d85;}.cls-136{fill:#dba;}.cls-137{fill:#434e39;}.cls-138{fill:#683f2e;}.cls-139{fill:#17120c;}.cls-140{fill:#ad6e4d;}.cls-141{fill:#be775e;}.cls-142{fill:#c98876;}.cls-143{fill:#fa89a5;}.cls-144{fill:#a23440;}.cls-145{fill:#4f1413;}.cls-146{fill:#7e292e;}.cls-147{fill:#bc4252;}.cls-148{fill:#c16968;}.cls-149{fill:#d39887;}.cls-150{fill:#e4b0aa;}.cls-151{fill:#facbd4;}.cls-152{fill:#c12950;}.cls-153{fill:#e14e74;}.cls-154{fill:#9f1a39;}.cls-155{fill:#f97494;}.cls-156{fill:#a17261;}.cls-157{fill:#d19a75;}.cls-158{fill:#40222d;}.cls-159{fill:#a1afa2;}.cls-160{fill:#f6cf33;}.cls-161{fill:#c6845d;}.cls-162{fill:#753d41;}.cls-163{fill:#dec6b5;}.cls-164{fill:#c7a0b8;}.cls-165{fill:#355343;}.cls-166{fill:#efdbca;}.cls-167{fill:#734d35;}.cls-168{fill:#644435;}.cls-169{fill:#b7795d;}.cls-170{fill:#8f5a44;}.cls-171{fill:#423a32;}.cls-172{fill:#d4a58e;}.cls-173{fill:#d8a18e;}.cls-174{fill:#bf8765;}.cls-175{fill:#d1886e;}.cls-176{fill:#46302b;}.cls-177{fill:#956854;}.cls-178{fill:#9e6a54;}.cls-179{fill:#432b28;}.cls-180{fill:#85645d;}.cls-181{fill:#dda598;}.cls-182{fill:#fc97b6;}.cls-183{fill:#e5b9ad;}.cls-184{fill:#d8b1a9;}.cls-185{fill:#bf6d68;}.cls-186{fill:#8e514c;}.cls-187{fill:#864f54;}.cls-188{fill:#d5afab;}.cls-189{fill:#63312b;}.cls-190{fill:#662c25;}.cls-191{fill:#ddb0a7;}.cls-192{fill:#e7c3b9;}.cls-193{fill:#231b15;}.cls-194{fill:#d7923a;}.cls-195{fill:#b4896f;}.cls-196{fill:#e9b47b;}.cls-197{fill:#432a1c;}.cls-198{fill:#9d3e42;}.cls-199{fill:#c56d67;}.cls-200{fill:#e6dbd0;}.cls-201{fill:#223c64;}.cls-202{fill:#d0a185;}.cls-203{fill:#f8df7f;}.cls-204{fill:#e1705a;}.cls-205{fill:#528599;}.cls-206{fill:#e4be75;}.cls-207{fill:#e1c8ac;}.cls-208{fill:#372d26;}.cls-209{fill:#ddc4af;}.cls-210{fill:#b59486;}.cls-211{fill:#37322a;}.cls-212{fill:#7a726a;}.cls-213{fill:#642b31;}.cls-214{fill:#edeef4;}.cls-215{fill:#dccbb6;}.cls-216{fill:#f1d501;}</style></defs><title>grade-2</title><g id="naV4mb.tif"><path class="cls-1" d="M263.12,526.9c-49.54,0-99.09-.15-148.63.19-6.42,0-7.32-1.9-7.14-7.57,0.43-13.57.14-27.16,0.14-40.75,5-3.65,10.41-.08,15.58-0.82,1.77,0.18,3.54.14,5.32,0.16,5-.2,9.8.48,14.19,3.08,9.79,3.26,20.11,3.2,30.16,4.87,21.36,1.25,42.63,4,64.08,3.38,3-.09,5.65,1.38,8.55,1.66,3,0.82,5.8,2,8.73,2.9,2.93,0.31,5.65,1.7,8.64,1.71,3.88,0.11,7.75,0,11.63,0,4.74,0.18,9.54-.43,14.15,1.13,21.8,1.23,43.48.37,65-4-6.89-.74-13.77.32-20.68-0.29-4.3-.38-7.8-1.29-9.81-5.41-0.16-5.73,4.45-5.89,8.14-6.64,9.87-2,19.95,0,29.87-1.32,2.9,0.73,5.52,2.6,8.73,2.14,3.5,0.1,7-.13,10.48.55a31.35,31.35,0,0,0,17.06-.23c12.89-.19,25.66-2.66,38.59-2,5.77,0.76,11.25-1.7,17-1.58,11.59,0.5,23-1.87,34.6-1.77a142.7,142.7,0,0,1,24.25-1.46c6.57,0.38,13.21-.77,19.72.84a4.24,4.24,0,0,1,1.94,1.82c0.78,4-2,5.66-4.78,7.17-4.82,2.63-9.72,5.12-14.74,7.35-20.34,7.69-39.79,17.89-61.47,21.82-3.44.62-6.31,2.85-9.7,3.71-32.23,1.94-64.47.44-96.7,0.73-22.65.2-45.31,0.26-68-.09C270.81,518.1,265.51,519.62,263.12,526.9Z" transform="translate(-107.32 -65)"/><path class="cls-2" d="M532.73,478.86q-0.08-.72-0.19-1.45c6.82-3,9.92-1.86,10.11,4.88,0.2,7,1.93,14.09-.8,21.16-1.57,4,.1,8.34,1.61,12.33-0.92,5.67,5.68,6.72,6.85,11.12H405.91c-1.51-5.92,3.47-6.07,6.55-6.18,9.05-.32,17.7-3.33,26.73-3.47a8.2,8.2,0,0,0,5.22-1.6c1.84-3.63,5.59-4.17,8.84-4.56,11.79-1.41,22.1-6.52,32.88-11,8.88-3.69,18.4-6.16,27.32-10.08,6.34-.89,11.64-4.53,17.49-6.7C532.79,482.62,533.92,481.06,532.73,478.86Z" transform="translate(-107.32 -65)"/><path class="cls-3" d="M444.41,515.65c-6.82,4.5-14.79,4.92-22.47,6.54-5.42,1.15-12.37-2.49-16,4.7H263.12c-1.47-10.36-.74-11.2,10.11-11.21q61.28,0,122.57,0Z" transform="translate(-107.32 -65)"/><path class="cls-4" d="M550.31,526.9c-4.4-1.76-9.46-3-8.2-9.57a2.4,2.4,0,0,1,2-.48c2.8,2.05,4.94,5.35,9.12,4.79,3.32,0.41,6.6,1.1,9.95,1.3,20.65-.31,41.34,1,61.87-1.86,2.52-.25,3.68-2.51,5.5-3.8,2.88,2.83,1.21,6.38,1.55,9.62H550.31Z" transform="translate(-107.32 -65)"/><path class="cls-5" d="M123.33,480.28c-5.45,1.3-10.51-1.57-15.85-1.51v-6.42c10.73-3.69,16.11-2.26,18.67,5C126,479,124.66,479.67,123.33,480.28Z" transform="translate(-107.32 -65)"/><path class="cls-6" d="M124.92,478.63c-0.19-5.09-2.86-7-7.84-6.52-3.18.32-6.4,0.17-9.6,0.23v-3.21c7.93,0.62,15.61.1,22.35-4.79a4.39,4.39,0,0,1,1.57,2.08C131.52,471.71,131.72,477,124.92,478.63Z" transform="translate(-107.32 -65)"/><path class="cls-7" d="M130.2,465.86q-0.19-.75-0.36-1.51l1.41-17.94,1.57-4.71c1.65-10.24,7.46-17.41,16.43-22.23,2.14-1,3.27-2.92,4.48-4.78,3.11,0,4.58-2.26,6.1-4.39,3.56-5,8.45-8.44,13.44-11.78l11.24-8c0.35-2.46,2.23-3.7,4-5,3.2-2.24,6.75-4,9.62-6.69,1.92-1.52,4.24-2.38,6.17-3.89,0.82-.69,1.65-1.36,2.49-2C214,368.22,219.94,362,226.86,357c4.72-1.64,8.94-1.58,11.69,3.46,1.86,5.37-.33,9.22-4.57,12.37a315.94,315.94,0,0,1-37.29,24.24c-7.66,4.18-14,10.32-21.47,14.94-2.14,1.33-3.54,3.8.61,5,1.86,0.33,3.73.53,5.57,0.94,3.81,1,7.73,1.47,11.46,2.75,5.6,1.9,11,4.27,16.56,6.36A82.61,82.61,0,0,0,224,431.75c5.31,1.6,10.6,3.32,16.25,3.09A28.44,28.44,0,0,1,248,436.3c6.43,2.2,12,.87,17.06-3.52,5.75-3.45,10.1-8.9,16.42-11.55,2.92-.82,5.8-1.06,8.52.65,2,5.09-2.48,8.35-3.53,12.59-12.74,15.7-23.85,32.22-22.67,53.64,0.47,8.54-6.19,6.39-10.29,8.26-2-1.36-4.86-1-6.46-3.2-2.81-3.12-6.67-3.21-10.33-3.11-19.46.53-38.81-1-58.17-2.57-12.49-.84-24.77-3.59-37.31-4-3.77-3.3-8.32-3.45-13-3.21C130.75,475.73,132.3,471,130.2,465.86Z" transform="translate(-107.32 -65)"/><path class="cls-8" d="M253.54,496.37a9.77,9.77,0,0,1,.77-2.12c9.37,1.24,7-5.52,7.21-10.49,1-20,9.83-36.27,24.05-49.92,6.71-5.61,8.53-4.92,10.52,4-1.25,2.14-.95,4,1,5.55,5.57,4.34,8.42,10.82,12.64,16.22,5.66,7.26,4.19,14.49-3.11,18.25-3-.86-5.42-2.7-7.79-4.64-2.43-3.34-6.53-4.56-8.69-6.75,5.74,2.52,8.73,7.3,8,14.79-0.62,6.06-2.31,8-8.37,7.34-4.9-.51-7.88-4.24-11.88-6.66,0.95,0.88-.18-0.25,0,0,8.69,8.74,1.45,11.76-5.38,14.29-3.36,1.25-7.48-.61-10.87,1.67Z" transform="translate(-107.32 -65)"/><path class="cls-9" d="M511.84,476.79l-24.07,1.79c-8.69-2-13.56-8.16-16.9-15.9,2-4.28,4.67-2,7.11-.54s4.09,3.42,6.62,4.38c3.09,1.17,4.64,1,4.78-3.25,0.22-6.71-1.56-13.64,5.23-19.49,3.36-2.89,4-9.6,3.9-15.05,0-3.16-.37-6.4,1.19-9.38,2.19-2.79,5-2.57,6.75-.16,2.79,3.82,8.89,5.84,7.26,12.27-0.37,1.48-1.73,2.74-.84,4.87,3.26-.09,4.1-2.7,4.91-5.09,1.2-3.53,2.24-7.12,3.38-10.67,0.83-2.58,1.93-5.41,5.44-4.42,2.89,0.82,4,3.23,3.88,6.24-0.13,2.34-1.42,4.66-.16,7,1.2,2,2.29,4,1.75,6.39-2.07,6-5.56,11.38-6.94,17.62-1.22,5.53-2.06,10.85,6.38,10.83a4.53,4.53,0,0,1,4.24,3.11c0.6,8.53.28,8.9-7.95,9-2.59,0-5.18,0-7.75,0-4.9-3.31-6.22-12.12-2.65-19.66,1.26-2.67,2.89-5.11,2.42-7.9,0,3.9-.91,8.58-5.68,8.61-9.42.06-6.32-9.51-9.95-14.44a84.54,84.54,0,0,1,1.72,23.4c-0.39,4.53,1.37,7,5.43,8.37A1.61,1.61,0,0,1,512,476,0.81,0.81,0,0,1,511.84,476.79Z" transform="translate(-107.32 -65)"/><path class="cls-10" d="M396.33,483.85a21,21,0,0,1-16.16,0,15.71,15.71,0,0,1,.25-3.18c1.7-10.23,8.21-17.68,15-24.68,3.77-3.87,4.11-5.82-.65-9-4.56-3-7.58-8-12.35-11-1.82-1.16-3.78-3.21-1.95-6,6.31-2.33,13.3-1.59,19.56-5,2.3-1.26,8.58-1.22,6.79,5.74-0.88,3.42,2.49,2.47,4.11,3.28,6.22,1.38,12.51,2.44,18.53,4.58,2.94,1.24,6.05,2.07,8.88,3.6,1.4,0.83,2.74,1.71,3.23,3.4-5.45,5.48-11.73,6.34-18.57,2.53-3.64-2-6.73-5.28-11.85-5.38,1.16,7.73-.53,15.41,2.65,22.83,2.26,5.27.44,9.4-5.32,11.29-2.44,1-4.8,2.12-7.19,3.19-1.7.73-3.51,1.14-5.26,1.75-0.53.19-1.75-.39-1.5,0.77C394.66,482.83,395.92,483.11,396.33,483.85Z" transform="translate(-107.32 -65)"/><path class="cls-11" d="M306.59,477.06c5.63-5.06,6.48-11.09,1.76-16.32-5.44-6-8.68-13.87-15.46-18.82-1.18-.86-2.7-2.32-0.62-3.73,0.59-.4,1.92.31,2.92,0.51,3.5,0.4,5.27,3.36,7.72,5.28,7.34,5.75,11.4,4.85,15.49-3.49a5.31,5.31,0,0,1,2.21-2.23c1.76-.45,3.08.35,4.28,1.5,2.25,3.79,4.66,7.52,4.81,12.15-1.8,4.06-6.09,2.76-9.09,4.23-2.76,1.17-5.51,2-8.15-.34a42.26,42.26,0,0,1,7.25,8.1c4,1,8.79.26,11.34,4.74,2.44,3.86,5.29,2,8.29.77,6.81-2.76,8.57-1.68,10.86,6.21-0.56,1.11-1.69,1.65-2.66,2.52,2.14,0.24,4.16.47,5.7-1.34,1.87-9.1,8.57-15.14,14.05-21.9,1.24-1.52,3.56-4,5.69-.39,0.25,3.17-1.69,5.48-3.39,7.73-3.91,5.17-6.29,10.8-6.28,17.35l-0.74.84c-5.55,2.65-11.47,1.45-17.23,1.47A93.29,93.29,0,0,0,328,483.38c-3.24.62-4,2-3.48,4.84a1.78,1.78,0,0,1-.43,2c-6.9-4.2-2-10.29-2.75-15a26.44,26.44,0,0,1-4.7,7.66,7.76,7.76,0,0,1-4.56,2.19C307.19,484.52,304.07,482.69,306.59,477.06Z" transform="translate(-107.32 -65)"/><path class="cls-12" d="M324.13,489.79l0.37-1.57c7.3,1.21,14.24,3.37,22.12,1.34,3.43-.88,8.57.63,13.06,1.41-22.73,11.21-47.14,8.15-71.13,8.42,0.91-4,4.31-3.34,7-3.57,4.68-.4,9.41-0.09,14.08-0.4-4.59-.2-9.54,1.75-13.15-3,3.08-4.73,7.8-3.25,12.07-3a40.06,40.06,0,0,1,11.62,1.88C322.09,492.43,323,490.93,324.13,489.79Z" transform="translate(-107.32 -65)"/><path class="cls-13" d="M261.69,497.83c1.37-3,4.06-3,6.79-3,4.84,0.1,9.11-1,11.16-6,2.3-5.56-4.24-5.07-5.74-8.08a28.11,28.11,0,0,0-2.66-3.43c5.51,0.79,8.42,4.08,11.83,6.21,3,1.88,6,3.42,9.66,3.17,2.46-.17,3.63-0.82,3.72-3.81,0.23-8-2.3-14-9.9-17.37-1.42-.63-2.75-1.68-3.33-5A63.34,63.34,0,0,1,300,472.34c5.65,4.68,7.44,9.83,1.94,15.88-1.27,1.72-3.18,1.68-5,1.85-5.37,8.75-14.54,6.63-22.53,7.88Z" transform="translate(-107.32 -65)"/><path class="cls-14" d="M518.17,475.23a54.39,54.39,0,0,1,7.16.22c7.69,1.21,10.2-2.12,8.62-9.34-4.09-4.84-3.91-10.58-3.52-16.38,2.82-5.78,4.35-6.1,7.68-1.52a21.15,21.15,0,0,1,3.33,8.85A311.65,311.65,0,0,1,546.19,510c0,2.66-.06,5.34-2.29,7.32l-1.79.05c-3.09-6-3.7-11.59-1.46-18.58,1.87-5.82.46-13-.62-19.36-0.63-3.73-4.79-1.87-7.49-2l-20.71-.62-0.05-.73C513.58,473.28,515.88,474.32,518.17,475.23Z" transform="translate(-107.32 -65)"/><path class="cls-15" d="M471.71,462.68c5,5.67,9.46,11.87,16.06,15.91-11.79.51-23.49,2.59-35.35,1.81a1.51,1.51,0,0,1-.45-1.32,0.84,0.84,0,0,1,.29-0.7c9-2.51,11-11.26,15.82-17.56C469.89,460.28,471,461.16,471.71,462.68Z" transform="translate(-107.32 -65)"/><path class="cls-16" d="M178.13,486.65c20.08,0.84,40.14,2.26,60.26,1.56,3.46-.12,7,0.14,9.73,2.6,1.81,1.61.27,2-1,2.35l-75.14-5C173.12,484.05,175.86,486.29,178.13,486.65Z" transform="translate(-107.32 -65)"/><path class="cls-17" d="M147.86,514.82c21.51-3.33,42.91-1.89,64.29-2.4l0.05,2.4H147.86Z" transform="translate(-107.32 -65)"/><path class="cls-18" d="M396.33,483.85l-5.36-.61c3.3-2.64,5.87-5.37,10.12-4.72,9.38-2,19.11,1.09,28.42-1.94,2.13,0,4.32-.21,6.29.73,2.31,1.1,3.7,2.51.52,4.36Z" transform="translate(-107.32 -65)"/><path class="cls-19" d="M274.41,498c2.62-2.62,6-1.43,9-1.63,4.21-.28,7.38-1.47,8.29-6.25,0.58-3,3.37-1.15,5.11-1.67a2.49,2.49,0,0,1,.37,3.2c4,4,10-.1,14,4.07-6.91,4.55-15.53.22-22.69,3.73C284,497.4,279.08,498.84,274.41,498Z" transform="translate(-107.32 -65)"/><path class="cls-20" d="M369.35,483.36c-2.78.22-6,1.43-6.77-3l0,0A23,23,0,0,0,373.11,470a30.78,30.78,0,0,1,9.67-11.34c1.27-.86,2.87-1.86,4.19-0.2,0.88,1.11.45,2.51-.18,3.74a9.51,9.51,0,0,1-1.79,2.6c-4.52,4.31-5.79,9.83-6,15.77C376.33,483.44,372.46,482.07,369.35,483.36Z" transform="translate(-107.32 -65)"/><path class="cls-21" d="M178.13,486.65c-2,.6-4.5-0.49-6.19,1.52-10.29-1.1-20.61-2-30.67-4.64,4.53-4.22,9.13-.09,13.53.27C162.58,484.44,170.56,484.16,178.13,486.65Z" transform="translate(-107.32 -65)"/><path class="cls-22" d="M532.73,478.86c5.4,0.8,2.42,4.51.94,5.11-6.5,2.68-12.74,6.59-20.23,6C519.8,486.17,527.39,484.45,532.73,478.86Z" transform="translate(-107.32 -65)"/><path class="cls-23" d="M436.33,481.67c0.26-6.13-4.68-1.28-6.47-3.07,1.39-4.83,6.42-6.15,9.13-4.77,4.35,2.21,9.54,1.87,13.35,5.08q0.06,0.74.08,1.49C447.07,481,441.81,482.66,436.33,481.67Z" transform="translate(-107.32 -65)"/><path class="cls-24" d="M130.2,465.86a47.19,47.19,0,0,0,2.22,5c3,5.1,1,7.95-4.1,9.47l-5,0,1.59-1.64C127.93,474.89,130.39,470.92,130.2,465.86Z" transform="translate(-107.32 -65)"/><path class="cls-25" d="M369.35,483.36c2.7-2.15,6-2.25,9.2-2.76a2.59,2.59,0,0,1,3.07,1.55l-1.45,1.69Z" transform="translate(-107.32 -65)"/><path class="cls-26" d="M630.59,517.28c-0.84,1.85.64,4.32-1.58,5.79a113.73,113.73,0,0,0-8.7-8.63,13.28,13.28,0,0,1-3.55-8.15c-2.3,3.72-5,5.55-8.6,3.56-3-1.64-3.39-4.5-3.28-7.6,0.87-25.05,3.17-50,4.18-75.07,0.29-7.15,4.38-10.46,10.52-12.33a7.47,7.47,0,0,1,4,.31c4.56,2.37,4.33,6.68,4.38,10.86,0,2.86,0,5.73.09,8.58,0.65,19.11-2.45,38.13-1.76,57.41,3.37,1,2.67-5.85,6.56-3.16,1.71,2.73,1.22,5.29-.6,7.73C630,503.33,630.75,510.34,630.59,517.28Z" transform="translate(-107.32 -65)"/><path class="cls-27" d="M304.67,215.71c0-3.15.11-6.29,0-9.43-0.18-4.63,1.94-6.85,6.56-6.67,1.69-.92,2.85.1,4,1.1,1.58,2.11,3.31,4.17,3.22,7-0.75,2.41-2.73,2.05-4.56,2.06-5.55,1.3-3.53,4.65-1.76,7.5,0.36,0.58.89-1.36,1.54-2,6.73-3.42,6.73-3.42,9,7.87,3.29,0.14,2.54-4.53,5.55-4.68,5.91,5.74,5.32,13.6,6.82,20.78a4,4,0,0,1-3.27,3.22,6.65,6.65,0,0,1-7.11-5.25c-1.35-5.63-5.45-6.65-10.08-7.31l-3.68-4.57Z" transform="translate(-107.32 -65)"/><path class="cls-28" d="M266.5,308.32c-0.95-2.86.93-5,1.79-7.46,3.36-2,5.13-5.44,7.47-8.35,11.7-7.47,15.73-20.48,22.71-31.37,4-6.3,5.08-14.9,13.92-17.55,3.54-1.06-1.3-6.77,3.62-7.57,7.72,4.49,8.52,13.93,14.23,19.87a27.82,27.82,0,0,1,2.49,9.55c0.07,9.2,3.84,17.66,5.28,26.59a3.65,3.65,0,0,1-2,2.93,6.85,6.85,0,0,1-7.32-2.48c-5.22-1.77-9.44-4.45-12.61-9.45-3.69-5.81-11.67-5.46-17.11.45-5,5.47-9.17,11.65-10.76,19.15-1.19,4.53-5.26,6.27-8.52,8.8C270.87,317.11,270.87,317.11,266.5,308.32Z" transform="translate(-107.32 -65)"/><path class="cls-29" d="M316,236.5c-2.2,1.66-.63,3.37,0,4.95,1.72,4.06,2,6.19-3.8,4.66-4.25-1.12-5.7,3.49-7,6.16-5.93,12.45-13.24,24.06-20.46,35.76-2.38,3.85-5,5.13-9.11,4.49,0.29-4.44,2.8-7.91,4.87-11.63,4.36-7.82,11-13.81,13.11-23.61,2.33-11,11.61-18.64,20.56-25.51C316.69,232.67,317.55,234.15,316,236.5Z" transform="translate(-107.32 -65)"/><path class="cls-30" d="M316,236.5c0.89-2.12-1.34-3.09-1.74-4.74l0.25-1.82c5.11-2.87,9.33-1.9,10.83,3.86,0.89,3.4,2.12,5.9,5.08,7.59,5.4,3.22,6.35,7.52,3.09,12.83-1.24,1.23-2.59,2.16-4.47,1.46C322,251.17,321,242.5,316,236.5Z" transform="translate(-107.32 -65)"/><path class="cls-31" d="M314.62,201.12l-3.4-1.51c-7.89-5.81-5.92-14.6-6.82-22.53,2.12-4.24,1.42-8.83,1.78-13.31a110.35,110.35,0,0,1,8.6-34.64,2.88,2.88,0,0,0,1-.24c3.6-2.82,8.39-2.88,12.21-5.39,2.55-1.68,6.46-4,8.69-.86,2.37,3.33,5.55,7,3.09,12.3-3.18,6.85-7.54,12.88-11.7,19.08-3.12,4.66-5.51,9.16-1.83,14.71,1.38,2.07,1,4.71.26,7-2.23,6.86-3.51,14-5.64,20.84C320,199.61,319.28,203.21,314.62,201.12Z" transform="translate(-107.32 -65)"/><path class="cls-32" d="M149.25,419.47a114.93,114.93,0,0,0-16.43,22.23,14.85,14.85,0,0,0-7.88-3.25c-6.1-.47-8.41-6.32-4.87-11.38C125.13,419.8,139.83,416,149.25,419.47Z" transform="translate(-107.32 -65)"/><path class="cls-33" d="M543.9,517.28A372.78,372.78,0,0,0,539,456.4a17.91,17.91,0,0,0-3.66-8.71c-3.86-4.37-2.13,1.11-3,2.08-4.43,0-5.35-2.5-4.38-6.25,0.72-2.8,2.16-5.36,3-8.15a5,5,0,0,0-3-4.94c1.52-5,5.91-6.79,10.09-8.81,6.45,2,8.83,6.78,9.9,13.14q3.71,22,7.55,44c2.57,12.19,4.33,24.43,3.23,37-0.4,4.58-2,7.39-6.75,7.82C546.51,525,545.3,521,543.9,517.28Z" transform="translate(-107.32 -65)"/><path class="cls-34" d="M551.93,523.57c2.06-1.63,3.5-2.66,4.06-6.27,2-13.18-1.24-25.74-2.47-38.53-1.82-14.13-2.84-28.37-5.45-42.41a14.9,14.9,0,0,1,1-9.37c4-3.07,4.71.64,4.71,2.84,0,8.76,6.64,15,8.36,23a4.58,4.58,0,0,0,2.12,3.29c6.64,3,7.43,9.23,8.76,15.21,0.52,12.1,2.68,24.09,2.27,36.26-0.23,6.77-2.22,12.39-8.41,15.9a39.28,39.28,0,0,1-5.18,1.32Z" transform="translate(-107.32 -65)"/><path class="cls-35" d="M561.66,524.85l3.17-1.24a39.92,39.92,0,0,1,18.33-4.15c5.24,0.11,9.56-2.73,14.11-4.85,8.29-3.86,16.71-4.53,25.21-.59,2.39,2.86,8,3.41,6.51,9.05C606.64,526.82,584.14,525.37,561.66,524.85Z" transform="translate(-107.32 -65)"/><path class="cls-36" d="M223.11,433.71C218,433,213.27,431,208.58,429c-2.28-5.21,2.62-6.45,5.18-8.28,10.12-7.27,19.2-15.92,29.82-22.5,4.33-2.69,6.82-7.43,11.4-9.77,2.41-.08,3.44,1.66,4.48,3.38,1.18,3.25,3.69,6.11,2.94,9.93C254,414.42,241.84,423.08,229.9,432,227.75,433.6,225.17,432.37,223.11,433.71Z" transform="translate(-107.32 -65)"/><path class="cls-37" d="M181.22,419.46l-6.36-.07c-5.67-5.23-1.05-7.77,2.86-10.09,18.41-10.94,36.11-23,53.91-34.83a20.17,20.17,0,0,0,8.44-11.07c1.68-1.26,3.07-.38,4.47.57a8.35,8.35,0,0,1,2.5,4.2c1.25,5.86-2.19,9.77-6.13,13C222.44,396.11,205.17,413,181.22,419.46Z" transform="translate(-107.32 -65)"/><path class="cls-38" d="M255.12,388.87c-3,6-8.29,9.45-13.44,13.25-10.06,7.41-19.9,15.11-29.85,22.65-1.49,1.13-3.25,2-3.25,4.2l-16-6.45c-3.66-2.62-1.29-4.13,1.22-4.77,20.28-5.22,33.85-20.6,49.72-32.51,2.84-2.14,4.11-5.58,6.72-7.89,2.54-.39,3.78,1.19,4.78,3.14C255.68,383.27,257.24,386,255.12,388.87Z" transform="translate(-107.32 -65)"/><path class="cls-39" d="M250.28,377.7c0.5,3.67-1.63,6.1-4.17,8.11-11.83,9.36-23.64,18.74-35.65,27.86-4.46,3.39-10.1,4.41-15.47,5.6-2.24.49-3.64,0.63-2.45,3.26-3.65-1.48-7.95-.58-11.32-3.07a4.56,4.56,0,0,1,4.07-4.3c18.36-3.07,29.66-17.58,44.09-27,4.69-3.06,8.52-7.08,12.57-10.88a10.48,10.48,0,0,0,3.57-9.2c4.66,0.45,4.05,4.73,5.48,7.54A2.55,2.55,0,0,1,250.28,377.7Z" transform="translate(-107.32 -65)"/><path class="cls-40" d="M229.49,353.66c1.58-.56,1.39-2.2,2-3.34,6.12-12.28,16.5-20,28.14-26.37,3.25-1.78,6.31-4.64,4-8-3.24-4.76.85-5.53,2.8-7.66a10.53,10.53,0,0,1,2.24,0c1.91,8.63,6.36,3.14,10,1.85,6.08,0.5,5.29,3.74,2.57,7.15-2.29,2.87-5.92,4.26-8.69,6.63a11,11,0,0,0-6.42,7.89c-9.67,8.83-22.83,14.12-27.91,27.59l-0.9.68c-2.9-2.46-6.06-3.37-9.68-1.67C226.3,356.06,227.45,354.7,229.49,353.66Z" transform="translate(-107.32 -65)"/><path class="cls-41" d="M223.11,433.71a149.48,149.48,0,0,0,34.79-29,29.41,29.41,0,0,1,3.6-3c1.39-.44,2.25.33,3,1.3a3.43,3.43,0,0,1,.74,1.39c0.73,7.21,3.66,11.78,11.94,10.25,0.69-.13,1.46.56,2.1,1.05a3.27,3.27,0,0,1,.44,3.28c-6.79,2.91-15.1.79-21.07,6.39-2.4,1.23-3.83,3-3.08,5.86-4.1,4.13-10.28,2.78-14.86,5.65C234.49,437.87,228.81,435.71,223.11,433.71Z" transform="translate(-107.32 -65)"/><path class="cls-42" d="M320.9,438.65a18.84,18.84,0,0,1-1,2.17c-1.73,2.75,1.51,7.8-3.45,8.79s-10.23.75-14.25-3.26c-2.44-2.43-4.66-5.1-7-7.66-0.45-7.07-4.15-7.72-9.62-4.86-0.4-4.56,2.53-7.68,4.79-11.09,2.84-2.42,5.69-.9,8.18.39a26.42,26.42,0,0,0,9.18,2.48C313.84,428.21,320.12,430.65,320.9,438.65Z" transform="translate(-107.32 -65)"/><path class="cls-40" d="M240.66,363.24c0.13,5.67-3,9.57-7.37,12.41-7.32,4.75-15.25,8.85-22.11,14a266,266,0,0,1-34.23,21.68c-3.24,1.73-4.15,4.67-2.09,8.08-6.13-1.47-6.3-5.42-1.9-8.17,8.3-5.19,15.33-12.07,24.05-16.68,13.39-7.07,25.78-15.79,37.89-24.87,3.33-2.5,2.44-6.2,2.51-9.61l0,0C240.05,359.58,241.13,360.63,240.66,363.24Z" transform="translate(-107.32 -65)"/><path class="cls-43" d="M240.73,436.89c3.57-4.86,9-5.29,14.32-6.12,1-5.17,4.92-3.93,8-3.14s5.07,2.89,3.27,6.51c-5,5.39-10.75,7.3-17.89,4.38C246.06,437.55,243.32,437.41,240.73,436.89Z" transform="translate(-107.32 -65)"/><path class="cls-44" d="M308,427.42c-6.71,1.54-11.4-4.55-17.68-4.68l-8.74-.15a1.36,1.36,0,0,1-1.79-.89c-0.37-1.19.13-2.27,0.41-3.37,8.68,0.55,7.72-6.74,9.54-11.77,4.07-2.29,5.77.46,6.95,3.54s2.12,5.87,4,8.41c2.26,3,2.75-.53,4.06-1.08a2.63,2.63,0,0,1,2.22.49C308.79,420.95,309.56,424.07,308,427.42Z" transform="translate(-107.32 -65)"/><path class="cls-45" d="M266.35,434.15c-1.91-7.32-6.5-5.7-11.3-3.37-3.82-2.41-3.71-2.86,1.61-6.54,6.09-.6,12.26-0.8,18-3.4,2.42-1.1,4.54-1,5.84,1.72a4.26,4.26,0,0,1,1.14,0C276.18,426,272.29,431.43,266.35,434.15Z" transform="translate(-107.32 -65)"/><path class="cls-46" d="M301.64,486.81c1.62-4.37,1.36-6.68-1.62-14.47,2.44,1.22,5,2.27,6.57,4.71,0.33,4.14,2,6.9,6.72,6.5C310.64,489,306.62,489.64,301.64,486.81Z" transform="translate(-107.32 -65)"/><path class="cls-47" d="M535.89,422.6c0.56,5.9-6.2,4.33-8,7.84-3.14-2.21-.19-4.37.35-6.27,0.84-2.94,1.06-5.84-1.94-6.73-3.66-1.09-2.91,2.64-3.5,4.67-1.19,4.07-1.89,8.36-3.67,12.15-1.49,3.18-3.87,7.47-8.37,5-4.27-2.33-1.1-5.11.71-7.8,2.28-3.39-5.32-11.65-10.92-12.06a1.88,1.88,0,0,1-2.05-.52c-1.22-7.82-4-15.42-2.89-24.16-4.76,1-6.07,4.83-8.48,7.34-7.43,7.74-22.28,4.29-25.83-6,2.43-2.93,5.06-.93,6.94.32,7,4.65,12.14,2.49,16.68-3.58,0.94-1.25,2-2.43,2.89-3.71a13.35,13.35,0,0,1,1.48-1.69c9.1-6.48,16.2-14.2,16.29-26.28,3.75-3.57,4.66-10.24,11.43-10.52-0.27,9.08,1.57,17.84,3.74,26.61,1.12,4.54-.49,9-3,12.94-5.06,8-6,16.32-2.61,25.12a23.34,23.34,0,0,1,1.93,7.42c2.11-6.08,3-12.21,6.84-16.81,3.29-3.89-1.19-9.62,3.61-12.85,3.46,0.51,4,3.32,4,5.89,0.18,6.86.35,13.6,5,19.34C537.64,419.48,537,421.27,535.89,422.6Z" transform="translate(-107.32 -65)"/><path class="cls-48" d="M499,419.39l1.62,0c-0.08,7.6.81,15.35-2.65,22.51-1.18,2.45.45,7.21-5.47,6.32-1.75-.26-1.48,3.54-1.39,5.61,0.18,4,1.07,8.05.62,12-0.61,5.33-4.15,5.87-9.3,2.53-3.36-2.18-5.25-7.38-10.69-5.67l-3.2-1.57c-4.11-1.23-6.9-4.24-9.76-7.16a2.88,2.88,0,0,1-.13-2.18c1.86-2.28,4.23-1.56,6.55-1.08s5.15,1.63,6.41-1c1.52-3.23-1.91-4.41-3.76-6.06s-4.45-2.89-6.24-4.84c-3.06-3.35-2.51-5.62,2.23-6.32,6.73,1.38,13.27,3,18.72-3.67,2-2.48,5.83-2.17,9-1a3,3,0,0,0,.63.34c0.57-.43.53-0.9-0.07-1.35,1.21-3,5.07-3.55,6-6.76Z" transform="translate(-107.32 -65)"/><path class="cls-49" d="M518.17,475.23l-6.38.84c-6.73.77-9.33-1.68-8.17-8.81,1.63-10-2-20-1.27-31,3.84,4.47,6.47,8.32,6.43,13.79,0,2.87,1,6.2,4.92,6,3.34-.19,3.89-3.22,4.36-5.84,0.5-2.79-.32-5.91,3-8.82C523,453.35,514.93,463.92,518.17,475.23Z" transform="translate(-107.32 -65)"/><path class="cls-50" d="M530.91,435.37c1.52,4.7-6.25,10.32,1.43,14.4q0.8,8.16,1.61,16.33c-12.07-.27-14.83-4-10.42-16C525.38,445,527.13,439.61,530.91,435.37Z" transform="translate(-107.32 -65)"/><path class="cls-51" d="M492.76,427.27c2,0.33,4.46-.34,5.12,3.13-7.55-1-15.15-4-20.2,5.81-1.22,2.37-9.27-.76-14-2.39-5.16.08-8-6.71-14.6-4.89,1.62,3.6,4.56,6.34,3.24,10.28-1.08,3.23-1.59,6.71-5.05,8.51-2.7.73-4.84,0.1-6.16-2.54l-3.18-1.67c1.75-4.09,1.13-6.88-3.77-8a22.29,22.29,0,0,1-10.34-5.27,7.31,7.31,0,0,1-1.79-3c-1-6.41,2.62-10.67,6.9-14.6,2.87,0.31,4.83-1.06,6.8-3.09,3.17-3.27,7-6.16,11.65-6.19,7.81,0,9.43-3.89,7.7-10.54a2.59,2.59,0,0,1,2.64-1.61,5,5,0,0,1,2.94,1.36,4.31,4.31,0,0,1,1.41,2.85c5.52,10.44,18.67,12,25.24,3,0.93-1.28,1.67-2.89,2.91-3.73,2.26-1.53,4.23-5.09,7.4-3.25,2.74,1.59,0,4.28-.15,6.49-0.18,3.46-.35,6.89,1.2,10.13a13.46,13.46,0,0,1,.28,11.44h0c-4.65,5.95-9.69,7.16-17.93,4.37C484.23,427.07,489.46,424,492.76,427.27Z" transform="translate(-107.32 -65)"/><path class="cls-52" d="M410.45,435.48c-0.53,0-1.06,0-1.59,0-2.58-.13-5.87.7-6.91-2.49-1-3,3.51-2.63,4.32-6-9.17-.75-17.1,6.42-26.1,3.84a81.28,81.28,0,0,0-20.63,10.93c-2.07,1.45-4.41,3-7.3,1.91-4.41-4.7-5.47-10.73-6.94-16.7-2-8.29-4-16.61-5.49-25-0.75-4.26-.55-8.85,3.46-11.65,3.73-2.61,6.91.84,10.4,1.6,11.79,2.58,22.69,6.53,31.7,15,2.68,2.53,6.08.51,9-1,13.32-7,21.44-2.2,21.79,12.87,0,1.33,0,2.67-.09,4C414.64,427.23,415.93,432.85,410.45,435.48Z" transform="translate(-107.32 -65)"/><path class="cls-53" d="M352.95,443.42c4.39-2.94,9-5.64,13.13-8.89a17.12,17.12,0,0,1,14.1-3.7c5.95,5.3,11.44,11.28,18,15.69,5.28,3.55,5.18,5.48.73,9.31-8.24,7.07-14.64,15.5-17.27,26.32-1.18-.2-2.45-0.24-3.07-1.55-5.17-9.77,4.17-14.46,9-23.11-7.21,4.81-10.54,9.8-13.71,15.16-2.44,4.12-4,10.32-11.27,7.71-3.86-11.26,5.35-17.54,9.78-25.63-2.3-2.84-2.47-3.08-5.27-1.15-5.23,3.6-10.53,7.17-15.13,11.57-3.35,3.21-6.27,4.92-9.73.17-2-2.71-5.23,2-7.41-.91-1.42-2.28-.84-4.52.13-6.75,2.89-5.13,7.32-8.74,12-12.1C348.77,444.4,350.36,442.48,352.95,443.42Z" transform="translate(-107.32 -65)"/><path class="cls-54" d="M441.12,445.18c2.11,0.88,4.21,1.78,6.59,1.4,5.05-.17,8.67,2.25,11.36,6.32l-0.2.28c4.15,7.21,1.67,14-2,20.26-3.42,5.82-12.27,5.28-16.48-.67-1.07-1.51-.59-3.2-3.13-0.95-6.76,6-15.34,6.61-23.89,6.85-2.5.07-4.7-.78-5.94-3.21,6.7-2.17,6.43-7,3.62-11.67-4.26-7,.54-15.05-3.18-22.24-1.21-2.34,2.13-3.07,4.38-2,3.14,1.46,6.72,2.54,9.19,4.79C428,450.25,434.39,449.1,441.12,445.18Z" transform="translate(-107.32 -65)"/><path class="cls-55" d="M407.46,475.45c11.14,3.33,21,.08,30.44-5.73,1-.61,3.32-6,3.19.81,0,1.53,2.6,5.57,6.85,5.26,4.06-.29,7.34-1.06,8.62-5.41,1.66-5.61,2.82-11.3,2.31-17.2a19.11,19.11,0,0,1,9.64,7.94c-3.2,12.2-7.51,16.94-16.17,17.79-4-1.62-9.82,3.17-12.67-3.82-0.28-.68-6.69,1.45-9.81,3.52-9.6,2.67-19.18,1.7-28.77-.08A10.78,10.78,0,0,1,407.46,475.45Z" transform="translate(-107.32 -65)"/><path class="cls-56" d="M410.45,435.48l3.67-12.74c1.31-4,.39-8,0.51-12,2.9-3.11,6.58-1.76,9-.21,2.17,1.39,0,4.38-.94,6.48-1.57,3.69-1.81,7.13.86,10.41l1.55,1.63c1.88,3.14,5.1,5.1,7.11,8.11s1.87,4.61-2.32,3.21C423.48,438.48,416.56,438.58,410.45,435.48Z" transform="translate(-107.32 -65)"/><path class="cls-57" d="M429.89,440.38c4-2.78-1.2-2-1.45-3.41-0.5-2.75-2.15-5.28-3.33-7.91,3.67,2.72,8,3.88,12.22,5.41,1.76,0.64,5,.36,4.72,3.2-0.23,2.31-.35,5.61-4.1,5.84Z" transform="translate(-107.32 -65)"/><path class="cls-58" d="M306.44,417.83h-1.59c-2.92-1-3.87-3.59-4.56-6.06-3.38-12.14-9.18-23.59-10.49-36.33,0.3-5.47-1.13-11.08,1.24-16.38a2.3,2.3,0,0,1,2.26-1c2.46,4.23.2,8.62,1.13,12.19,0-7.48-.31-15.75.52-24,0.38-3.73.11-7.46,3.35-10.14,3.08-1.45,2.33-4.9,3.74-7.24,0.94-1.57,1.41-4,3.51-3.91s2.36,2.47,2.9,4.2c0.37,1.19.09,2.63,1.48,3.69,2.09-10-1.23-20.27,2.07-30,3.91-1.88,4.35,1.3,5,3.66s-0.28,4.69,0,8.88c2.37-5.2,2.65-9.58,5.19-12.77,1.43-1.8,2.65-6.06,6.19-1.95-5.59,18.06-5.07,36.64-5.14,55.24a312,312,0,0,0,11.61,84.26c1.26,4.57,3.28,9.06,2.44,14-4.56,5-6.69,2-8.38-2.53a25.31,25.31,0,0,1-4.86-11.33c-3.93-27.61-10.88-54.87-9.44-83.22-3.88,5.19-4.31,11.19-4.74,17.11-0.93,12.78-1.6,25.59-2.21,38.39C307.62,414.4,307.89,416.31,306.44,417.83Z" transform="translate(-107.32 -65)"/><path class="cls-59" d="M306.44,417.83c-2.59-11.87.15-23.71,0.62-35.51,0.33-8.31-.24-17.13,3.53-24.93,1.1-2.27,1.41-7,4.91-6.31,3.79,0.7,2,4.92,2.08,7.59,0.54,13.28-2,26.94,2.21,39.72,3.88,11.83,1.66,24.35,5.76,36a5.13,5.13,0,0,1-1.46,5.88l-3.2-1.61c-3.37-4.8-7.42-8.81-12.87-11.22C306.2,424.44,306.43,421.12,306.44,417.83Z" transform="translate(-107.32 -65)"/><path class="cls-60" d="M335,464.32c3.41,0.13,7.4-4.83,10.18,1.91,1,2.4,3.12-.68,4.71-2,5.89-4.76,11.92-9.38,18.16-13.66,1.77-1.21,4.8-1.85,6.42.56,1.11,1.67-.88,2.67-2.15,3.56-7.86,1.59-8.79,9.79-13.64,14.24-3.09,2.84-3.6,6.15-2.58,10-3.36,1.19-5.32-.23-6.35-3.4-2.74-6-6.2-7.46-12.08-3.13-1.79,1.32-8.94,6.61-7.25-3.31C330,465.6,331.71,464.2,335,464.32Z" transform="translate(-107.32 -65)"/><path class="cls-61" d="M335,464.32a11,11,0,0,0-4.58,4.77c-3.64-1.66-7.08-4.91-11.31-.89-0.48.46-1.3-1.28-1.43-2.33,2.28-3.5.37-7.58,1.54-11.24,2.56-3.18,7.16.14,9.71-3,2.55,0.25,2.79,5.35,6.52,3.13,0.82,0.82.89,1.94,1.21,3Z" transform="translate(-107.32 -65)"/><path class="cls-62" d="M301.64,486.81c4.2,0.06,8.2-.62,11.66-3.25l2.37-1.42c5.16,2.1,6.52,5.94,5.1,11.07-7.8-1.33-15.61-2.64-23.57-1.62l-0.37-3.2C298.57,488.3,300.48,488.67,301.64,486.81Z" transform="translate(-107.32 -65)"/><path class="cls-63" d="M320.77,493.21c-0.59-4.2-3.07-7.53-5.1-11.07a26.93,26.93,0,0,1,5.6-9.48c4.39,5.69-1.55,12.2,2.86,17.13-0.27,2.15,2.88,4.55.3,6.23C322.21,497.47,321.95,494.29,320.77,493.21Z" transform="translate(-107.32 -65)"/><path class="cls-64" d="M319.25,454.63c2.66,4.18,3,8-1.54,11.24-1-6.25-7.84-8.08-10.31-13.37C311.92,450.55,314.48,458.77,319.25,454.63Z" transform="translate(-107.32 -65)"/><path class="cls-65" d="M349.77,475.52c2,1.37,3.74,3.18,6.35,3.4-4,3.61-8.5.66-13.45,1.33C344.21,476.47,347,476,349.77,475.52Z" transform="translate(-107.32 -65)"/><path class="cls-66" d="M622.5,416.18l-3.17,0c-6.85,1.19-9.38,5.31-9.83,12.18-1.2,18.55-3.27,37-5.58,55.48-0.43,3.45-.89,6.89-2.54,10-1.2,2.27-3,3.84-5.76,3.46s-4.06-2.55-4.35-5.05c-0.56-4.75-1.18-9.53-.69-14.34a31.62,31.62,0,0,0-.36-9.55c-0.74-3.64.5-7.92-1.74-10.9-2.78-3.7-6.93-.09-10.48-0.56s-6.8-1.25-9-4.35c-1.34-2.09-1.45-4.52-1.76-6.88s-1.49-4-4.12-3.89c-6.15.16-7.54-4-9.3-8.9-4.43-12.37.84-22.09,7.51-31.52,4.79-6.77,4.18-8.33-4-10.57-6.21-1.71-12.81-.05-18.86-2.64-2-2-.62-3.05,1.12-4,8.46-1.54,17-.55,25.48-0.67,5.11-.07,10.09-0.38,14.84-2.41a23.08,23.08,0,0,1,6.94-.85,22.58,22.58,0,0,1,4.13-.06c9.93,0.34,19.86-1.42,29.79,0,2.76,0.1,5.58-.12,8.16,1.23a2.65,2.65,0,0,1,1.21,1c2.66,10.27.89,20.46-1,30.56C628.59,416,625.05,415.74,622.5,416.18Z" transform="translate(-107.32 -65)"/><path class="cls-67" d="M569.58,451.49c4.83,4,10.16,4.41,15.63,1.74,5.27-2.57,6.69-.19,6.84,4.62,0.34,11,.87,22,1.07,33,0,2.32,0,4.59,2.43,5.14,3.09,0.69,4.14-1.68,4.5-4.28,1.62-11.77,3.36-23.53,4.78-35.33,1.29-10.75,1.28-21.64,4-32.25,1.49-5.76,4.12-9.06,10.48-7.87-7.36,3-8,8.84-8.27,16.07-0.9,23.53-2.75,47-4.33,70.51-0.2,3,.09,5.43,3.41,6.2,3.56,0.82,3.72-1.35,3.77-4.14,0-1.8,1.13-3.91,3.58-3.23,2,0.56,3.33,2.63,2.16,4.34-3,4.3,2.32,5.25,2.84,8-11.49-.61-22,1.15-32.74,6.7-6.94,3.6-16.52,2.11-24.91,2.89,11-8.09,8.53-20,7.51-30.67-0.71-7.42-.84-14.8-1.19-22.2-1.2-4.22-.94-8.73-3.07-12.81C567,455.77,567.61,453.3,569.58,451.49Z" transform="translate(-107.32 -65)"/><path class="cls-68" d="M633.93,453.17c-0.08,11.76-.36,23.51-1.91,35.19a13.29,13.29,0,0,0-1.25,2c-1,2.58,1.5,7.8-3.61,7.22-4.7-.53-3.92-5.6-3.8-9,0.66-17.72,1.59-35.43,2.42-53.14,1.64-3.23.23-6.74,0.92-10.06a10.46,10.46,0,0,1,6.07-7.76c2.6-1.21,4.6-.54,5.51,2.39C637.37,431.13,634,441.93,633.93,453.17Z" transform="translate(-107.32 -65)"/><path class="cls-69" d="M637,419.45c-6.66-.94-8.31,3.8-9.56,8.69-0.62,2.4.72,5.25-1.62,7.3-1.53-6.34,3.21-13.76-3.28-19.25,5.58-2.3,7.69-6.75,6.12-12.23-1.43-5-1.42-9.33,1.19-13.81,1.51-2.6.46-5.18-.91-7.59,3.22-3.27,6.89-4.42,11.23-2.38,2.91,3.12,2.33,7.31,3.37,11,0.36,2.81.65,5.63,0.74,8.47,1.42,2-4.39,1.85-1.3,4.37C645.17,413.05,644,416.13,637,419.45Z" transform="translate(-107.32 -65)"/><path class="cls-70" d="M481.6,114.09c3.43,3.28,3.44,8.18,5.73,12,1.47,2.77,3.82,5.25,2.89,8.8-4.18,3.87-6.88,1.17-8.71-2.41-2.23-4.34-5.34-8-8.37-11.65-5.85-7.06-11.65-14.44-21.05-15a23.77,23.77,0,0,0,2.76,1.09c2.28,1,4.69,2.68,3.93,5.29-0.9,3.07-4,2.18-6.12,1.38a7.79,7.79,0,0,0-8.76,1.82c-5.11,1-9.4-1-13.36-3.87-7.47-5.33-8-10.92-1.75-17.63-3.92-3.77-10.64-6.36-6.48-13.88,4.1-2,8.13-1.51,12.12.32,5,3,10.59,5.08,15.4,8.53a6.48,6.48,0,0,0,5.33,1.2c6.77-1.56,11.16,2,15,6.87,1.76,1.13,3.18,2.49,3.32,4.76C472.83,108,473.89,113.22,481.6,114.09Z" transform="translate(-107.32 -65)"/><path class="cls-71" d="M324,111.32c4.69-9,10.31-17.14,19.24-22.48,1.29-1,2,1.72,3.29.52,6-5.42,12.94-2.31,19.54-2.3,1,5.23-3.93,8-5.24,12.22-0.18.6-1.3,0.76-2.1,0.81,8.83,2.27-2.72,13.67,7,15.55,0.74,1.15.32,2.13-.44,3.06-2.22,2-4.87,3.34-7.26,5.06-4.67,1.42-8.36,4.93-13.09,6.25-4-2.78-4-7-4.35-11.31-2.94,1.35-6.43,3.71-9.15-.51-2.41-3.72-1.27-7,2-9.8,2.63-2.23,5.43-4.22,7.18-5.65a69,69,0,0,0-9.63,8C329,112.69,326.72,115.37,324,111.32Z" transform="translate(-107.32 -65)"/><path class="cls-72" d="M324,111.32c7.09,1.12,8.94-6.39,14.07-8.65,2.53-1.11,4.1-4.18,7.92-4.78-1.13,4.94-5.55,6.18-8.44,8.82-3.3,3-8.37,6.71-4.24,11.05,3.84,4,7.05-1.33,10.38-4.31-2.59,5.73-.69,10.65,1.4,15.54,0.5,4.84-4.38,7.42-4.94,11.82a38.84,38.84,0,0,0-7.34,26.24c0.79,9.35-2.84,17.71-5.59,26.28-2,3.56-2.38,7.46-2.87,11.44-0.51,4.17-2.32,6.94-6.51,2.52-1.32-1.94-3.28-3.54-3.27-6.18,4.23-.14,3.62-3.21,4.27-6.13,1.53-6.92,3.69-13.72,5.85-20.49,0.81-2.55,1-4.78-1.11-6.56-3.88-3.25-2.25-6.54-.38-10,4.58-8.39,11.08-15.58,14.92-24.45,1.84-4.26-3.63-6.1-2.72-10.23,0.2-.89-3.44.95-5.3,1.69-4.61,1.86-8.94,4.87-14.33,3.92C316.92,122.27,320.11,116.62,324,111.32Z" transform="translate(-107.32 -65)"/><path class="cls-73" d="M470.12,96.9c-5.15-2.18-9.05-5.46-16.21-4.58-5.89.73-12.73-6.26-19.15-9.82-1-3.49-8.72-2.34-6.21-7.42,1.94-3.92,6.67-2,10.11-.8,1.7,0.58,3.07-.92,4.59-0.1C454,79.59,463.29,86.81,470.12,96.9Z" transform="translate(-107.32 -65)"/><path class="cls-74" d="M396.26,72.95c3.19-3.13,6.54-6,11.22-6.54,1,0.8,2.69,1.89,1.74,3-5.46,6.39-.56,11.07,2.34,16.12a5,5,0,0,1,0,3.29c-0.18,1.52-5.62,2.18-.36,4.81,2.45,1.22,2.48,5.48,3.57,8.39a13.39,13.39,0,0,1,.52,2.11c-0.38,3.46,3.07,6.81.33,10.35-5.81.44-6.89-7-12.25-7.32a3.34,3.34,0,0,1-1.63-2.74c2.2-6.59-2.09-12.63-1.67-19-1.71-2.6-1.86-5.81-3.33-8.51C396.18,75.59,395.42,74.37,396.26,72.95Z" transform="translate(-107.32 -65)"/><path class="cls-75" d="M365.8,87.29c-7.06,3.52-16.74-2.89-21.66,6.47-2.9-1.95,1.72-3.55-.87-4.93,14.27-13,30.15-21.07,50.19-16.29-2,2.9-5.15,2.13-7.9,2.63-4.37.79-8.91,1-12.11,4.87s-8.14.95-12,2.88c3-.12,6.37-1.76,8,2.32C368.8,87,367.73,87.89,365.8,87.29Z" transform="translate(-107.32 -65)"/><path class="cls-76" d="M443.26,74.18c-1.65.74-1.54,5.57-4.9,2.26-2.7-2.66-5.78-.87-8.71-1.8-0.23,5.62,5.26,4.07,6.93,6.81a0.74,0.74,0,0,1-.29.64,10.89,10.89,0,0,1-1.52.41c-4-2.35-8.42-1.45-12.71-1.51a3.67,3.67,0,0,1-3.79.45c-3.59-2.64-5.31-6.16-3.22-10.28,1.64-3.23,4-6.44,8.61-4.79C430.86,67.3,437.61,69.34,443.26,74.18Z" transform="translate(-107.32 -65)"/><path class="cls-77" d="M423.66,66.36c-8.59,4.45-9.09,5.88-5,14.45a4.38,4.38,0,0,1-1.61,1.43c-2.46.67-4.36,2.38-6.53,3.6-5.93-1.88-3.39-9.71-8.74-12.43-1.3-.66,1.41-2,2.89-2.23,3.06-.39,4.36-1.72,2.79-4.77C412.87,65.92,418.26,63.53,423.66,66.36Z" transform="translate(-107.32 -65)"/><path class="cls-71" d="M369,85.67c-3.56-4.48-7.91,2-13.52-2.21,13.76-3.26,24.09-12.32,38-10.91l2.79,0.4,1.75,3a5.47,5.47,0,0,1-3.81,2.71c-5.92,1.21-11.77,2-16.35,7A6.44,6.44,0,0,1,369,85.67Z" transform="translate(-107.32 -65)"/><path class="cls-78" d="M481.6,114.09c-4.93,4.78-6.44-1.26-9.31-3-3.38-2-2.36-3.91-.15-6.24,0.55-.58-0.16-2.5,1.3-3.24C477.6,104.85,480,109.19,481.6,114.09Z" transform="translate(-107.32 -65)"/><path class="cls-79" d="M491.08,130.49l1.81,10.81-0.57.94a2.42,2.42,0,0,1-2-.57c-1.25-1.93-2.17-3.92-1-6.24l-1.91-9.34C489.88,126.45,489.75,129.09,491.08,130.49Z" transform="translate(-107.32 -65)"/><path class="cls-80" d="M333.82,239.68c-2.94-6.71-2.33-14.52-6.52-20.83-3.59-1.49-4.48-4.82-3.88-7.87,0.93-4.7-.07-9.52,1.34-14.12,6.75-11.33,8.92-23.86,9.27-36.77,0.4-14.55,7.25-24.67,20.29-30.81a87.37,87.37,0,0,1,11.77-2.18c6.14-.5,10.94,2.44,14.31,7.26,3.09,4.41.87,8.68-1.5,12.69-1.77,3-3.34,6.12-5.71,8.68-4.84,5.22-10.89,9.82-7.86,18.46,0.4,1.13-.86,2.44-1.86,3.37a7.68,7.68,0,0,1-3.29,1.4c-3.11.49-6.38,0-9.23,2.07-2.68,1.91-4.86,3.69-1.67,6.9,4.41,4.44,2.41,8-1.36,11.58-1.74,1.64-5.18,2.78-2.57,6.27a3.75,3.75,0,0,1,1.59,2.72c-2.13,3.94-8.73,3-9.29,8.88-0.79,8.41.87,16.41,3.36,24.3,1,3.29,3.57,2.94,5.67,1.13,3.75-3.24,6.89-7.62,6.17-12.4-1.16-7.71.75-15.36-.64-23,2-4,4.73-2.2,7.4-.92a6,6,0,0,1,2.16,3.08,78,78,0,0,0,0,19c0.94,7.19-3.68,13.8-7.11,20a114.65,114.65,0,0,0-10.83,25.74c-0.81,3-1.95,6.12-5.56,5.66s-2.65-4.12-2.83-6.54c-0.27-3.7.75-7.45-.36-11.14a30.19,30.19,0,0,1-.32-6C336.91,250.58,333.23,245.25,333.82,239.68Z" transform="translate(-107.32 -65)"/><path class="cls-81" d="M325.92,196.62c0.07,7.43-2.24,15,1.37,22.22-0.18,3.57.57,8.42-5,7.69-4.43-.59-3.68-4-2.57-7.78,1.58-5.36-1.52-5.21-5.14-3-2.68-2.64-2.27-5.35-.2-8.11,1.18,0.17,2.48,1.55,3.46-.35,2.27,0.65,4.54,1.95,4.47-2.43-0.07-4.16-.11-8.57,3.23-11.91C326.83,194.08,326.55,195.34,325.92,196.62Z" transform="translate(-107.32 -65)"/><path class="cls-82" d="M314.43,207.65q0.1,4.05.19,8.11c-0.2,2.23-.41,4.47-0.69,7.59-4.71-4.48-7.09-8.86-5.51-14.44C309.44,205.32,312.39,208,314.43,207.65Z" transform="translate(-107.32 -65)"/><path class="cls-83" d="M333.82,239.68c1.69,5.23,4.42,10.26,3.08,16.08-2.18,1-3.68.1-4.86-1.71,3.38-4.7.56-8.64-1.58-12.65A3.87,3.87,0,0,0,333.82,239.68Z" transform="translate(-107.32 -65)"/><path class="cls-83" d="M336.88,262.17c3.73,5.21-1.51,10.85,1.26,16.61,6.23-2.16,4.46-9,5.83-13,3.83-11.14,11.32-20.36,15-31.47,0.85-2.6,2-4.8.64-7.52-3.12-6.12-1.34-11.89,1.43-17.55,3.91-2.38,4.93-.32,5.72,3.28,1.91,8.7,2.8,8.84,9.95,3.25,3.83-3,6.79-6.76,10.08-10.25,6.88-7.29,14.49-6.65,18.12,2.68,6.66,17.14,6.15,25.13-9.9,34.37-4.91,2.09-10,5.93-14.08-1.23-0.57-2.13-.5-4.06,1.7-5.3,9.29,0.44,18-7.61,16.5-15.3-0.61-3.07-1-7.1-5.37-6.44-3.77.56-5.84,3.66-5.72,7.57,0.12,3.72.77,7.44-1.14,10.92-0.77,1.4-1.56,2.85-3.58,2.43-7.35-4.25-10.2-4.36-14.72,2.47-7.39,11.16-15.33,22.3-12.5,37.25,1.4,7.41-1.75,9.74-9.42,8.68,2.66,1.49,5,3.41,5.26,7a11.12,11.12,0,0,1-6.79,6.05c-3.2-.24-6.51-0.29-8.07-3.91-3.89-8.72-6.63-17.7-6.51-27.37C332.09,263.2,333.53,260.77,336.88,262.17Z" transform="translate(-107.32 -65)"/><path class="cls-84" d="M299.84,335.87c-4.66,8.68-2.44,18.49-4.5,27.62-0.66,2.92-.1,6.12-1.83,9.2V358.48c-3.3-6.24-2.64-13.24-3.69-19.9-0.7-4.39-.12-9.26-7.32-7.67-2.5.55-4.94-1.48-7-3.16a18.85,18.85,0,0,1-1.63-1.41,9.67,9.67,0,0,1-2.68-3.24c1.94-3.39,5.65-4.52,8.56-6.67,3.71-2.75,2.32-4.65-.95-6.31,1.92-3.49,7.1-3.58,8.25-7.88,5.66-13,9-15,20.36-12.15,1.76,6.07,1.78,11.73-2.54,17.07-3.07,3.8-5.06,8.15-2,13.21,1.13,1.88.57,4.18,0.28,6.31C301.51,329.57,302.15,333.24,299.84,335.87Z" transform="translate(-107.32 -65)"/><path class="cls-85" d="M308,291.31c-10.67-3.4-15.67,4.1-21,10.93-0.19-10.2,11.67-24.54,21-25.62,4.47-.52,8.17,1,10,4.79,2.35,4.82,5.23,8.27,10.88,8.61a1.83,1.83,0,0,1,0,.73,2.51,2.51,0,0,1-.5.61C321.59,297.58,314.81,294.32,308,291.31Z" transform="translate(-107.32 -65)"/><path class="cls-58" d="M308,291.31c6.79-.24,13.57,2.23,20.37.05l6.86,3c0.41,2.37-1.43,2.72-3,3.32a12.08,12.08,0,0,1-4.86-.07c-5.11.8-10.64-.21-15.11,3.43-2.36,6.5-4.16,13.19-6.93,19.54-0.94,2.15.18,5.53-3.68,5.81,1.46-4.55-4-7.71-2.66-12C301.43,306.47,307.08,299.81,308,291.31Z" transform="translate(-107.32 -65)"/><path class="cls-27" d="M336.88,262.17l-6.36,3.17-1.43-9.66,3-1.64,4.86,1.71Q336.89,259,336.88,262.17Z" transform="translate(-107.32 -65)"/><path class="cls-86" d="M332.06,295.93c1.27-.13,2.51-0.29,3.19-1.59l1.77-1.63,8.06,3.09c1.43,1.84,1.35,3.54-.46,5.07-2.42-.82-5-0.62-7.46-0.81S331.63,299.92,332.06,295.93Z" transform="translate(-107.32 -65)"/><path class="cls-87" d="M539.09,385.69a8,8,0,0,0-.57,1.17,2.25,2.25,0,0,0,.59.43c0.56,0.6,1.17,1.43.92,2.11-5.07,14.25,1.55,24.93,10.51,34.93a1.36,1.36,0,0,1-.25,1.47l3.22,53c-3.16-8.76-2.88-18.13-4.76-27.13-1.4-6.69-3.61-13.13-3.73-20.22-0.07-4.37-4.3-7.69-9.14-8.82-6.43-8.05-7-17.6-7.07-27.3,0-.55-1.59-1.08-2.44-1.62-2.81-3.45-4.13-7-.47-10.71,3.41-1.46,6.94-1.13,10.49-.72a6.51,6.51,0,0,1,2.38,1.12A1.7,1.7,0,0,1,539.09,385.69Z" transform="translate(-107.32 -65)"/><path class="cls-88" d="M550.3,425.81a4.83,4.83,0,0,0-4.27-3.12c-3.48-.11-6.25-0.47-2.9-4.77,0.27-.34-0.17-1.65-0.66-2.11-9.13-8.59-7.5-18.4-3.36-28.52A81.67,81.67,0,0,1,560.5,389c8,1.84,10,6.7,3.89,12-6.68,5.87-7,14.54-11.09,21.53-2.12,3.64,2.74,7.78,3.2,11.92,0.77,6.84,4.73,5.49,9.18,4.43,2.62-.63,3.83,1.21,3.84,3.78,0,2.93,0,5.86.06,8.79l1.58,19.25c-2.08-5-2.06-11.61-9.63-12.67-0.75-.1-1.27-2.69-1.67-4.18C557.26,444.32,550.77,436.09,550.3,425.81Z" transform="translate(-107.32 -65)"/><path class="cls-89" d="M263.27,403.43l-1.77-1.7c-0.15-3.54-4.12-5.8-3.24-9.68-1.87-10.87-1.06-12.23,9.19-13a5.22,5.22,0,0,0,4.36-2.53c2.6-3.46,5.79-4.35,9.66-2.13a7.16,7.16,0,0,1,1.88,6.58c-2.58,4.22-1.74,9.35-3.64,13.72-0.87,2-1.27,6.21-4.89,2-0.12-.14-0.21-0.07-0.23.15C274,404.23,271.24,405.81,263.27,403.43Z" transform="translate(-107.32 -65)"/><path class="cls-90" d="M280.37,374.55c-1.53.16-4-.2-4.43,0.57-3.09,5.57-7.8,6.11-13.63,6.56-6,.47-1.67,7.2-4,10.37l-3.14-3.18-1.56-8c-3.55-9.32-3.63-9.52,9.07-14.33,4.89-1.85,10.21-2.62,15.47-.74C280.64,368.26,282.44,370.91,280.37,374.55Z" transform="translate(-107.32 -65)"/><path class="cls-84" d="M240.66,363.24l-3.2-3.21c0.48-7.32,2.18-13.57,10.59-15.92,3.84-1.07,6.56-4.53,8.5-8,2.27-4.08,5.57-5.37,9.91-4.93,5.61,3.56,6.85,8.93,6.24,15.06-1.05,3.3-3.19,6.28-6.71,5.67-9.31-1.61-13.93,4.86-19.33,10.19-0.93.92-1.6,2.12-2.82,2.76Z" transform="translate(-107.32 -65)"/><path class="cls-91" d="M243.85,364.84c-0.54-6.39,5.47-8,8.79-11.26,2.88-2.84,6.06-7.49,11.83-3.39,2.41,1.72,4.8-1.18,6.74-3,4.1,0.24,4.23,3.27,4.42,6.26-0.71,6-3.52,8.63-10.08,8.08-8.18-.68-12.47,3.9-15.33,14.52-3-1.84-2.26-5.84-4.71-8Z" transform="translate(-107.32 -65)"/><path class="cls-92" d="M250.23,376.07c-1.71-11.67,5.29-19,16.75-16.38,6.24,1.41,5-3.86,7.26-6,4.24,3.49,5.36,7.76,3.21,12.85-8.26-1-15.39,3.07-22.86,5.37-6.09,1.87,2.64,6.33-1,9l-3.28-3.19Z" transform="translate(-107.32 -65)"/><path class="cls-93" d="M277.45,366.51l-3.21-12.85a8.37,8.37,0,0,0-3-6.45c0.65-6-2.7-10.84-4.75-16.05-4.28-6.09,1.58-6.27,4.69-8.05,1.25,0.12,2.46.32,3,1.73-1.72,2.78-.79,5.44,0,8.34C279.32,353,288,371.79,293,391.69c1.16,4.61,3.34,9.89-2.08,13.73-5.65-4.35-5.6-11.6-8.77-17.22a14.17,14.17,0,0,1,.07-7.21l-1.82-6.44Z" transform="translate(-107.32 -65)"/><path class="cls-94" d="M282.19,381c1.08,2,2,4,1.78,6.35,2,9.22-2.63,17.71-3,26.67a2.72,2.72,0,0,1-2,2.24c-4.57-1.27-10.24,3.16-13.29-.12-2.5-2.68-1.77-8.36-2.48-12.71,6.17-.34,12.12-0.88,9.84-10.56l3.48,4.17C280.47,392.16,276.64,385.07,282.19,381Z" transform="translate(-107.32 -65)"/><path class="cls-95" d="M279,416.26c-1.5-10.17,4.13-19.13,4.93-28.92l6.65,17.57a1.11,1.11,0,0,1,.56,1q-0.07.62-.24,0.62c-0.1,1-.23,2.07-0.3,3.11-0.76,11.24-.76,11.24-9.9,9.59-0.7.72-1.21,0.56-1.54-.35Z" transform="translate(-107.32 -65)"/><path class="cls-96" d="M279.2,418.93a4.45,4.45,0,0,0,1.54.35l-0.26,3.28c-5.81-2-9.77,4.9-15.7,3.16-2.58-.75-5.77,1.19-8.11-1.49C263.22,418.44,270.93,417.5,279.2,418.93Z" transform="translate(-107.32 -65)"/><path class="cls-97" d="M290.94,406.57l-0.32-1.66c4.13-10.25-.88-19.61-4.46-28.21-6.24-15-9.26-31-15.73-45.81-1.6-3.67-.09-5.59,3.68-6.06l0.29-.07c5.63,5.92,8,13.41,10.08,21a96.83,96.83,0,0,0,6.11,17c0.52,4.5-.16,9.13,1.45,13.51,2.73,14.31,8.47,27.7,12.8,41.52l-0.45,8.59c-4.37-5.1-8.32-8.67-9.14-14.25C294.84,409.32,294.3,407,290.94,406.57Z" transform="translate(-107.32 -65)"/><path class="cls-98" d="M462.07,395.34l-1.68-1.58c0-3.66,2.53-2.43,4.37-2.17,2.73,0.38,4.47,2.84,7.25,3.7-6.23-3.28-7.8-8.64-6.84-14.84a26.16,26.16,0,0,1,6-13.75c10-11.08,19.69-22.42,30.69-32.53,3-2.72,5.92-5.84,10.38-2.49a6,6,0,0,1,2,4.07c-0.12,3-1.57,5.55-3.23,8-9,13.12-13.6,28.53-21.7,42.12a3.5,3.5,0,0,0,0,3.07C483.2,402.71,478.74,403.76,462.07,395.34Z" transform="translate(-107.32 -65)"/><path class="cls-99" d="M526.28,384.15q0.05,4.77.1,9.53c1.64,5.37,2.54,10-1.89,15.34a23.72,23.72,0,0,0-4.83,15.56c0.07,1.66-.76,3.46-2.5,3.56-2.26.13-2-2-2-3.51,0-2.94-.16-5.83-1.72-8.45-2.68-13.16,2.16-24.62,8.19-35.76,1.61-3,3.84-4.71,6.4-.64C528.79,381.77,527.91,383.11,526.28,384.15Z" transform="translate(-107.32 -65)"/><path class="cls-100" d="M527.58,381.08c-1.77-2.43-2.53-3-4.75.32-7.06,10.66-7.86,22.76-9.41,34.77-3.35-7.61-4.37-15.8.35-22.6,6-8.69,5.85-17.43,2.52-26.25-2.27-6-1.16-11.33.22-17-3.24-3.26-4.29-6.89-1.91-11.11,4.52-.42,4.85,3.21,5.7,6.12s1.76,5.62,1.77,8.59c1,8.79,7.46,16.06,7,25.27A3.22,3.22,0,0,1,527.58,381.08Z" transform="translate(-107.32 -65)"/><path class="cls-101" d="M514.93,338.94l1.59,11.41c-3.26,3.69-5.46,8.29-9.56,11.26-4.21,10.17-11,18.63-17.65,27.25v0c-1.24.27-2.94,1.17-3.61,0.68-1.42-1,0-2.28.7-3.35,10.32-16.2,15.61-35.1,27.16-50.65a2,2,0,0,1,1.94.51A2.11,2.11,0,0,1,514.93,338.94Z" transform="translate(-107.32 -65)"/><path class="cls-98" d="M489.3,388.87c3.94-10.34,10.72-18.84,17.65-27.25C508.11,375.26,500.1,383,489.3,388.87Z" transform="translate(-107.32 -65)"/><path class="cls-102" d="M459.07,452.9l-11.36-6.32c0-4.89,8.54-10.41-1.25-14.75-1.24-.55.84-3.26,1.53-4.91,0.84-2,2.28-.69,3.56-0.85,6.45-.78,8.07,5.3,12.14,7.75-2.06.51-4,1.13-1.21,3.34,3.31,2.58,6.71,5,10.08,7.56,1.94,1.45,4.2,3,2.31,5.71-1.6,2.26-3.29,4.55-7.13,3.35C465.07,452.92,462.24,449.85,459.07,452.9Z" transform="translate(-107.32 -65)"/><path class="cls-47" d="M492.76,427.27c-5.42.59-10.59,0.25-15.7-4.45,8.12,0.16,15.66,1.86,21.89-3.43C500.28,424.68,496.18,425.71,492.76,427.27Z" transform="translate(-107.32 -65)"/><path class="cls-103" d="M511.7,332.71c-2.79-1.9-4.82-.82-6.91,1.4-10.78,11.43-21.92,22.54-32.34,34.29-4,4.52-6.47,10.6-5.41,17,0.66,4,1.68,8.78,7.79,7.55,1.74-.35,3.53-0.56,3.69,1.53s-1.85,2.22-3.45,2.37c-2.79.27-5.13-1.11-7.64-2-2.22-.77-4.22-4-7-1.09l-1.53-1.54c-3.09-2.29-8.06-1.44-9.85-5.89-2.91-7.22-3.19-13.71,3.9-19.13,4.65-3.55,3.76-7.71-.47-11.32-1-1.6-.35-3,0.55-4.33,9.16-5.58,19.05-10.06,26.79-17.78,3.26-3.11,6.73-6,9.28-9.78,0.9-1.45,1.7-3,2.66-4.39a19.28,19.28,0,0,1,1.25-1.66c1.54-2.33,2.51-5,4.19-7.24,1.5-2,1.49-4.44,2-6.73,0.75-2.32-.74-4-1.54-6-0.94-2.23-1-4.2,2-4.9,8.19,2.09,13.63,6.72,14.51,15.6-4.89,5.24-5.12,11.08-2.4,17.42C512.59,328.2,513.76,330.51,511.7,332.71Z" transform="translate(-107.32 -65)"/><path class="cls-104" d="M423.55,427.43c-8.78-5.07-2.3-10.73-.09-17.39-3.59,3.39-5.42-.49-8.06-0.33-3.18.27-2.25-2.36-2.81-3.95,2.14-5.81-4.57-8.72-4.58-13.83a9.44,9.44,0,0,1,1.11-5.56c3.87-3.89,4-11.12,10.91-12.32,2.91,3.75.76,6.83-1.29,9.94-4.19,6.1,1.4,7,4.81,9.11,5,3.72,9.51,2.73,13.57-1.63,2.27-2.44,3.64-5.83,7.3-6.77a6.2,6.2,0,0,1,2.27.31c1.63,1,3.65,1.78,2.59,4.37-6.53,4-8.62,11.3-12.81,17-1.85,2.53-2.82,5.87-6.5,6.56C427.91,417.83,422.54,421.21,423.55,427.43Z" transform="translate(-107.32 -65)"/><path class="cls-105" d="M430,413c3.78-6.3,7.81-12.47,11.23-19,1.85-3.5,4.13-5.29,8-5.08,2.94-.54,5,0.73,6.43,3.2,5.19,10.57,4.62,11.58-7.3,12.84-5.67.6-9.59,3.89-13.11,8.06C433.76,414.8,431.63,418.32,430,413Z" transform="translate(-107.32 -65)"/><path class="cls-98" d="M455.64,392.14l-6.43-3.2-3.1-3.35a3.27,3.27,0,0,1,4.73.31c1.31,3.83,6.88,2.26,8,6.31Z" transform="translate(-107.32 -65)"/><path class="cls-106" d="M413.91,405c0,1.7-.26,3.51,1.48,4.68-0.09,4.38,1.48,8.91-1.28,13-0.44-4.46.51-9.05-1.88-13.33-3-5.3-8.84-6.67-13.8-2.9-8.4,6.38-12.29,6.39-21.13-2.38-5.11-5.07-10.11-8.43-17.46-7.21-3.58.59-5.93-1.62-8.47-3.67-1.8-1.45-4-3.29-6.51-2.11-2.7,1.29-3,4.15-3.12,6.89-0.19,7.32,2.86,14,4,21.11a110.21,110.21,0,0,0,7.18,24.27l-4.77,3.26a5.3,5.3,0,0,1-3.63-4c-6.09-22.26-14.65-44.17-9.73-68,3.29-2.71,6.48-1,9.67.23,5.14,8.19,11.77,14,22.08,14.51,4.33,0.23,7.91,2.73,11.13,5.64,4.19,3.79,9.21,5,14.74,4.34,2.53-.3,4.21-1.17,2.39-4.06-3.49-4.27-8.86-6.14-12.67-10a8.16,8.16,0,0,1-2.8-6.22c0.57-2.28.83-4.81,4-5.07C389.79,383,399.45,388,408.22,394,410.36,397.54,414.07,400.3,413.91,405Z" transform="translate(-107.32 -65)"/><path class="cls-107" d="M410.69,418c-0.51,3.22-2.39,5.63-6,6.07-3.27.39-5.13-1.45-5.11-4.66,0-3.73,2.22-6,5.88-6.33C408.55,412.79,410.52,414.32,410.69,418Z" transform="translate(-107.32 -65)"/><path class="cls-108" d="M335.27,374.62c0.54,1.74,1.94,3.75,1.49,5.19-3.5,11.2,0,22,2,32.73,2.17,11.56,6.2,22.78,9.41,34.15l-11.49,11-1.21-3c-3.38-14.6-7.5-29.07-10-43.82a361.33,361.33,0,0,1-3-97.66c0.53-5.16,4.95-8.85,4.91-14.13a2.48,2.48,0,0,1,2.27-2.12,2.12,2.12,0,0,1,1.32.76c2.68,4.94,3,11.06,7.68,15-11.37,12.5-5.65,26.58-3.74,40.3C336.61,360.21,332.14,367.48,335.27,374.62Z" transform="translate(-107.32 -65)"/><path class="cls-109" d="M289.58,363.3c-3.4-1.89-4.13-5.69-4.87-8.73-2.5-10.3-6.55-20-10.32-29.81,8.77,6,9.08,6,15.38,1,1.87,11.05,4.35,21.68,3.73,32.72l-1.29-.08c-1.84-2.42-1-5-.5-8.26C289.94,354.78,293.17,359.6,289.58,363.3Z" transform="translate(-107.32 -65)"/><path class="cls-110" d="M301.68,326.37c0.05-8.6,7.38-15.26,6.39-24.18-0.3-2.71,1.6-2,3.16-1.49a2.72,2.72,0,0,1,1.53,1.63c0,9.61.16,19.22,0,28.83,0,2.68,1,7-3,6.92-3.36-.1-3.19-4.25-3.32-7.15-0.07-1.5,0-3,0-4.84-4.1,2.51-1.45,8.63-6.59,9.78C300.22,332.66,299.31,329.19,301.68,326.37Z" transform="translate(-107.32 -65)"/><path class="cls-111" d="M312.75,302.33l-1.53-1.63c3.66-7.93,10.77-3.85,16.46-4.73a2.38,2.38,0,0,1,1,1.6l-1.31,1.54c-3.84,3.22-5.38,7.66-6.45,12.31-0.71,3.08-1.42,8-4.39,7.38-4.09-.87-2.17-5.8-1.55-8.81C315.67,306.74,315.42,304.33,312.75,302.33Z" transform="translate(-107.32 -65)"/><path class="cls-112" d="M289.58,363.3l0.93-14.21,0.85-.08,0.86,9.39-0.17,17.91C288.88,372.42,289.57,367.79,289.58,363.3Z" transform="translate(-107.32 -65)"/><path class="cls-113" d="M620.59,382.55c-10.16-1.85-20.38,1-30.55-.39-0.37-6.31-1.45-12.67,1.6-18.67,2.7,2.34,6.74-2.65,9.11,1.65,0.65,1.52.41,3.1,0.32,4.67-0.25,4.3,1.1,6.6,6,5.33,2.65-.69,5.19.33,7.57,1.56,2.1,1.54,4.76,2.16,6.65,4.05A1.28,1.28,0,0,1,620.59,382.55Z" transform="translate(-107.32 -65)"/><path class="cls-114" d="M587.13,382.16l-6.7.81a4.45,4.45,0,0,1-3.59-.34c-4.92-5.12-5.41-11.48-5-18.07,1.43-2.37,2.76-1.31,4.13.11s1.55,3.82,3.84,4.37c2.28-.58,3-2.64,4.17-4.25,1.87-2.54,4.05-3.94,7-1.53C590.9,369.81,590.55,376.3,587.13,382.16Z" transform="translate(-107.32 -65)"/><path class="cls-100" d="M577.26,382.16l3.18,0.81c-8.4,4.71-17.55,1.8-26.34,2.54-5,.42-10,0.15-15,0.19Q539,385,539,384.23c3.21-3.56,8-1.91,11.77-3.57,6.09-1,12.23-.31,18.34-0.45A13.74,13.74,0,0,1,577.26,382.16Z" transform="translate(-107.32 -65)"/><path class="cls-115" d="M587.13,382.16c-1.19-6.66,3.66-12.36,3-18.93-2-3.35-1-6.06,1.81-8.38a2.32,2.32,0,0,1,2.44.84c1.26,2.74,1.68,5.34-1.26,7.36-2.82,6.08,1.16,13.25-3.09,19.1h-2.91Z" transform="translate(-107.32 -65)"/><path class="cls-116" d="M620.59,382.55v-1.81a2.22,2.22,0,0,1,1-3.4,4.15,4.15,0,0,0,3.78,0c1,0.67,1.94,1.46,3.28,1.15a15.25,15.25,0,0,0,4.76-.76c2.5-.56,4.94-1.48,7.57-1.25,1.28,0.36,2.71.85,2.47,2.41a2.64,2.64,0,0,1-3.36,2.34c-3.92-1.08-7.38,1.52-11.18,1.37h-8.31Z" transform="translate(-107.32 -65)"/><path class="cls-117" d="M417.15,80.87l1.53-.06L422.05,81c-0.37,8.33,8.35,9.29,12.17,14.23-2.37,3.13-8.31,0-8.35,5,0,4.82,3,8.1,7.28,10.62,3.6,2.1,7.55,2.39,11.26,3.7,4.49-1.21,8.27.32,11.76,3,6.48,5,12.91,10,16.95,17.34a8.9,8.9,0,0,1,.7,3.08c-0.08,3,4.2,6.24.67,8.67s-6.91-1-10-2.72c-4-2.13-5.73-6.81-9.8-9-1.13,1.65-.27,3.79-1.66,5.2-3.46,1.79-5.14-1.15-7.16-2.85-2.74-2.29-4.89-5.32-8.43-6.58-5-3.47-10.14-6.59-10-14.07,0.1-4.58-5.86-3.95-7.86-7.06-1.47-5.3-3.1-10.56-4.4-15.89C414.12,89.26,414.06,84.74,417.15,80.87Z" transform="translate(-107.32 -65)"/><path class="cls-78" d="M471.71,135.41c-7.5-9-15.37-17.61-27.29-20.86-1.93-5.87,2.16-4.83,5.27-4.38,2.54,0.37,4.48,2.9,8.47,2.24-2.55-5.05-8.74-4.89-11.58-9.41,12.84,0.22,21.65,6.78,28.22,16.48,3,4.48,8.32,7.42,9,13.66,0.26,2.31,3.27,2.26,5.43,2.28,1,1.93,2.21,3.81,1.82,6.16,2.32,6.74-.47,14.21,3,20.79a17.22,17.22,0,0,1,.65,3.83c-0.05,3,.42,6.09-1.36,8.82-1.76,1.61-3.31.42-3.73-1-2.23-7.6-8.16-13-11.51-19.91C475.22,148.14,475.85,141,471.71,135.41Z" transform="translate(-107.32 -65)"/><path class="cls-118" d="M369,85.67c3.93-1.61,10.57,1.19,10.66-6.77,0-1.36,2.17-1.31,3.42-1.17C388.21,78.3,393,76.59,398,76c4.13,1.42.34,6.06,3.24,8a13.35,13.35,0,0,1-.2,9.93c-6.74,1.26-13.82.1-20.35,3.28-4.19,2-8.09,4.1-10.15,9a23.25,23.25,0,0,0,13.59,2.44c2.25-.29,4.93-1,6.13,2.1a19.92,19.92,0,0,1-24.46,5.53c-7.83-1.44-8.89-3.52-5.17-10.15,0.51-.91,1.43-1.66.66-2.82-2-3-4.89.21-8.3-1.3,8.17-2.2,8.38-10.07,12.82-14.64Z" transform="translate(-107.32 -65)"/><path class="cls-119" d="M402.7,104.94l1.6,1.64c4.71,3.09,3.15,6-.43,8.54-2.1,1.53-5,1.75-6.76,3.9-4.6,4.5-10.86,3.62-16.4,5.09a88.87,88.87,0,0,1-15.37,3.15,11.3,11.3,0,0,1-2.41-.23c-2.32-.85-4.5-1.87-5.23-4.56,1.29-2.67,4-3.33,6.35-4.6,12.85-.59,25.58-1.54,35.14-11.88C400.13,105,401.22,104.29,402.7,104.94Z" transform="translate(-107.32 -65)"/><path class="cls-120" d="M402.7,104.94c-3.58,9-12.06,9.29-19.69,11.35-4.8,1.3-10,1.29-14.26,4.64-3.38,2.64-4.65.34-4.7-3l1.75-1.69c8.59,0,17.29.35,24.08-6.42,5.68-3.87,6.86-10.46,9.67-16.07,2.8-2.88,1-6.55,1.69-9.79C402.06,90.91,406.94,97.61,402.7,104.94Z" transform="translate(-107.32 -65)"/><path class="cls-121" d="M357.7,122.49l4.93,3.12c-1.54,3.37-5,3.21-7.8,4.2A32.72,32.72,0,0,0,344,137c-1.34,1.42-2.69,3.4-5.17,1.79,0.73-4.14,4.13-6.57,6.26-9.81C348.53,125.3,352.87,123.41,357.7,122.49Z" transform="translate(-107.32 -65)"/><path class="cls-122" d="M338.87,138.82c6.09-1.85,8.93-9,15.79-9.63q0.81,0.49.54,1a0.74,0.74,0,0,1-.54.5c-16.46,8.26-18.93,23.3-19.34,39.48a43.53,43.53,0,0,1-9.4,26.47q-0.16-1.83-.33-3.66c3.26-11.27,5.75-22.55,5.17-34.5C330.39,151,335.19,145,338.87,138.82Z" transform="translate(-107.32 -65)"/><path class="cls-123" d="M396.19,117.69c0.34-3.33,3.13-2.84,5.28-3.48,4.25-1.26,5.32-3.82,2.82-7.63,6.86-1.87,6.8,6.31,11.34,7.81l1.18,0.26c8.42,7.78,14.48,17.41,20.67,26.89a13,13,0,0,1,1.6,9.23,13.77,13.77,0,0,0,2,9.88c2.61,4.19,2.38,8-1.87,11.12-2.78,2-6.13,2.94-9.42,4.51,1.87,0.56,3.48.06,5.08,0.22,2.4,0,4.82-.1,7.11.68,4.15,1.41,8.27,3.35,8.32,8.4,0.05,5.27-5,4.42-8.19,5.78-5,1.22-10.47.43-14.95,3.69-3.19,3.62-1.17,5.12,2.45,5.42,4.43,0.37,8.86.35,13.17-1.26a28.2,28.2,0,0,1,10-1.86c4.47,0.58,7.14-1.15,9.27-5.37,2.73-5.42,6.7-5.35,10.22-.3,3.23,4.62,3.74,10.38,6,15.41-2.27,13,.84,25.93-0.2,38.88-1.37,3-3.21,2.22-4.87.4-4.13-4.53-8-4.84-11.74.4-0.9,1.24-2.2,1.33-3.38.13a8.43,8.43,0,0,1-.38-7.68c2.1-5.61,2.11-11.42,2-17.27-0.16-11.37-3-13.87-14.54-12.88a74.78,74.78,0,0,1-8.23,1.49c-3.46-.47-6.85.56-10.29,0.52-4.89-1.4-9.52,2.76-14.45.72-5.26-3-6.2-8-6.07-13.41,0.2-5.1,1.9-9.93,2.68-14.93s4-8.15,8.55-9.69c4.81-1.62,6.07-4.39,4.47-9.18-2.86-8.53-2.56-17.32-1.38-26.12,1.48-11-6.27-19.61-17.6-19.4C400.49,119.13,398.06,119.91,396.19,117.69Z" transform="translate(-107.32 -65)"/><path class="cls-124" d="M420.4,109.64c4.45,1.9,12.42-.26,9.09,10-1.09,3.35,5,6.64,8.44,9.41,6.57,5,12.11,11.07,17.64,17.13,2.17,2.37,4.22,5,2.12,8.48-8-2.21-12.28-9-17.6-14.43-8.26-8.45-15.91-17.5-24.47-25.68l0-.13c0.4-3.85-4.06-7-1.6-11.13C419,102.52,418.27,107.52,420.4,109.64Z" transform="translate(-107.32 -65)"/><path class="cls-76" d="M420.4,109.64c-3.39-.86-3.15-5.34-6.36-6.38v0c0.78-5.3-4.39-9.14-3.53-14.45q0-1.5,0-3c-0.24-4.89,2.9-5.3,6.6-5-0.73,7.83-.16,15.5,3.33,22.68C421.55,105.73,420.39,107.62,420.4,109.64Z" transform="translate(-107.32 -65)"/><path class="cls-124" d="M410.52,88.82c0,5.1,8.38,8.16,3.53,14.45-3.57-3.09-2.15-9-6.66-11.78C406.8,91.14,409.34,89.67,410.52,88.82Z" transform="translate(-107.32 -65)"/><path class="cls-125" d="M492.24,142.11c2.58,5-1.13,10.84,2.15,15.73l-2.15,4.8c-3.83-6.82-3-13.91-1.18-21Z" transform="translate(-107.32 -65)"/><path class="cls-126" d="M364.23,126l15.94-3.5c6.16,1.74,12-.64,17.92-1.49,11.08-1.59,19.86,8.79,14.78,18.67-5.54,10.77-7.52,21.43-5,33.14a11.48,11.48,0,0,1-.65,7.09c-3.44,7.5-2.61,15.05-.76,22.68,0.74,2.72,1.23,5.52,2.73,8,2,4.09,1.77,8.7,3,13,0.56,8.57-2.77,15.17-10.06,19.75-3,.29-6.37,1.74-7.56-2.79,1.52-1.05,3.07-2.06,4.55-3.16,9.61-7.14,9.14-26.78-.51-33.57-3.29-2.31-5.31-2.31-8.06.6-4.69,5-8.42,10.89-14.43,14.58-2.31,1.41-3.37,5.27-7.12,3.79s-4.25-5.27-4.63-8.58c-0.28-2.52,1.16-5.59-3.41-5l-1.79-1.41c1.11-1.64,2.81-2.1,4.62-2.32a80,80,0,0,1,8.82-.21A11.72,11.72,0,0,0,382.94,202c4.52-3.85,3.48-9.21,3.45-14.07,0-3.83-3.48-4.66-6.67-5.65-6.62-2.06-13.82.13-20.24-3a1.6,1.6,0,0,1-.06-2.08l3.16-.1a15.57,15.57,0,0,1,6.7-2.35,13.47,13.47,0,0,0,11.33-8.9,81.3,81.3,0,0,1,11.22-19.2,17.18,17.18,0,0,0,3.25-6.34c1.63-6.74-1-10.71-7.86-10.26-7.29.47-14.17-1.93-21.33-1.94C364.58,128.07,364.06,127.28,364.23,126Z" transform="translate(-107.32 -65)"/><path class="cls-127" d="M364.23,126c7.14,2.58,14.55,1.29,21.85,1.45,3.94,0.09,8.5-1.1,10.67,3.33,2,4.15,2.38,9-.29,13-5.68,8.32-11.19,16.58-15.25,26-3.33,7.7-11.16,8.05-18.65,7.38,0.47-1.49,1.81-3.67,1.26-4.35-5.8-7.27.26-10.91,4.49-14.85,3.58-3.33,5.88-7.41,8.33-11.48,2.18-3.61,5.69-7.25,2-11.36-3.51-4-8-7.28-13.89-5.78a35.61,35.61,0,0,1-10.14,1.42,10.62,10.62,0,0,1,0-1.48c2.51-1.51,4.94-3.22,8-3.57Z" transform="translate(-107.32 -65)"/><path class="cls-128" d="M353,207.54c0.74,0.76,2.22,1.7,2.09,2.27-2.5,10.93,4.1,23.16-4.73,33.16-2.19,2.48-4.77,4.71-8.14,4.38-4-.39-3.28-4.08-3.83-6.88-1-5.2-3-10.15-3.08-15.6-0.08-12.94-.17-12.94,11.32-17C348.6,205.72,350.73,205.67,353,207.54Z" transform="translate(-107.32 -65)"/><path class="cls-127" d="M359.41,177.18q0,0.75,0,1.51c-0.67,2.54,1.05,3.63,2.7,5,6.69,5.74,6.48,8.24-.87,13.72-7.78,0-11.44,7.32-17.67,10.06-5.92-3.85-.78-6.6,1.48-8.32,5.1-3.86,8.57-6.94.7-11.4-3-1.68-2.09-3.95.08-5.74C349.72,178.79,353.91,176.11,359.41,177.18Z" transform="translate(-107.32 -65)"/><path class="cls-129" d="M343.53,207.5c4.57-5.55,8.5-12.07,17.18-11.46l0.69,0.86c-0.64,3.57-3.3,4.69-6.1,5.65,9.14-2.17,9.14-2.17,9.08,5l-5.17.29c-2.1.12-4.06-2.79-6.26-.26l-6.36.34Z" transform="translate(-107.32 -65)"/><path class="cls-130" d="M335.27,374.62c-2.61-1.28-4.94-2.1-3.61-6.3,1.47-4.66,1.48-9.77,2.12-14.69a5.82,5.82,0,0,1,1.38-4.41c1-.46-0.1.15,0.53-0.57,2.87-3.27,9.24.88,10.26-3.68,1.29-5.76.43-12-1.12-17.87-0.39-1.49-1.33-2.84-1.69-4.4-0.81-3.75-.31-7.68-1.59-11.37-0.36-3.66-1.35-7.45,2.16-10.29,1.63-1.44,1.21-3.41,1.38-5.23,2-1.72,2.83-5,6.31-4.8,5.65-.09,4.74,4.92,6.29,8-0.12,17.78,6.49,33.7,13.38,49.63,2.78,6.43,5.54,12,13.48,12.58,1.42,4.54,2.32,9-1.17,13.13l-3.14,4.9c-3.75-2.51-7.49-3.68-12.11-1.79-3.41,1.4-7.35.68-11.06,0.91a50.09,50.09,0,0,1-8.7-.37,8.22,8.22,0,0,1-3.39-1.89Z" transform="translate(-107.32 -65)"/><path class="cls-131" d="M394.6,240.52c1.67,2.14,4.61.92,6.51,2.45,1.84-.27,3.85-0.51,5-2,3.57-4.53,8.16-5.36,13.5-3.56,0.52-3.22-1.77-3.46-3.14-4.31-3.65-2.28-5.36-5.41-3.12-9.29,2.54-4.4,6.2-2.74,9.59-.83a23.73,23.73,0,0,1,3.2,2.32c3.57,5,6.34,10.6,10.65,15.1,2.53,3.8,6.19,6.54,9.15,9.93,2,2.25,4.14,4.9,2.57,7.83-5.34,9.94-10.62,20-18.07,28.56-3,3.49-7.51,3.69-11.46.42-1.89-3.28.87-4.7,2.68-6.35,3.09-2.79,6.3-5.45,8.48-9.07,1.49-2.18,3.44-4.12,3.62-7-3.64-4.2-5.53.36-8.08,1.6-2.37,1.85-5.1,1.46-7.8,1.33a86.87,86.87,0,0,1-22.09,1.15,12.52,12.52,0,0,1-5.54.86c-3,.16-7-5-8.92,1.49,0.9,2.11,4.41,3.76,1.14,6.57-10.89,1.59-20.94-9.78-17.92-20.46,1.07-3.8,2.78-7.41,4-11.2a18,18,0,0,1,4.43-7.23c4.4-4.15,6.73-3.51,8.92,2.38C386.46,247,390.36,240.79,394.6,240.52Z" transform="translate(-107.32 -65)"/><path class="cls-132" d="M381.87,241.26c-4.25-5.31-6.12-4.5-11.27,4.85-2.62,3.15-2.71,7.63-5.58,10.66-3.59,8.25-1.35,18.67,5.26,24.22,3.43,2.88,6.95,1.26,10.54.22,3.82-1.11,8-3.86,11,1.53-2.52,3.37-6.72,3.94-10.05,6-4.93,3-8,6.06-3.7,11.86a4.68,4.68,0,0,1,.66,5.21c-3.84,1.71-6-1.33-8-3.38-4.37-4.47-9.06-5.94-14.84-3.29-2.25-2.28-.51-6.79-4.52-8.1a24.18,24.18,0,0,0-10.47-9.11,4.94,4.94,0,0,1,.82-1.37c12.5,2.35,11.54,2.36,11.52-10.9,0-15.19,8.12-27.6,17.95-38.52,3.19-3.54,10.6-.69,12.27,3.81a1,1,0,0,1,.33,1.06,0.66,0.66,0,0,1-.38.51C381.66,237.67,381.9,239.51,381.87,241.26Z" transform="translate(-107.32 -65)"/><path class="cls-133" d="M383.41,236.47q0-.78.06-1.57c2.24-3.11,4.16-6.66,2.59-10.32-2.35-5.51.6-8.6,4.16-11.63,4.46-3.79,7.77-2.45,10,2.59,3.9,8.94,2.74,12.28-5.8,18-1.73,1.16-3,2.95-4.59,4.36C387,240.37,384.68,240.81,383.41,236.47Z" transform="translate(-107.32 -65)"/><path class="cls-134" d="M343.7,301l-0.12,10.81c-1.65,4-3.34,2.76-5,0-6.65-.31-10.11-2.65-7.08-10,0.53-1.29-.79-3.5-2.75-4.29l-1-1.6,4.38,0C334.52,300.88,341.61,295.26,343.7,301Z" transform="translate(-107.32 -65)"/><path class="cls-135" d="M550.2,382.63c-3.41,2.93-7.54.79-11.25,1.6l-1.46-.17a1.72,1.72,0,0,1-.13-2.06c6.13-5.81,6.16-13.82,6.48-21.16,0.35-8.23-6.76-6.59-12-6.85-3.75-3-5.43-7.25-6.77-11.53-2.09-6.68.17-8.89,7.43-7.83,3.27,1.76,5.82,4.57,9.16,6.25a10.4,10.4,0,0,1,5.87,9.27c-0.18-1.08-.66-4.07-1.07-7.08,0.5-4-1.66-10.9,2.82-11.11,4.85-.23,4.11,6.86,5,11.08,2.11,10.54,1.31,21.3,2.4,31.93,0.23,2.27.61,5.55-2.48,5.85-2.83.28-3.73-2.48-3.82-5.11C550.11,378,550.92,380.34,550.2,382.63Z" transform="translate(-107.32 -65)"/><path class="cls-100" d="M537.6,382.47q-0.1.79-.11,1.59l-11.21.09,1.3-3.06,0.43-.35a4.42,4.42,0,0,1,6.87-.93A6.88,6.88,0,0,1,537.6,382.47Z" transform="translate(-107.32 -65)"/><path class="cls-136" d="M511.7,332.71c-1.12-3.51-2-7.13-3.4-10.51-2.61-6.19-1.17-10.72,4.81-13.8,3.7-.59,4.52,2.67,6.29,4.67,1.14,2.14,2,4.33,1.26,6.82-4.14,3.35-6.36,7.31-4.38,12.83a3,3,0,0,1-1.45,3.38,9.36,9.36,0,0,0-1.26-.55Z" transform="translate(-107.32 -65)"/><path class="cls-137" d="M514.81,336.12c-0.19-1.54,0-3.28-.63-4.59-3.19-6.39-1.36-10.23,5.52-11.81,3.93,2.73,4.37,7.3,5.94,11.27-2.11,5.54-2.95,11.15-1,16.94,0.43,2.52.52,5-1.07,7.21a2.57,2.57,0,0,1-3.5.09c-1-5.68-.89-11.68-5.19-16.29Q514.87,337.53,514.81,336.12Z" transform="translate(-107.32 -65)"/><path class="cls-138" d="M520.12,355.24l2.57,0c6.8,6.67,9.16,15,8.81,24.24-0.7,1.72-2.06,1.57-3.49,1.22C526.67,371.84,522.2,363.91,520.12,355.24Z" transform="translate(-107.32 -65)"/><path class="cls-139" d="M517.79,313.73l-4.69-5.31c-2.28-7-7.37-11.36-13.79-14.41-9.63-2.69-19.41-5.06-27-12.21-1.88-7.31,3.1-14,2-21.2,0-1.64,0-3.27,0-4.91a15.93,15.93,0,0,1,.9-4.91c0.53-9.55,7.86-14.7,13.49-21,1.22-1.36,2.2-2.93,4.1-3.47,9.12,4.76,16.92,10.76,19.82,21.32,0.49,1.79.88,3.91,2.25,5,9.3,7.62,6.91,18.17,7.06,28,0.07,4.51-.15,8.76,1.67,13.18C526.16,300,522.54,310.83,517.79,313.73Z" transform="translate(-107.32 -65)"/><path class="cls-140" d="M490.6,324.39c-1.76,4.57-5.64,7.17-9.27,10-8,7.74-19.13,8.45-28.67,12.7-6.26,2.79-9.72-2.39-13.3-6.23s-3.32-8.21-.28-12.31c3.16-4.26,7-8,9.68-12.64,0.89-1.54,2.89-3.19,1.54-5-1.62-2.13-3.9-.55-5.81.16-2.24.83-4.28,2.15-6.55,2.91-2.57.86-5.2,1.65-7-1.39-0.54-2.77,1.07-4.51,2.93-6.12a11.66,11.66,0,0,1,2-1.18c9.06-4.21,15.08-12,22.17-18.62,2.59-2.4,4.52-6,8.94-5.58a4.28,4.28,0,0,1,1,2c0.18,2.26-.47,4.47-0.49,6.71,0.75,4.62-2.15,9.14-.34,13.77C473.55,312.13,483.59,316.55,490.6,324.39Z" transform="translate(-107.32 -65)"/><path class="cls-141" d="M431.51,311.79c2.44,3.12,4.79.78,7.09-.19,3.18-1.35,6.22-3.07,9.46-4.25a5.43,5.43,0,0,1,5.87,1.65c1.63,1.84-.19,3.47-1.2,4.9-3.38,4.76-6.26,9.84-10.51,14-2.95,2.9-6.45,6.56-2,10.92,4.05,4,7.37,10.93,14.87,5,2.82-2.24,6.09-3.65,9.67-3,7,1.3,10-7,16.6-6.45-7.5,8.34-16.8,13.89-27.27,17.63-10.6,7.16-20.66,5.41-27.09-5-3.79-6.14-9.64-9.77-15.24-13.81-3.92-2.83-7.92-5.73-6.41-11.61C414.09,318.45,422.58,314.54,431.51,311.79Z" transform="translate(-107.32 -65)"/><path class="cls-142" d="M405.93,321.55c1.07,10.07,11.79,10.71,16.72,17,1.1,1.41,3.77,2,4.23,3.45,4.8,15.21,16,12.54,27.18,10l-1.6,3.1c-1.71,3.38-4.78,4.62-8.23,5.29-15.1.62-27.21-7.62-38.29-15.67-7-5.06-10-15.29-13.6-23.84-0.53-1.27.3-2.55,1.49-3.39a6.5,6.5,0,0,1,3.68-.54C400.64,317.89,404,318.38,405.93,321.55Z" transform="translate(-107.32 -65)"/><path class="cls-143" d="M444.48,358.48l8-3.35c3.08,0.07,5.88.62,6.3,4.42,0.4,3.62-.41,7.58-3.48,9.08-8.65,4.23-6.65,10.58-4.43,17.26l-4.73-.31,0,0.05c-1.44-1.25-3.63-.93-5-2.09-6.6-5.62-13.06-6.41-19.53.13a4.35,4.35,0,0,1-4.28-1.13c2.19-2.23,2.81-5.05,3-8-1.78-4.32,1.62-5.78,4.22-5.26,6.33,1.25,9.34-2.35,12.27-6.67C438.67,360,441.88,359.8,444.48,358.48Z" transform="translate(-107.32 -65)"/><path class="cls-144" d="M465.33,289.46c-0.4-2.39.48-4.46,1.58-6.47,2.09-1.6,3.86-.65,5.57.7a71,71,0,0,1,13.78,11.67c3,3.09,5.66,5.27,10.28,6.2,5.85,1.18,2.92,6.4,2.35,10.19l-4.83,7.86c-5.79-7.59-14.35-12.31-20.37-19.76C470.9,296.39,467.63,293.32,465.33,289.46Z" transform="translate(-107.32 -65)"/><path class="cls-145" d="M490.6,324.39c-10-4.28-17.29-12.1-25.26-19-1.07-2-1.84-4.31,1.19-4.75,6.11-.88,24.79,13.34,26.33,19.67Z" transform="translate(-107.32 -65)"/><path class="cls-146" d="M492.86,320.27c-6.38-9.56-16.65-13.51-26.47-18-1.31-.6-0.76,1.95-1,3-3.61-5.29,1.56-10.6,0-15.89,10,7.3,16.92,18,27.18,25,1.67,1.14,1.63,3.25,1.55,5.15A2.54,2.54,0,0,1,492.86,320.27Z" transform="translate(-107.32 -65)"/><path class="cls-147" d="M498.89,311.74c-0.05-4.7,1.88-10.11-7.14-8.32-5.45,1.08-5.46-7.41-10.43-9.65-3.8-1.72-6.48-5.9-9.66-9,12.58-.08,26.28,8.89,29.14,19.08C500.26,306.52,501.61,309.62,498.89,311.74Z" transform="translate(-107.32 -65)"/><path class="cls-148" d="M500.79,303.87c-6.34-11.51-17.46-15.72-29.14-19.08l-4.75-1.8q0-.76-0.1-1.52A4,4,0,0,1,470,280a3.3,3.3,0,0,1,2.94,1.83c8.56,4.54,18.58,5.94,26.35,12.18-2.1,1.93-.44,3.44.81,4.6C501.94,300.3,502.86,301.81,500.79,303.87Z" transform="translate(-107.32 -65)"/><path class="cls-149" d="M444.48,358.48L438,363.19c-5.67,3.63-11,2.6-16.22-1.07a29.58,29.58,0,0,0-3.94-2.66c-4-1.93-8.3-3.14-12.11-.6-3.57,2.38-1,6.32-.91,9.59,0.26,6.77,5.53,12,5.75,18.81l-1.48,4.88-0.92.81c-6,.91-7.33-3.83-9.38-7.71C391.4,371.47,385.72,357,380,342.46a37.39,37.39,0,0,0-7.17-11.36,4,4,0,0,1-1-3.21c3-4,5.6-.8,8.25.48,2.37,1.14,4.68,1.67,6.36-.85s1.1-5.23-1.21-7.12c-3.71-3-8.09-5.12-11.85-8.08-1.89-1.48-4.37-3.26-3.12-5.81,1.56-3.2,4.14-.65,6.22,0a38.71,38.71,0,0,1,8.65,4,61.92,61.92,0,0,0,8.5,5c0.91,0.73,1.64,1.54,1.1,2.83-2,5.42,3.09,8.3,4.82,12.19C408.07,349.71,425.56,355.44,444.48,358.48Z" transform="translate(-107.32 -65)"/><path class="cls-150" d="M410.6,387.25c-6-7.19-7.93-15.89-9.32-24.78-0.69-4.39.79-7.13,5.83-7.28,6-.19,11.65.07,16,5.11,4.17,4.88,9.9,2.33,15,2.9-2.91,4.93-4.55,11.66-13,7.6-2.28-1.09-4.35.92-4.71,3.73C414.91,377.13,414.92,383.84,410.6,387.25Z" transform="translate(-107.32 -65)"/><path class="cls-98" d="M422.17,382.24c8-8.09,13.38-7.33,23.92,3.41-3.18.19-4.84,3-5.57,5-2.84,8-10.05,6.34-15.68,7.42-3.9.75-1.78-2.47-1.25-4.23C424.67,389.79,423.75,386,422.17,382.24Z" transform="translate(-107.32 -65)"/><path class="cls-151" d="M422.17,382.24c6.17,3.18,6.15,7.11,1.41,11.62-9.77-.71-11.4-3.63-6.29-11.29Z" transform="translate(-107.32 -65)"/><path class="cls-56" d="M413.91,405l-6.13-9.86c-1.36-1.81.61-2.16,1.35-3.05h0C409.67,396.82,418.58,398.41,413.91,405Z" transform="translate(-107.32 -65)"/><path class="cls-152" d="M348.25,376.31l9.64,0c9.58-.76,17.5,3.61,25.35,8.19,4.59,2.74,9.28,5.34,12.9,9.4,2.43,4.34.54,6.62-3.67,5.25-5.91-1.92-12.53-1.71-17.66-6.34-3.61-3.25-8.66-3.38-13.4-4C353.81,387.75,348.37,382.39,348.25,376.31Z" transform="translate(-107.32 -65)"/><path class="cls-153" d="M348.25,376.31c2.89,6.62,8.29,10,15.14,10.87a34.09,34.09,0,0,1,15.37,5.66c4.4,3,10.33,2.19,15.22,4.84,2.27,1.23,2.07-2.09,2.16-3.82,5.93,4.11,2.77,6.94-1.82,7.67-6,1-12.5,1.13-17.19-4s-10.64-6.44-17.17-7.08c-7-.7-13.59-7.35-15-14.29Z" transform="translate(-107.32 -65)"/><path class="cls-104" d="M409.13,392.12l-1.35,3.06c-9.15-2.65-14.91-10.59-23-14.87-2.07-1.09-1.1-3.88-1.36-5.93q-0.15-7.1-.3-14.19l0.94-.59a5.42,5.42,0,0,1,5,5.24c0.16,9,6.54,13.81,12,19.3C402,388.52,403.42,392.51,409.13,392.12Z" transform="translate(-107.32 -65)"/><path class="cls-154" d="M383.23,384.46a1.6,1.6,0,0,1-.53.56c-8.73-1.61-15.59-8.53-24.81-8.76,4.41-.81,9.1.06,13.3-2,5.43-2.61,9-2.17,9,5Z" transform="translate(-107.32 -65)"/><path class="cls-155" d="M338.54,311.89c1.68,0.58,3.38,2.5,5,0,2.57,3.51,1.42,7.43,1.27,11.25,0.8,10.49-6.38,18.21-9.48,27.34l-1.59,3.19c-2.83-2.2-3.23-5.28-3.29-8.58-0.13-6.63,0-13.19-1.2-19.85S333.62,315.09,338.54,311.89Z" transform="translate(-107.32 -65)"/><path class="cls-156" d="M614.73,377.64c-3.45.54-6.84-2.35-10.54,0.77-2.76,2.33-3.6-1-4.71-3.17-1.82-3.55-.13-6.71.44-10,0.05-.37.1-0.74,0.15-1.12,2.34-5.13,3.48-10.8,6.9-15.47,4.11-4.83,8.36-6.59,12.92-.53,1.82,5-3.41,10.22.5,15.16,0.46,2.39-.36,4.56-1.17,6.73C617.84,372.61,618.13,376.21,614.73,377.64Z" transform="translate(-107.32 -65)"/><path class="cls-157" d="M593.13,363.06l0.7-7.93c-0.6-3.47.05-6.43,3.36-8.31,8,3.29,8.31,5.08,3,17.53a2.57,2.57,0,0,1-.32.85c-0.86-.56-1.94-1.52-2.74-0.45C593.33,369.93,593.82,365.16,593.13,363.06Z" transform="translate(-107.32 -65)"/><path class="cls-158" d="M614.73,377.64l2.7-8.05c4.5-.2,4,4.11,5.7,6.38a1.94,1.94,0,0,1-.89,2.05l-1.65,2.71C618.26,380.4,614.87,382.09,614.73,377.64Z" transform="translate(-107.32 -65)"/><path class="cls-157" d="M592.21,355.21l-2.07,8c-6.35.11-5.39,8.46-10.83,9.59-3-4.11-.41-7.66,1.11-11.32,1.7-3.24,3.51-6.43,5.15-9.7a7.73,7.73,0,0,0-.78-8.79c0.71-6,3.63-11.33,5-17.14,0.58-3.33,1.61-6.86,5.62-6.56,4.35,0.33,4.14,4.3,4,7.49-0.31,5.84.77,11.78-1.15,17.5C592.93,346.12,595.06,352,592.21,355.21Z" transform="translate(-107.32 -65)"/><path class="cls-159" d="M577.26,382.16l-7.55.21a11.13,11.13,0,0,1-1.68-2.14c-2.68-12.7-5.85-25.34-4.43-38.52a2.16,2.16,0,0,1,3.31-.73c2.63,2.33,3.79,5.42,4.5,8.74,0,4.2,1.92,8.18,1.52,12.44-0.06.37-.13,0.75-0.2,1.12A98.53,98.53,0,0,0,577.26,382.16Z" transform="translate(-107.32 -65)"/><path class="cls-160" d="M582.38,361.88c-1.62,3.48-3.11,7-3.07,11-4.52-1.58-2.79-7.47-6.58-9.55l-0.07-.24c-1.09-1.69-.58-3.61-0.72-5.42-0.33-4,.66-8.07,4.86-8.77,4-.66,5.67,3.08,6.67,6.57C583,357.56,583.73,359.89,582.38,361.88Z" transform="translate(-107.32 -65)"/><path class="cls-161" d="M569.7,380.93q0,0.72,0,1.45l-19.5.25c-3.37-4.63-.51-9.68-0.59-14.65l3.85,12.65c1.55-7.68-1.11-38.38-4.31-49.39l-0.75,12.93c-3.74-1-3.46-4.23-3.64-6.94-0.47-7.06-.07-14.07,2.27-20.85,4.19-6.55,9.43-2.86,14.45-1.48,3.69,4.57,4.61,9.6,2.44,15.12-2.94,2.17-3.15,5.35-3.08,8.59,0.24,10.4,1.68,20.72,2.34,31.09C563.5,374.6,565.48,378.37,569.7,380.93Z" transform="translate(-107.32 -65)"/><path class="cls-113" d="M592.21,355.21c-1-3.69.57-7.16,1.62-10.4,0.92-2.84,1.78.82,2.89,0.89a0.85,0.85,0,0,1,.49.89,0.56,0.56,0,0,1-.29.52c-1,2.68-.95,5.77-3.1,8Z" transform="translate(-107.32 -65)"/><path class="cls-162" d="M642.11,339.3c5.47-.94,2.4,3.27,3.12,5.19-3.52,11.2-10.17,21.11-13.41,32.44a3.86,3.86,0,0,1-3,2.43c-1.74,1-3.16,1.12-3.5-1.4a4.93,4.93,0,0,1-.36-4.59c3.64-10,8.43-19.49,12.15-29.45C637.93,341.72,639.28,339.57,642.11,339.3Z" transform="translate(-107.32 -65)"/><path class="cls-163" d="M628.83,379.36c4.37-12.14,8.61-24.34,16.4-34.87,3.44,6.39-1.63,11-3.59,16.17-0.71,1.88-2.81,3.2-2.84,5.54-1,4.84-2.68,9.38-6.41,12.87C631.31,380.43,630.16,381,628.83,379.36Z" transform="translate(-107.32 -65)"/><path class="cls-164" d="M642.11,339.3L625.33,378c-1-.17-2,4.8-3.09.06,0-.63.08-1.26,0.12-1.89-0.93-1.86-.38-3.69.38-5.36,5.34-11.7,8.16-24.57,16.11-35.07,2.61-.23,2.11,1.75,2.3,3.24Q641.63,339.1,642.11,339.3Z" transform="translate(-107.32 -65)"/><path class="cls-165" d="M632.39,379.07c1.68-4.52,1.89-9.77,6.41-12.87,6,2.58,6.33,5.54,1.09,11C637.72,379.16,635.06,379.15,632.39,379.07Z" transform="translate(-107.32 -65)"/><path class="cls-166" d="M649.65,320c3.44,4.17-.91,8.35,0,12.52-1.1,4.45-5.42,4.61-8.52,6.4l-1.26-3.33c-1.82-3.79.49-6.71,2-9.82C644.06,323.29,645.08,319.25,649.65,320Z" transform="translate(-107.32 -65)"/><path class="cls-125" d="M471.71,135.41c5.76,2.13,4.59,7.84,5.92,12.07,3.25,10.3,12.46,17.35,14.85,28,1.31,4.12,1.91,8.54,0,12.33-4.13,8-10.61,7.42-16.79-1.15-2.47-6.85-9.36-11.18-10.74-18.67-3.46-7.67-5-16.25-10.72-22.87-1.19-1.37-2.69-2.72-1.81-4.9l-1.19-10.13c9.06,3.39,12.18,15,23.22,15.72C473.45,142.24,470.72,139.18,471.71,135.41Z" transform="translate(-107.32 -65)"/><path class="cls-167" d="M452.39,140.23a74.92,74.92,0,0,1,14.41,27.29c-6.38-.17-5.85-6.78-9.17-9.81-0.59-1-1.07-2-.4-3.11-0.4-7.13-6.59-10.55-10.18-15.6-2.59-3.65-6.06-6.68-9.14-10C444.64,130.32,446.81,137.48,452.39,140.23Z" transform="translate(-107.32 -65)"/><path class="cls-168" d="M476.54,185.12a4,4,0,0,0,.71.37c3.47,1,2.46,8.55,7.32,6.23s9.69-6,8-13a13.7,13.7,0,0,1,0-3.19q0.08-4.84.17-9.68c2.67,3.89,1.07,8.29,1.43,12.45,0.25,2.89-.49,5.91,1.64,8.42,3.23,7.73,2.79,8.43-5.15,9.29-2.69.29-5.29,1.05-5,4.8,0.11,1.51,0,3.47-2.07,3.65-1.75.15-2.87-1.25-3.61-2.71-1.81-3.57-2.75-7.46-4-11.23a10.29,10.29,0,0,1-.51-2.25A3.71,3.71,0,0,1,476.54,185.12Z" transform="translate(-107.32 -65)"/><path class="cls-169" d="M498.89,209.21l-0.29,2.12c0,5.9-.32,11.68-5.61,15.68-3.39,5.5-5.53,11.65-13.36,13.5-4,.94.25,7.53-3.09,10.49a2.48,2.48,0,0,1-.21-3.38c0.06-13.87-2.67-27.76.13-41.62a15.06,15.06,0,0,1-1-10.26c4-2.79,3.47,1.09,3.84,2.81,1.8,8.37,1,16.88,1,24.81,5.24-6.12,4.14-14.52,6.25-22,0.55-2-.37-4.7,2.43-5.12s5.37,1.49,5.07,4c-0.78,6.29,4,.53,5,2.62C498.2,204.92,496.09,207.05,498.89,209.21Z" transform="translate(-107.32 -65)"/><path class="cls-170" d="M498.93,202.79c-2.39-.18-2.81,2-3.89,3.33-3.89-1.51-.56-8.45-6.44-8.46-0.43,11.66-1.67,23-10.46,32.9,0-9.63.07-18.56,0-27.49,0-2.83.89-5.93-1.55-8.35-1.91-2.05-1.89-4.14-.13-6.27,3.86,4.15,3,10.45,7.42,16-1.5-9.23,1.61-12.25,9.57-9.79,2.12,0.65,2.25.23,2.32-7.95,4.88,0.46,5.11,3.82,4.62,7.53C500,197.09,499.41,199.93,498.93,202.79Z" transform="translate(-107.32 -65)"/><path class="cls-171" d="M399.55,93.72c0.31,7.48-.18,14.48-9.67,16.06a26.83,26.83,0,0,1-22.57-2.7C375,94.5,387.49,89.25,399.55,93.72Z" transform="translate(-107.32 -65)"/><path class="cls-172" d="M405.91,202.81c-4.3-6.74-5.05-13.78-1.49-21a17,17,0,0,0,1-11.66c-2.35-10.27-1.44-19.9,4.61-28.85,2.66-3.93,4.23-9,.66-12.51-3.17-3.1-5.85-7.67-13.11-5.43-4.73,1.46-12,5.72-17.42-.82,5-2.73,11.46-.64,16-4.82,8.1-2.63,15.19-.79,21.52,4.73,4,3.53,6.86,7.78,5.68,13.28-2.34,10.91-2.36,21.59,1.87,32.05,1.47,3.63-.33,6.31-3.37,6.76-9,1.33-11.44,7.09-11.94,15.05-0.21,3.38-1.59,6.69-2.44,10C407.11,200.73,406.9,202,405.91,202.81Z" transform="translate(-107.32 -65)"/><path class="cls-173" d="M405.93,321.55c-2.82-.76-5.81-1.07-8.11-3.17,2-2.45,4.79-1.78,7.43-1.78,7.25,0,12.63-4.11,17.28-8.82,3.33-3.38,4.25-7.47-1.74-10.06-5.06-2.19-9.15-6.48-15.19-6.61a4.87,4.87,0,0,1-4.8-3.68c-1.52-7.2-7-7-12.38-6.88a33.91,33.91,0,0,0-4,.16c-16.12,2.13-24.89-8.69-20.22-25,3-2.68,2.5-7.61,6.41-9.66-0.84,2.75-1.5,5.58-2.56,8.25-4.84,12.19,2.43,22.5,15.67,22.09,4.9-3.91,11-2,16.45-3.46,3.69-.32,7.37-0.58,11,0.53,5.69,2.31,7,7.27,7.55,12.65,7,2.69,10-.19,14.38-6.27,4.77-6.69,6.77-15,13.06-20.67,2.73-2.45.87-4.76-1.07-6.83-3.44-3.68-6.83-7.41-10.24-11.12a2.57,2.57,0,0,1,1.34-.78c3.35-.83,6.65,4.84,9.42,1a24,24,0,0,0,4.5-15.05c-0.16-4.13-2-7.68-4.05-11.17-1-2.46-3-4.73-1.63-7.69,11.31-4.07,16.93.2,17.86,11.8,0.79,9.83-2.85,18.81-3.4,28.3,0.06,0.36.11,0.72,0.18,1.08-0.51,4.72-.06,9.48-0.47,14.22-3.78,16.94-12.56,31.19-23.73,44.16l-3.33,4.62C424,317.58,415.78,321.76,405.93,321.55Z" transform="translate(-107.32 -65)"/><path class="cls-174" d="M476.42,188.46q0.06,3.13.13,6.27,0,5.64-.08,11.28c-4.1-3.35-2.72-9.05-5.61-13-1.31-1.79-2.46-3.87-4.83-3.56s-2.19,2.65-2.48,4.49c-1.1,7.1-6.53,5.59-11.19,5.59,2.11-8.85-5.44-6.53-9.53-8.22a4,4,0,0,1-1.64-1.47c1.54-3.22,8.4.79,7.43-4.69-0.81-4.56-5.43-6-9.89-6.39-1.84-.14-3.69-0.07-5.54-0.1,0.16-4.1,3.53-3.18,5.86-3.57,3.07-.5,6.28.16,9.9-0.74-3.3-3.58-8.3-.21-11-3.71,3.37-2.77,4.63-5.87,1-9.29-2.9-2.74-3.26-6.2-2.31-9.52,1.59-5.52-.62-9.85-3.57-13.94-5.71-7.89-11.66-15.59-17.51-23.38,10.38,5.24,17.24,14.69,24.8,22.78,5.48,5.87,12.31,10.52,16.83,17.3l1.61,1.67a57.87,57.87,0,0,0,11.41,20.33c3.07,3.43,3.81,8,6.15,11.81v0Z" transform="translate(-107.32 -65)"/><path class="cls-175" d="M434.84,307.17a18.77,18.77,0,0,1,5-10.54,55.62,55.62,0,0,0,14.48-29c0.35-1.94,1.95-3.65,3-5.47,1.82-4.66-.67-9.78,1.59-14.39l0,0c5.86-10.53,11-10.56,17.47-.07q0.1,1.69.2,3.38l-0.25,4.77c-6.89,22.09-23.59,36.55-39.9,51.31Z" transform="translate(-107.32 -65)"/><path class="cls-172" d="M444.41,207.61l3.22,6.38a7.32,7.32,0,0,1-6.6,2.21c-6.6-.68-11.3,2.08-14.76,7.44-1,.54-2.19.88-2.92,0-4.29-5.44-8.45-4.34-12.63.07-2.73-3.86-1.25-8.78-3.21-12.83a6.74,6.74,0,0,1,4.8,0c5,1.19,9.23-4.79,14.46-1.61,3.21,2.91,6.42.93,9.63,0A13.39,13.39,0,0,1,444.41,207.61Z" transform="translate(-107.32 -65)"/><path class="cls-176" d="M441.2,189.84a3.08,3.08,0,0,0,1.43.29c1.42,0.8,3.08.8,4.57,1.36,2.37,0.9,4.9,2.13,3.22,5-1.22,2.11-4.39,3.36-6.22,1.49-3.27-3.34-2.3.28-3.13,1.38-3.43,4.61-8.35,2.86-12.41,1.95-3.5-.79-5.69-3.88-3.27-8C430,189.45,435.67,189.84,441.2,189.84Z" transform="translate(-107.32 -65)"/><path class="cls-177" d="M438,170.64c4.49,0.52,9.3-2.59,13.53,1.25,1,0.87,2.33,1.42,2.13,3-0.26,2.1-2,2-3.55,2.24-5.62.7-11.51-1.63-16.9,1.55-2.92-.22-6,0.86-9.43-1.28C428.29,173.6,433.57,173,438,170.64Z" transform="translate(-107.32 -65)"/><path class="cls-178" d="M425.39,193.38c0.6,4.13,1.55,7.53,6.86,8.22,6,0.78,8-2.68,9.2-7.48,3,0.56,4.66,6,8.31,1.58-1.15-3.34-5.32-3-7.13-5.56a15.41,15.41,0,0,1,10,1.59c5.13,2.9,4.81,5.41-.31,7.82-8.09.41-15.59,4.78-24,3.42-2.43-.4-4.45-0.34-5.38-3.35S422,194.49,425.39,193.38Z" transform="translate(-107.32 -65)"/><path class="cls-173" d="M412.31,210.83a4.32,4.32,0,0,1-4.8,0c-2.62-2.26-1.23-5.31-1.6-8a3.43,3.43,0,0,1,1.61-3.22C407.63,204,409.75,207.49,412.31,210.83Z" transform="translate(-107.32 -65)"/><path class="cls-173" d="M436.4,209.22q-4.81,7.42-9.63,0C430,209.72,433.18,206.66,436.4,209.22Z" transform="translate(-107.32 -65)"/><path class="cls-129" d="M360.71,196c6.62-5.92,6.34-7.6-2-11.93-1.29-.67-3.55-0.48-3.4-2.54s2.19-2.64,4.07-2.89c7.71-.07,15.38.1,23,1.55,4.85,0.93,7.25,4.1,6.88,8.15-0.34,3.65-1,7.32-1.06,11s-1.89,4.71-5.23,3.37c-3.71-.24-5.41-5.19-9.7-4.07-4-.38-8.36.9-12-2Z" transform="translate(-107.32 -65)"/><path class="cls-173" d="M410.71,223.66c-0.38-4.06,2.11-5.72,5.56-6.24,4.84-.73,6.75,3,8.87,6.24a2.2,2.2,0,0,1,.07,3.18c-0.24-.11-0.48-0.24-0.73-0.33-3.22-1.22-6.42-7.48-9.75-1.74-3,5.13,2,6.31,6.07,7.53,3.14,0.94,3.32,4.21,2.4,6.78-1.23,3.47-3.61,1-5.19.19-4-2-7.25-1.26-9.75,2.38-2,2.91-4.17,4.09-7.15,1.33C406.23,237.49,411.06,231.86,410.71,223.66Z" transform="translate(-107.32 -65)"/><path class="cls-179" d="M361.31,196.79c4.67-.7,9.33-1.49,14-0.28,4.74,5.37,4.55,6.55-1.66,10.77l-9.3.23c-1.16-8.26-6.31-3.86-11.39-2.35C355.19,200.51,359.22,199.58,361.31,196.79Z" transform="translate(-107.32 -65)"/><path class="cls-180" d="M373.68,207.28c3-3.22,5-6.59,1.66-10.77,4.3,0,5.55,3.66,7.65,6.29C382,208.79,377.45,207.18,373.68,207.28Z" transform="translate(-107.32 -65)"/><path class="cls-181" d="M385,312c-5.09-.12-8.1-6-14.4-5,4.25,4.78,9.23,7.71,14.25,10.25,5.6,2.83,6.65,7.28,4,11.75-3,5-7.55,3.75-11.39.13-1.38-1.3-2.64-2.76-4.72-1.24-5.46-1.38-5.3-6.75-7.35-10.51-2.15-3.94-2.75-8.43-3.54-10.77,1.23,12.71,8.94,25.47,12.68,39.46,0.71,2.65.54-.27,1-0.31,4.93-.44,4.82,3.94,6.53,6.57,0.85,2.48,2.67,4.77,1.6,7.65l-0.53.22c-3.83,3.16-6.39,5-9.54-1.69-9-19-18.58-37.55-17.63-59.39,3.83-5.25,8-6,12.82-1.15,2.94,3,5.89,6,9.91,7.54C382,306.38,385.49,307.22,385,312Z" transform="translate(-107.32 -65)"/><path class="cls-182" d="M335.37,350.44c-1-10.56,7.57-17.8,9.48-27.34,5.91,6.75,2.19,15.36,4.22,22.92,0.5,1.85-2.21,4-5.27,3.16A10.2,10.2,0,0,0,335.37,350.44Z" transform="translate(-107.32 -65)"/><path class="cls-183" d="M425.21,226.84l-0.07-3.18c1.72-7.92,6.68-10.81,14.52-9.69,2.6,0.37,5.31,0,8,0,8,9.61,4.19,19.49.47,29.24-1.39,3.63-4.34,3.53-7.2,1.55-1.94-1.34-3.37-3.5-6.07-3.51A55.37,55.37,0,0,1,425.21,226.84Z" transform="translate(-107.32 -65)"/><path class="cls-184" d="M383.32,246.63c7.07,1,13.09,1.91,19.12,2.72,3.55,0.47,6.39,2.08,6.3,5.87-0.08,3.51-3.33,3.35-6,3.85a135.9,135.9,0,0,0-17.07,3.82c-4.27,1.38-7.05.3-9.91-2.73-2.54-2.7-.76-4.83.24-7.23C377.58,249.16,380.16,246.87,383.32,246.63Z" transform="translate(-107.32 -65)"/><path class="cls-185" d="M418.69,286.17l-3.63-.84c4.85-5-2.56-6.64-2.75-10.26a3.77,3.77,0,0,1,1.75-2.71c5.77-3.33,11.72-.06,17.57-0.47C429.94,279,422.69,281.13,418.69,286.17Z" transform="translate(-107.32 -65)"/><path class="cls-186" d="M431.63,271.89c-5.53,5-12-1.32-17.73,1.47a4.26,4.26,0,0,1-2.19-3.62c0.94-3.65,4.79-2.64,7-4.34,2.08-.75,4.27,1.71,6.31-0.23,3.73,3.18,7.55-3.18,11.28.11C435.32,267.91,434.17,270.39,431.63,271.89Z" transform="translate(-107.32 -65)"/><path class="cls-187" d="M399.57,274.66a55.39,55.39,0,0,1-15.87,1.79l-4.91-4.68c3.21-2.71,8.14.48,11.07-3.21,1.92,0.57,3.22-.78,4.71-1.52,1.48,0.22,2.12,1.31,2.64,2.53C397.84,271.33,400.11,272.35,399.57,274.66Z" transform="translate(-107.32 -65)"/><path class="cls-188" d="M396.37,270.11l-1.8-3.07c8-.54,16.16.33,24.1-1.64-1.42,2.66-4.8,2.37-6.64,4.39C406.89,274.21,401.65,273.16,396.37,270.11Z" transform="translate(-107.32 -65)"/><path class="cls-189" d="M389.85,268.56c-1.25,9.48-7.38,2.12-11.07,3.21-4.07-5,1.12-4.86,3.49-5.81C385.31,264.75,387.81,266.26,389.85,268.56Z" transform="translate(-107.32 -65)"/><path class="cls-190" d="M436.25,265.29c-1.86.09-3.44,0.39-4.81,2.08-3.86,4.77-5.46,2-6.47-2.19,1-4.29,4.16-4.66,7.78-4.39C435.7,261,437.16,262.17,436.25,265.29Z" transform="translate(-107.32 -65)"/><path class="cls-191" d="M364.19,255.76c0.29,3.69-.52,7.42.78,11.07,4,11.26,10.88,15.36,23.34,12.46,4.25-1,7.79-.1,11.64.58,1.59,0.28,3.88.87,3.23,2.64-3.23,8.86,3.69,5.67,7.5,7.14a74.61,74.61,0,0,1,16.77,9c2.85,2.06-2.16,11.65-6.81,14.57-7.06,4.42-14.33,7.29-22.81,5.13l-3.13-.08L393,316.59c-1.71-5.3,2.93-4.56,5.45-5.44,5-1.73,6.82-4,2.62-8.49-5.2-5.55-4.74-13.91-9.61-19.66-3.19-2.94-6.34-1.31-9.58,0-10.18,4-11.32,3.24-16.9-6.07C360.69,269.73,356.38,263.14,364.19,255.76Z" transform="translate(-107.32 -65)"/><path class="cls-192" d="M391.48,283c3.76,3.1,8.54,5.23,7.14,11.9-0.54,2.58,2.57,5,4.63,7.16,5.05,5.29,4,8.59-3.14,11-2.48.85-6.35-.92-7.09,3.49-3.34-.41-6.18-1.67-8-4.64-0.93-3.31-5.29-3.27-6.34-6.47-7.11-13.29-5.71-16.76,8.94-22A18.33,18.33,0,0,1,391.48,283Z" transform="translate(-107.32 -65)"/><path class="cls-193" d="M493,227c2.51-5,2.3-11,5.61-15.68,2,2.33,3.86,4.78,6.84,6,3.76,1.48,7.53,3,8.13,7.76,1.5,3.78,4.71,6,7.74,8.36,2.55,5.67,4.38,11.75,9.27,16.07a13.21,13.21,0,0,1,3.93,5.46c1.36,4.8,5.5,7.89,7.57,12.26,1.23,4.32,6.13,7.64,3.62,13-2.41,1.35-4.48,1.17-5.05.24,7.22,6.89,7.71,18.11,9.68,28.8a7.88,7.88,0,0,1-1.59,5.94c-0.47,9.66-4.28,19.28-.33,29q0,4.58,0,9.17c-0.66-10.12-12-10.4-15.88-17.32-2.67-1.61-5-3.78-8-4.82-3.13-3.18-3.52-7.52-4.8-11.48l-1.91-6c2.17-7.64,8.41-15,1.22-23.22-1.13-1.29-.39-3,0.07-4.58,2.34-8.09-.76-16.3.46-24.43a1.71,1.71,0,0,0-.47-1.44c-8.66-3.43-7.88-12.63-11.58-19.06C504,234.86,496.17,233.37,493,227Z" transform="translate(-107.32 -65)"/><path class="cls-194" d="M537.6,382.47c-1.38-.12-2.69-0.39-3.48-1.71-3.44-7.76-6.63-15.61-7.68-24.14,1.2-2.74,2.76-4.76,6.17-3.09,3.37,0,6.42-6.15,9.61-1.6,2.64,3.76,6.58,7.85,3.82,13.66a20.15,20.15,0,0,0-2.3,10.76C544.22,380.81,541.89,382.68,537.6,382.47Z" transform="translate(-107.32 -65)"/><path class="cls-195" d="M532.62,353.53a5.33,5.33,0,0,0-4.77,3.26c-5.49-1.13-2.11-6.07-3.78-8.87-0.52-.87.25,0.27-0.16-0.7-0.31-.74-0.81-0.61-1,0.19-2.67-5.73-2.56-11.18,1.64-16.21,5.66-3.37,5.49,3,8,4.82-7-1.65-7.75,1.4-5.12,6.9C529.11,346.46,530.88,350,532.62,353.53Z" transform="translate(-107.32 -65)"/><path class="cls-196" d="M522.86,347.41l0.57-3.22c3.13,3.72,1.69,8.89,4.41,12.6l6.28,24-2.63-1.25-8.81-24.24Z" transform="translate(-107.32 -65)"/><path class="cls-141" d="M436.39,307.09c6.7-8.23,13.39-16.46,21.25-23.64,5.77-5.27,10.82-11,12-19.09,0.63-4.25,4.52-5.66,6.63-8.59l0.08,4.6c-1.3,7.15-3.61,14-5.93,20.87l-3.63.22c-9.29,6.92-15.83,16.85-25.59,23.28C439.68,305.77,438.39,307.1,436.39,307.09Z" transform="translate(-107.32 -65)"/><path class="cls-197" d="M470.44,281.24c-0.2-7.57,3-14.19,5.93-20.86,1,7.49-2.55,14.25-3.42,21.44Z" transform="translate(-107.32 -65)"/><path class="cls-198" d="M380.41,353.35c-0.72-1.54-1.29-1.91-6.13-4.27a3,3,0,0,1-.64-1.42c-6.46-15.24-13.21-30.39-14.22-48.61l13.28,28.83,1.15,1.74c3.7,5.07,5.63,11.08,8.62,16.54C383.79,348.53,385.19,352.15,380.41,353.35Z" transform="translate(-107.32 -65)"/><path class="cls-199" d="M380.41,353.35c2.46-2.94,1.51-5.8-.25-8.6-2.95-4.7-4.59-9.93-6.3-15.14,6.88,5.63,9.47,13.87,12.15,21.7,3.94,11.49,9.29,22.22,15,32.82-7.42-4.53-15.14-8.72-13.48-19.65,0.32-2.08-2.22-3.35-4-4.52Z" transform="translate(-107.32 -65)"/><path class="cls-200" d="M640.62,272.3c-0.13,10.83,3.74,21.58.43,32.46-0.54,1.78.3,3.67,1.43,5.23,2.16,3.07,2.78,6.37.45,9.53s-4.91,4.71-8.43,1.15c-1.17-1.19-.58.65-0.64,0.94-2,9-7.45,16.92-7.56,26.41-1.37,5.67-1.82,11.79-7.45,15.39-5.78-5-.12-9.78.26-14.66-2.93-5.38-.35-10.32.87-15.1a0.81,0.81,0,1,0-.12.09c-2.55,3.06-3.13,9.76-8.23,8.09-4.18-1.36-1.11-7.23-1.87-10.12-1.33,5.54.31,12.21-1.9,18.52-3.5,4.19-1.78,11.2-7.63,14.11-0.56-5.2,2.79-10.11,1.11-15.44-2.39.77-.58,3.24-2.18,4.83-1.5-2-.11-5.07-2.25-6.62a14,14,0,0,0-.2-1.41c0.12-6.62.28-13.23,0.36-19.85,0-1.92,1.73-4.88-1.33-5.33s-3.43,2.61-3.74,5c-0.1.79-.17,1.58-0.25,2.37-5.08-1.61-2.78-6-3.55-9.3-0.54-2.28,1.29-6.24-2.77-6.17-3.65.06-3.91,3.57-3.91,6.64a97.16,97.16,0,0,0,1,15.77c0.65,4,1.14,8.84-5.21,9.37a6.65,6.65,0,0,1-1.94-1.21c-1.54-1.46-1.8-3.8-3.57-5.25-3,.11-1.63,5.28-5.25,4.63L565,340.75c-3.24-3.33-4.53-7-1.74-11.22a28.55,28.55,0,0,0-3-14.3c-6.88-9-7.83-20.24-11.86-30.32-0.4-7.21-5.22-13.6-4-21.12,2.84-4.22,7.53-5.15,11.81-5,6.07,0.19,12.1-.58,18.11-0.31" transform="translate(-107.32 -65)"/><path class="cls-201" d="M618.86,363.42c1.9-5.42,4.88-10.47,5.63-16.28a226,226,0,0,1,8.39-21.3c1.61-3.74,4.85-3.68,8-3.69,2.66,0,3.83,1.47,2.82,4.18l-3.76,9.27-17.53,40.53c-4.37-.12-1.93-5.38-4.92-6.54Z" transform="translate(-107.32 -65)"/><path class="cls-202" d="M607.87,350.25c-3-8.69,1.23-17,1.23-25.64,3.44,5.07,1.07,11.11,3.27,17.79l9.81-17c0.73,9.53-2.91,16.27-3.07,23.37C614.65,343.83,611.14,346.11,607.87,350.25Z" transform="translate(-107.32 -65)"/><path class="cls-203" d="M576,342.66c7,1,5.07-4.42,4.42-7.21-1.43-6.1-.95-12.18-1.22-18.27-0.23-5.06,3.1-7.85,7.07-8,5.1-.22,3.73,4.67,4.12,7.9,0.44,3.62-1,7.49,1.35,10.87-2.88,5-2.46,11.24-6.31,15.81,0.72,2.91,1,5.77-1.06,8.33C579.57,350.73,575.49,348.74,576,342.66Z" transform="translate(-107.32 -65)"/><path class="cls-204" d="M583.68,351.79c0.7-2.66-.66-5.77,1.77-8.05,6.64,0,3.39,5,2.75,7.11-1.18,3.9-3.8,7.37-5.82,11l-0.15-6.69C581.52,353.55,582.69,352.71,583.68,351.79Z" transform="translate(-107.32 -65)"/><path class="cls-205" d="M563.23,329.53L565,340.75c-0.21,13.6,3.7,26.72,4.72,40.18-6.07,1-8.3-1.24-8.52-7.66-0.4-11.86-1.93-23.68-2.9-35.53C558,333.89,557.9,330,563.23,329.53Z" transform="translate(-107.32 -65)"/><path class="cls-206" d="M583.68,351.79l-1.45,3.39c-2.07-1.48-2.29-6-5.34-5-2.64.83-3.34,4.51-3.94,7.33a33.64,33.64,0,0,0-.29,5.53,22.67,22.67,0,0,1-3-12.93c1.83-2.82-1.21-9.63,6.35-7.74v0.28C577.07,347,581.08,348.78,583.68,351.79Z" transform="translate(-107.32 -65)"/><path class="cls-207" d="M576,342.38c-4.82.36-3.61,5.68-6.35,7.74l-3.13-7.71c0.18-.19.37-0.37,0.54-0.57,2.14-2.45-.77-8.31,4-8.18C575.53,333.78,574.74,339.16,576,342.38Z" transform="translate(-107.32 -65)"/><path class="cls-208" d="M550.13,284.63a249.46,249.46,0,0,1,10.13,30.6c-3.85,2.08-7.67-2.21-11.52-.05-1.33-13.42-3.36-26.63-12.67-39,4.83,0.22,5.93,5.11,9.43,3.61C549.52,279,548,283.57,550.13,284.63Z" transform="translate(-107.32 -65)"/><path class="cls-209" d="M646.57,274.47c0,13.72-1.85,27.55,1.36,41.17a31.94,31.94,0,0,0,1.72,4.38c-3.09,1.07-4,4.2-6,6.31-3.83-5.6-7.06-4.55-9.37,1.12a134.2,134.2,0,0,1-9.8,19.7c-0.22-5.42,1.65-10.41,3.49-15.31,1.76-4.67,4.69-8.9,4.36-14.25a3,3,0,0,1,2.64-3.38c1.39-.13,1.61,1,1.75,2.1,0.21,1.72-2.61,4.63,1.29,4.86,3.24,0.19,4.06-3.06,4.76-5.53,0.29-1-.65-2.45-1-3.69a9.9,9.9,0,0,1-1.48-7.68c2-10.66-.61-21.26-0.13-31.89" transform="translate(-107.32 -65)"/><path class="cls-209" d="M559.08,260.53c-5.23-.08-9.35,2.35-13.93,3.81a2.71,2.71,0,0,1-2.1-2.65c2-6.51,7.91-8.94,13.06-8.52,8,0.66,15.9-2.65,23.84-.14" transform="translate(-107.32 -65)"/><path class="cls-210" d="M557.61,254.61c-5.38-.08-11,2.26-14,7.83-2.24-.29-2.64-1.93-2.78-3.77,0.3-5.56,5.54-2.53,7.88-4.53,3.09-5,9.18-6.92,12-12.42,1.37-2.71,5-2.63,6.53.3" transform="translate(-107.32 -65)"/><path class="cls-211" d="M542,259.17l1.61,3.28,1.53,1.9,5,20.29c-3.34.12-2.56-3.72-4.64-4.82,0-4.87-5.51-7.65-4.84-12.77-2.37-4-4.37-8.2-8-11.29,0.17-2.44-2.22-3.14-3.23-4.78-1.73-2.7-3.54-5.39,0-8.08l1.87-.13C538.95,245.59,540.5,252.37,542,259.17Z" transform="translate(-107.32 -65)"/><path class="cls-212" d="M542,259.17c-2.41-6.22-6.34-11.45-10.69-16.4,0.35-3.75,3-3.43,5.17-2.4,2.83,1.36,6.2,3.59,5.31,7-1.84,7.06,2.46,6.73,6.92,6.74C547.34,256.95,542.16,254.69,542,259.17Z" transform="translate(-107.32 -65)"/><path class="cls-208" d="M529.46,242.89a15,15,0,0,0,0,8.07c-5.39-4.61-9.12-10-8.13-17.54C525.12,235.63,526.65,239.81,529.46,242.89Z" transform="translate(-107.32 -65)"/><path class="cls-170" d="M476.41,188.41C470.05,178,460,169.54,458.85,156.28c3.79,2.95,3.36,8.87,8,11.24,1.09,7.06,8.58,10.58,9.73,17.6Z" transform="translate(-107.32 -65)"/><path class="cls-213" d="M396.37,270.11l15.65-.32a4,4,0,0,1,1.88,3.58l-1.59,1.7-12.74-.41C399.56,272.4,395.29,273.14,396.37,270.11Z" transform="translate(-107.32 -65)"/><path class="cls-123" d="M458.85,247.75c-0.66,4.78,1.57,9.89-1.59,14.39C456.59,257.21,455.38,252.22,458.85,247.75Z" transform="translate(-107.32 -65)"/><path class="cls-208" d="M532.67,255.74c6.14,1.31,6.35,6.8,8,11.29C537.35,263.73,533.93,260.5,532.67,255.74Z" transform="translate(-107.32 -65)"/><path class="cls-214" d="M610.89,307.06c-8.59.12-16.27,0-23.39-3.57a1.85,1.85,0,0,0-.71-0.35c-3.26.14-8.59,5.19-9.1-1.61-0.56-7.34-2.33-15.55,3-22.25,3.43-4.27,8.86-3.73,12.62-2.18,9,3.71,17.82,1.14,26.6.41,4.3-.36,6.39.93,8.36,4.2,4.4,7.31,2.57,15.18-.6,21.45C624.36,309.82,616.15,306.35,610.89,307.06Z" transform="translate(-107.32 -65)"/><path class="cls-215" d="M641.76,275.32c0,12.21,0,24.41,0,36.62-4.3-2.33-3.73-6.39-2.73-9.86,3.21-11.19-1.67-22.08-.84-33.19" transform="translate(-107.32 -65)"/><path class="cls-216" d="M583.88,334.39c0-7.17-.08-12.71.05-18.26,0-1.56.69-3.33,2.75-3.1,1.54,0.17,2.09,1.77,1.95,3.06C588,321.81,591.32,328.54,583.88,334.39Z" transform="translate(-107.32 -65)"/></g></svg>